%TF.GenerationSoftware,KiCad,Pcbnew,10.0.4*%
%TF.CreationDate,2026-07-18T17:24:23-04:00*%
%TF.ProjectId,bench-psu-monitor,62656e63-682d-4707-9375-2d6d6f6e6974,rev?*%
%TF.SameCoordinates,Original*%
%TF.FileFunction,Copper,L2,Bot*%
%TF.FilePolarity,Positive*%
%FSLAX46Y46*%
G04 Gerber Fmt 4.6, Leading zero omitted, Abs format (unit mm)*
G04 Created by KiCad (PCBNEW 10.0.4) date 2026-07-18 17:24:23*
%MOMM*%
%LPD*%
G01*
G04 APERTURE LIST*
G04 Aperture macros list*
%AMRoundRect*
0 Rectangle with rounded corners*
0 $1 Rounding radius*
0 $2 $3 $4 $5 $6 $7 $8 $9 X,Y pos of 4 corners*
0 Add a 4 corners polygon primitive as box body*
4,1,4,$2,$3,$4,$5,$6,$7,$8,$9,$2,$3,0*
0 Add four circle primitives for the rounded corners*
1,1,$1+$1,$2,$3*
1,1,$1+$1,$4,$5*
1,1,$1+$1,$6,$7*
1,1,$1+$1,$8,$9*
0 Add four rect primitives between the rounded corners*
20,1,$1+$1,$2,$3,$4,$5,0*
20,1,$1+$1,$4,$5,$6,$7,0*
20,1,$1+$1,$6,$7,$8,$9,0*
20,1,$1+$1,$8,$9,$2,$3,0*%
G04 Aperture macros list end*
%TA.AperFunction,ComponentPad*%
%ADD10R,1.700000X1.700000*%
%TD*%
%TA.AperFunction,ComponentPad*%
%ADD11C,1.700000*%
%TD*%
%TA.AperFunction,ComponentPad*%
%ADD12C,7.000000*%
%TD*%
%TA.AperFunction,ComponentPad*%
%ADD13RoundRect,0.250000X-0.600000X-0.750000X0.600000X-0.750000X0.600000X0.750000X-0.600000X0.750000X0*%
%TD*%
%TA.AperFunction,ComponentPad*%
%ADD14O,1.700000X2.000000*%
%TD*%
%TA.AperFunction,ComponentPad*%
%ADD15O,1.900000X1.524000*%
%TD*%
%TA.AperFunction,ComponentPad*%
%ADD16RoundRect,0.250000X-1.050000X1.050000X-1.050000X-1.050000X1.050000X-1.050000X1.050000X1.050000X0*%
%TD*%
%TA.AperFunction,ComponentPad*%
%ADD17C,2.600000*%
%TD*%
%TA.AperFunction,ComponentPad*%
%ADD18RoundRect,0.250000X0.600000X0.750000X-0.600000X0.750000X-0.600000X-0.750000X0.600000X-0.750000X0*%
%TD*%
%TA.AperFunction,ComponentPad*%
%ADD19RoundRect,0.250000X1.050000X1.050000X-1.050000X1.050000X-1.050000X-1.050000X1.050000X-1.050000X0*%
%TD*%
%TA.AperFunction,ComponentPad*%
%ADD20RoundRect,0.250000X-1.050000X-1.050000X1.050000X-1.050000X1.050000X1.050000X-1.050000X1.050000X0*%
%TD*%
%TA.AperFunction,ViaPad*%
%ADD21C,1.200000*%
%TD*%
%TA.AperFunction,Conductor*%
%ADD22C,0.250000*%
%TD*%
%TA.AperFunction,Conductor*%
%ADD23C,0.800000*%
%TD*%
%TA.AperFunction,Conductor*%
%ADD24C,0.500000*%
%TD*%
G04 APERTURE END LIST*
D10*
%TO.P,J6,1,Pin_1_1*%
%TO.N,Net-(J6-Pin_1)*%
X107010000Y-101340000D03*
D11*
%TO.P,J6,2,Pin_2_2*%
%TO.N,SDA*%
X109550000Y-101340000D03*
%TO.P,J6,3,Pin_3_3*%
%TO.N,+3.3V*%
X107010000Y-98800000D03*
%TO.P,J6,4,Pin_4_4*%
%TO.N,SCL*%
X109550000Y-98800000D03*
%TO.P,J6,5,Pin_5_5*%
%TO.N,Net-(J6-Pin_5)*%
X107010000Y-96260000D03*
%TO.P,J6,6,Pin_6_6*%
%TO.N,GND*%
X109550000Y-96260000D03*
%TO.P,J6,7,Pin_7_7*%
%TO.N,Net-(J6-Pin_7)*%
X107010000Y-93720000D03*
%TO.P,J6,8,Pin_8_8*%
%TO.N,GND*%
X109550000Y-93720000D03*
%TO.P,J6,9,Pin_9_9*%
%TO.N,Net-(J6-Pin_9)*%
X107010000Y-91180000D03*
%TO.P,J6,10,Pin_10_10*%
%TO.N,GND*%
X109550000Y-91180000D03*
%TO.P,J6,11,Pin_11_11*%
%TO.N,Net-(J6-Pin_11)*%
X107010000Y-88640000D03*
%TO.P,J6,12,Pin_12_12*%
%TO.N,GND*%
X109550000Y-88640000D03*
%TD*%
D12*
%TO.P,REF\u002A\u002A,1*%
%TO.N,GND*%
X201750000Y-57000000D03*
%TD*%
D13*
%TO.P,J4,1,Pin_1_1*%
%TO.N,CTLSW*%
X154050000Y-57900000D03*
D14*
%TO.P,J4,2,Pin_2_2*%
%TO.N,GND*%
X156550000Y-57900000D03*
%TD*%
D12*
%TO.P,REF\u002A\u002A,1*%
%TO.N,GND*%
X103750000Y-125000000D03*
%TD*%
D15*
%TO.P,U2,1,VIN_1*%
%TO.N,Net-(J6-Pin_1)*%
X117150000Y-110160000D03*
%TO.P,U2,2,GND_2*%
%TO.N,GND*%
X117150000Y-107620000D03*
%TO.P,U2,3,GPIO13_3*%
%TO.N,unconnected-(U2-GPIO13-Pad3)*%
X117150000Y-105080000D03*
%TO.P,U2,4,GPIO12_4*%
%TO.N,unconnected-(U2-GPIO12-Pad4)*%
X117150000Y-102540000D03*
%TO.P,U2,5,GPIO14_5*%
%TO.N,Net-(J6-Pin_5)*%
X117150000Y-100000000D03*
%TO.P,U2,6,GPIO27_6*%
%TO.N,Net-(J6-Pin_7)*%
X117150000Y-97460000D03*
%TO.P,U2,7,GPIO26_7*%
%TO.N,Net-(J6-Pin_9)*%
X117150000Y-94920000D03*
%TO.P,U2,8,GPIO25_8*%
%TO.N,Net-(J6-Pin_11)*%
X117150000Y-92380000D03*
%TO.P,U2,9,GPIO33_9*%
%TO.N,WARN*%
X117150000Y-89840000D03*
%TO.P,U2,10,GPIO32_10*%
%TO.N,TC*%
X117150000Y-87300000D03*
%TO.P,U2,11,GPIO35_11*%
%TO.N,CRIT*%
X117150000Y-84760000D03*
%TO.P,U2,12,GPIO34_12*%
%TO.N,PV*%
X117150000Y-82220000D03*
%TO.P,U2,13,GPIO39_13*%
%TO.N,unconnected-(U2-GPIO39-Pad13)*%
X117150000Y-79680000D03*
%TO.P,U2,14,GPIO36_14*%
%TO.N,unconnected-(U2-GPIO36-Pad14)*%
X117150000Y-77140000D03*
%TO.P,U2,15,EN_15*%
%TO.N,unconnected-(U2-EN-Pad15)*%
X117150000Y-74600000D03*
%TO.P,U2,16,3.3v_16*%
%TO.N,+3.3V*%
X142550000Y-110160000D03*
%TO.P,U2,17,GND_17*%
%TO.N,GND*%
X142550000Y-107620000D03*
%TO.P,U2,18,GPIO15_18*%
%TO.N,unconnected-(U2-GPIO15-Pad18)*%
X142550000Y-105080000D03*
%TO.P,U2,19,GPIO2_19*%
%TO.N,PWRLED*%
X142550000Y-102540000D03*
%TO.P,U2,20,GPIO4_20*%
%TO.N,unconnected-(U2-GPIO4-Pad20)*%
X142550000Y-100000000D03*
%TO.P,U2,21,GPIO16_21*%
%TO.N,unconnected-(U2-GPIO16-Pad21)*%
X142550000Y-97460000D03*
%TO.P,U2,22,GPIO17_22*%
%TO.N,unconnected-(U2-GPIO17-Pad22)*%
X142550000Y-94920000D03*
%TO.P,U2,23,GPIO5_23*%
%TO.N,unconnected-(U2-GPIO5-Pad23)*%
X142550000Y-92380000D03*
%TO.P,U2,24,GPIO18_24*%
%TO.N,unconnected-(U2-GPIO18-Pad24)*%
X142550000Y-89840000D03*
%TO.P,U2,25,GPIO19_25*%
%TO.N,unconnected-(U2-GPIO19-Pad25)*%
X142550000Y-87300000D03*
%TO.P,U2,26,GPIO21_26*%
%TO.N,SDA*%
X142550000Y-84760000D03*
%TO.P,U2,27,GPIO3_27*%
%TO.N,unconnected-(U2-GPIO3-Pad27)*%
X142550000Y-82220000D03*
%TO.P,U2,28,GPIO1_28*%
%TO.N,unconnected-(U2-GPIO1-Pad28)*%
X142550000Y-79680000D03*
%TO.P,U2,29,GPIO22_29*%
%TO.N,SCL*%
X142550000Y-77140000D03*
%TO.P,U2,30,GPIO23_30*%
%TO.N,CTLSW*%
X142550000Y-74600000D03*
%TD*%
D16*
%TO.P,J2,1,Pin_1_1*%
%TO.N,/IN2+*%
X201950000Y-87250000D03*
D17*
%TO.P,J2,2,Pin_2_2*%
%TO.N,/IN2-*%
X201950000Y-92250000D03*
%TO.P,J2,3,Pin_3_3*%
%TO.N,GNDPWR*%
X201950000Y-97250000D03*
%TD*%
D18*
%TO.P,J5,1,Pin_1_1*%
%TO.N,Net-(J5-Pin_1)*%
X156400000Y-121925000D03*
D14*
%TO.P,J5,2,Pin_2_2*%
%TO.N,GND*%
X153900000Y-121925000D03*
%TD*%
D19*
%TO.P,J1,1,Pin_1_1*%
%TO.N,/IN1+*%
X181000000Y-114350000D03*
D17*
%TO.P,J1,2,Pin_2_2*%
%TO.N,/IN1-*%
X176000000Y-114350000D03*
%TO.P,J1,3,Pin_3_3*%
%TO.N,GNDPWR*%
X171000000Y-114350000D03*
%TD*%
D12*
%TO.P,REF\u002A\u002A,1*%
%TO.N,GND*%
X103750000Y-57000000D03*
%TD*%
%TO.P,REF\u002A\u002A,1*%
%TO.N,GND*%
X201750000Y-125000000D03*
%TD*%
D20*
%TO.P,J3,1,Pin_1_1*%
%TO.N,/IN3+*%
X175750000Y-64267500D03*
D17*
%TO.P,J3,2,Pin_2_2*%
%TO.N,/IN3-*%
X180750000Y-64267500D03*
%TO.P,J3,3,Pin_3_3*%
%TO.N,GNDPWR*%
X185750000Y-64267500D03*
%TD*%
D21*
%TO.N,SDA*%
X160950000Y-97000000D03*
X152750000Y-97200000D03*
%TO.N,+3.3V*%
X164320834Y-87320834D03*
X180950000Y-86600000D03*
%TO.N,SCL*%
X152682159Y-93875740D03*
X160950000Y-94000000D03*
%TO.N,GND*%
X159250000Y-64750000D03*
X169500000Y-82500000D03*
X177687500Y-89525000D03*
X172864526Y-82518111D03*
X192882106Y-71353876D03*
X154250000Y-105250000D03*
%TO.N,CRIT*%
X170150000Y-97200000D03*
X152950000Y-80800000D03*
%TO.N,WARN*%
X167550000Y-97200000D03*
X152950000Y-84000000D03*
%TO.N,PV*%
X152950000Y-77400000D03*
X172550000Y-97200000D03*
%TO.N,TC*%
X152950000Y-87400000D03*
X181550000Y-92800000D03*
%TO.N,CTLSW*%
X150950000Y-65000000D03*
%TO.N,PWRLED*%
X151550000Y-115600000D03*
%TO.N,/ADDR*%
X169000000Y-92500000D03*
X171000000Y-89250000D03*
%TD*%
%TO.N,SDA*%
D22*
X113500000Y-103150000D02*
X113500000Y-111986396D01*
X152750000Y-97200000D02*
X160750000Y-97200000D01*
X133550000Y-86600000D02*
X135390000Y-84760000D01*
X160750000Y-97200000D02*
X160950000Y-97000000D01*
X113500000Y-111986396D02*
X115563604Y-114050000D01*
X135390000Y-84760000D02*
X142550000Y-84760000D01*
X109550000Y-101340000D02*
X111690000Y-101340000D01*
X115563604Y-114050000D02*
X120936396Y-114050000D01*
X111690000Y-101340000D02*
X113500000Y-103150000D01*
X133550000Y-101436396D02*
X133550000Y-86600000D01*
X120936396Y-114050000D02*
X133550000Y-101436396D01*
%TO.N,+3.3V*%
D23*
X107010000Y-98800000D02*
X104550000Y-98800000D01*
D24*
X179550000Y-85200000D02*
X180950000Y-86600000D01*
D23*
X104550000Y-98800000D02*
X103750000Y-99600000D01*
X137935000Y-114775000D02*
X142550000Y-110160000D01*
X115263300Y-114775000D02*
X137935000Y-114775000D01*
X103750000Y-99600000D02*
X103750000Y-103261700D01*
D24*
X165391668Y-86250000D02*
X174700000Y-86250000D01*
D23*
X103750000Y-103261700D02*
X115263300Y-114775000D01*
D24*
X174700000Y-86250000D02*
X175750000Y-85200000D01*
X175750000Y-85200000D02*
X179550000Y-85200000D01*
X164320834Y-87320834D02*
X165391668Y-86250000D01*
%TO.N,SCL*%
D22*
X120750000Y-113600000D02*
X132950000Y-101400000D01*
X137810000Y-77140000D02*
X142550000Y-77140000D01*
X152682159Y-93875740D02*
X160825740Y-93875740D01*
X132950000Y-101400000D02*
X132950000Y-82000000D01*
X113950000Y-111800000D02*
X115750000Y-113600000D01*
X132950000Y-82000000D02*
X137810000Y-77140000D01*
X109550000Y-98800000D02*
X111750000Y-98800000D01*
X111750000Y-98800000D02*
X113950000Y-101000000D01*
X115750000Y-113600000D02*
X120750000Y-113600000D01*
X113950000Y-101000000D02*
X113950000Y-111800000D01*
X160825740Y-93875740D02*
X160950000Y-94000000D01*
%TO.N,CRIT*%
X152950000Y-82000000D02*
X152950000Y-80800000D01*
X162900000Y-90750000D02*
X161700000Y-90750000D01*
X161700000Y-90750000D02*
X152950000Y-82000000D01*
X170150000Y-97200000D02*
X168733148Y-95783148D01*
X167933148Y-95783148D02*
X162900000Y-90750000D01*
X168733148Y-95783148D02*
X167933148Y-95783148D01*
%TO.N,WARN*%
X155550000Y-63000000D02*
X154350000Y-61800000D01*
X154350000Y-61800000D02*
X145190000Y-61800000D01*
X145190000Y-61800000D02*
X117150000Y-89840000D01*
X152950000Y-85000000D02*
X152950000Y-84000000D01*
X150150000Y-70600000D02*
X155550000Y-65200000D01*
X150150000Y-81200000D02*
X150150000Y-70600000D01*
X161550000Y-91200000D02*
X159150000Y-91200000D01*
X159150000Y-91200000D02*
X152950000Y-85000000D01*
X167550000Y-97200000D02*
X161550000Y-91200000D01*
X155550000Y-65200000D02*
X155550000Y-63000000D01*
X152950000Y-84000000D02*
X150150000Y-81200000D01*
%TO.N,PV*%
X152950000Y-78800000D02*
X152950000Y-77400000D01*
X172550000Y-97200000D02*
X170950000Y-95600000D01*
X169750000Y-95600000D02*
X152950000Y-78800000D01*
X170950000Y-95600000D02*
X169750000Y-95600000D01*
%TO.N,TC*%
X161150000Y-92200000D02*
X157750000Y-92200000D01*
X165350000Y-96400000D02*
X161150000Y-92200000D01*
X181550000Y-92800000D02*
X181550000Y-100400000D01*
X181350000Y-100600000D02*
X181550000Y-100400000D01*
X165350000Y-97600000D02*
X165350000Y-96400000D01*
X157750000Y-92200000D02*
X152950000Y-87400000D01*
X168350000Y-100600000D02*
X181350000Y-100600000D01*
X168350000Y-100600000D02*
X165350000Y-97600000D01*
%TO.N,CTLSW*%
X142550000Y-73400000D02*
X142550000Y-74600000D01*
X150950000Y-65000000D02*
X142550000Y-73400000D01*
%TO.N,PWRLED*%
X144890000Y-102540000D02*
X150350000Y-108000000D01*
X150350000Y-108000000D02*
X150350000Y-114400000D01*
X150350000Y-114400000D02*
X151550000Y-115600000D01*
X142550000Y-102540000D02*
X144890000Y-102540000D01*
%TO.N,/ADDR*%
X169000000Y-91250000D02*
X169000000Y-92500000D01*
X171000000Y-89250000D02*
X169000000Y-91250000D01*
%TD*%
%TA.AperFunction,Conductor*%
%TO.N,GND*%
G36*
X109084075Y-96452993D02*
G01*
X109149901Y-96567007D01*
X109242993Y-96660099D01*
X109357007Y-96725925D01*
X109420590Y-96742962D01*
X108788282Y-97375269D01*
X108788282Y-97375270D01*
X108842452Y-97414626D01*
X108842451Y-97414626D01*
X108851495Y-97419234D01*
X108902292Y-97467208D01*
X108919087Y-97535029D01*
X108896550Y-97601164D01*
X108851499Y-97640202D01*
X108842182Y-97644949D01*
X108670213Y-97769890D01*
X108519890Y-97920213D01*
X108394949Y-98092182D01*
X108390484Y-98100946D01*
X108342509Y-98151742D01*
X108274688Y-98168536D01*
X108208553Y-98145998D01*
X108169516Y-98100946D01*
X108165050Y-98092182D01*
X108040109Y-97920213D01*
X107889786Y-97769890D01*
X107717820Y-97644951D01*
X107717115Y-97644591D01*
X107709054Y-97640485D01*
X107658259Y-97592512D01*
X107641463Y-97524692D01*
X107663999Y-97458556D01*
X107709054Y-97419515D01*
X107717816Y-97415051D01*
X107781857Y-97368523D01*
X107889786Y-97290109D01*
X107889788Y-97290106D01*
X107889792Y-97290104D01*
X108040104Y-97139792D01*
X108040106Y-97139788D01*
X108040109Y-97139786D01*
X108125890Y-97021717D01*
X108165051Y-96967816D01*
X108169793Y-96958508D01*
X108217763Y-96907711D01*
X108285583Y-96890911D01*
X108351719Y-96913445D01*
X108390763Y-96958500D01*
X108395373Y-96967547D01*
X108434728Y-97021716D01*
X109067037Y-96389408D01*
X109084075Y-96452993D01*
G37*
%TD.AperFunction*%
%TA.AperFunction,Conductor*%
G36*
X109084075Y-93912993D02*
G01*
X109149901Y-94027007D01*
X109242993Y-94120099D01*
X109357007Y-94185925D01*
X109420591Y-94202962D01*
X108819971Y-94803581D01*
X108898711Y-94920895D01*
X108899920Y-94924729D01*
X108902844Y-94927491D01*
X108910343Y-94957778D01*
X108919727Y-94987529D01*
X108918671Y-94991408D01*
X108919638Y-94995312D01*
X108909573Y-95024844D01*
X108901383Y-95054947D01*
X108898397Y-95057640D01*
X108897100Y-95061447D01*
X108852051Y-95100483D01*
X108842440Y-95105380D01*
X108788282Y-95144727D01*
X108788282Y-95144728D01*
X109420591Y-95777037D01*
X109357007Y-95794075D01*
X109242993Y-95859901D01*
X109149901Y-95952993D01*
X109084075Y-96067007D01*
X109067037Y-96130591D01*
X108434728Y-95498282D01*
X108434727Y-95498282D01*
X108395380Y-95552440D01*
X108395376Y-95552446D01*
X108390760Y-95561505D01*
X108342781Y-95612297D01*
X108274959Y-95629087D01*
X108208826Y-95606543D01*
X108169794Y-95561493D01*
X108165051Y-95552184D01*
X108165049Y-95552181D01*
X108165048Y-95552179D01*
X108040109Y-95380213D01*
X107889786Y-95229890D01*
X107717820Y-95104951D01*
X107717115Y-95104591D01*
X107709054Y-95100485D01*
X107658259Y-95052512D01*
X107641463Y-94984692D01*
X107663999Y-94918556D01*
X107709054Y-94879515D01*
X107717816Y-94875051D01*
X107739789Y-94859086D01*
X107889786Y-94750109D01*
X107889788Y-94750106D01*
X107889792Y-94750104D01*
X108040104Y-94599792D01*
X108040106Y-94599788D01*
X108040109Y-94599786D01*
X108125890Y-94481717D01*
X108165051Y-94427816D01*
X108169793Y-94418508D01*
X108217763Y-94367711D01*
X108285583Y-94350911D01*
X108351719Y-94373445D01*
X108390763Y-94418500D01*
X108395373Y-94427547D01*
X108434728Y-94481716D01*
X109067037Y-93849408D01*
X109084075Y-93912993D01*
G37*
%TD.AperFunction*%
%TA.AperFunction,Conductor*%
G36*
X109084075Y-91372993D02*
G01*
X109149901Y-91487007D01*
X109242993Y-91580099D01*
X109357007Y-91645925D01*
X109420591Y-91662962D01*
X108819971Y-92263581D01*
X108898711Y-92380895D01*
X108899920Y-92384729D01*
X108902844Y-92387491D01*
X108910343Y-92417778D01*
X108919727Y-92447529D01*
X108918671Y-92451408D01*
X108919638Y-92455312D01*
X108909573Y-92484844D01*
X108901383Y-92514947D01*
X108898397Y-92517640D01*
X108897100Y-92521447D01*
X108852051Y-92560483D01*
X108842440Y-92565380D01*
X108788282Y-92604727D01*
X108788282Y-92604728D01*
X109420591Y-93237037D01*
X109357007Y-93254075D01*
X109242993Y-93319901D01*
X109149901Y-93412993D01*
X109084075Y-93527007D01*
X109067037Y-93590591D01*
X108434728Y-92958282D01*
X108434727Y-92958282D01*
X108395380Y-93012440D01*
X108395376Y-93012446D01*
X108390760Y-93021505D01*
X108342781Y-93072297D01*
X108274959Y-93089087D01*
X108208826Y-93066543D01*
X108169794Y-93021493D01*
X108165051Y-93012184D01*
X108165049Y-93012181D01*
X108165048Y-93012179D01*
X108040109Y-92840213D01*
X107889786Y-92689890D01*
X107717820Y-92564951D01*
X107717115Y-92564591D01*
X107709054Y-92560485D01*
X107658259Y-92512512D01*
X107641463Y-92444692D01*
X107663999Y-92378556D01*
X107709054Y-92339515D01*
X107717816Y-92335051D01*
X107772570Y-92295270D01*
X107889786Y-92210109D01*
X107889788Y-92210106D01*
X107889792Y-92210104D01*
X108040104Y-92059792D01*
X108040106Y-92059788D01*
X108040109Y-92059786D01*
X108125890Y-91941717D01*
X108165051Y-91887816D01*
X108169793Y-91878508D01*
X108217763Y-91827711D01*
X108285583Y-91810911D01*
X108351719Y-91833445D01*
X108390763Y-91878500D01*
X108395373Y-91887547D01*
X108434728Y-91941716D01*
X109067037Y-91309408D01*
X109084075Y-91372993D01*
G37*
%TD.AperFunction*%
%TA.AperFunction,Conductor*%
G36*
X109084075Y-88832993D02*
G01*
X109149901Y-88947007D01*
X109242993Y-89040099D01*
X109357007Y-89105925D01*
X109420591Y-89122962D01*
X108819971Y-89723581D01*
X108898711Y-89840895D01*
X108899920Y-89844729D01*
X108902844Y-89847491D01*
X108910343Y-89877778D01*
X108919727Y-89907529D01*
X108918671Y-89911408D01*
X108919638Y-89915312D01*
X108909573Y-89944844D01*
X108901383Y-89974947D01*
X108898397Y-89977640D01*
X108897100Y-89981447D01*
X108852051Y-90020483D01*
X108842440Y-90025380D01*
X108788282Y-90064727D01*
X108788282Y-90064728D01*
X109420591Y-90697037D01*
X109357007Y-90714075D01*
X109242993Y-90779901D01*
X109149901Y-90872993D01*
X109084075Y-90987007D01*
X109067037Y-91050591D01*
X108434728Y-90418282D01*
X108434727Y-90418282D01*
X108395380Y-90472440D01*
X108395376Y-90472446D01*
X108390760Y-90481505D01*
X108342781Y-90532297D01*
X108274959Y-90549087D01*
X108208826Y-90526543D01*
X108169794Y-90481493D01*
X108165051Y-90472184D01*
X108165049Y-90472181D01*
X108165048Y-90472179D01*
X108040109Y-90300213D01*
X107889786Y-90149890D01*
X107717820Y-90024951D01*
X107717115Y-90024591D01*
X107709054Y-90020485D01*
X107658259Y-89972512D01*
X107641463Y-89904692D01*
X107663999Y-89838556D01*
X107709054Y-89799515D01*
X107717816Y-89795051D01*
X107772570Y-89755270D01*
X107889786Y-89670109D01*
X107889788Y-89670106D01*
X107889792Y-89670104D01*
X108040104Y-89519792D01*
X108040106Y-89519788D01*
X108040109Y-89519786D01*
X108125890Y-89401717D01*
X108165051Y-89347816D01*
X108169793Y-89338508D01*
X108217763Y-89287711D01*
X108285583Y-89270911D01*
X108351719Y-89293445D01*
X108390763Y-89338500D01*
X108395373Y-89347547D01*
X108434728Y-89401716D01*
X109067037Y-88769408D01*
X109084075Y-88832993D01*
G37*
%TD.AperFunction*%
%TA.AperFunction,Conductor*%
G36*
X202752702Y-51500617D02*
G01*
X203136773Y-51517386D01*
X203147505Y-51518326D01*
X203525963Y-51568150D01*
X203536601Y-51570025D01*
X203909279Y-51652647D01*
X203919720Y-51655445D01*
X204283765Y-51770227D01*
X204293911Y-51773920D01*
X204646578Y-51920000D01*
X204656369Y-51924566D01*
X204994942Y-52100816D01*
X205004310Y-52106224D01*
X205326244Y-52311318D01*
X205335105Y-52317523D01*
X205637930Y-52549889D01*
X205646217Y-52556843D01*
X205927635Y-52814715D01*
X205935284Y-52822364D01*
X206193156Y-53103782D01*
X206200110Y-53112069D01*
X206432476Y-53414894D01*
X206438681Y-53423755D01*
X206643775Y-53745689D01*
X206649183Y-53755057D01*
X206825430Y-54093623D01*
X206830002Y-54103427D01*
X206976075Y-54456078D01*
X206979775Y-54466244D01*
X207094553Y-54830276D01*
X207097353Y-54840724D01*
X207179972Y-55213390D01*
X207181850Y-55224044D01*
X207231671Y-55602472D01*
X207232614Y-55613248D01*
X207249382Y-55997297D01*
X207249500Y-56002706D01*
X207249500Y-125997293D01*
X207249382Y-126002702D01*
X207232614Y-126386751D01*
X207231671Y-126397527D01*
X207181850Y-126775955D01*
X207179972Y-126786609D01*
X207097353Y-127159275D01*
X207094553Y-127169723D01*
X206979775Y-127533755D01*
X206976075Y-127543921D01*
X206830002Y-127896572D01*
X206825430Y-127906376D01*
X206649183Y-128244942D01*
X206643775Y-128254310D01*
X206438681Y-128576244D01*
X206432476Y-128585105D01*
X206200110Y-128887930D01*
X206193156Y-128896217D01*
X205935284Y-129177635D01*
X205927635Y-129185284D01*
X205646217Y-129443156D01*
X205637930Y-129450110D01*
X205335105Y-129682476D01*
X205326244Y-129688681D01*
X205004310Y-129893775D01*
X204994942Y-129899183D01*
X204656376Y-130075430D01*
X204646572Y-130080002D01*
X204293921Y-130226075D01*
X204283755Y-130229775D01*
X203919723Y-130344553D01*
X203909275Y-130347353D01*
X203536609Y-130429972D01*
X203525955Y-130431850D01*
X203147527Y-130481671D01*
X203136751Y-130482614D01*
X202752703Y-130499382D01*
X202747294Y-130499500D01*
X102752706Y-130499500D01*
X102747297Y-130499382D01*
X102363248Y-130482614D01*
X102352474Y-130481671D01*
X102290007Y-130473447D01*
X101974044Y-130431850D01*
X101963390Y-130429972D01*
X101590724Y-130347353D01*
X101580276Y-130344553D01*
X101216244Y-130229775D01*
X101206078Y-130226075D01*
X100853427Y-130080002D01*
X100843623Y-130075430D01*
X100505057Y-129899183D01*
X100495689Y-129893775D01*
X100173755Y-129688681D01*
X100164894Y-129682476D01*
X99862069Y-129450110D01*
X99853782Y-129443156D01*
X99572364Y-129185284D01*
X99564715Y-129177635D01*
X99306843Y-128896217D01*
X99299889Y-128887930D01*
X99067523Y-128585105D01*
X99061318Y-128576244D01*
X98856224Y-128254310D01*
X98850816Y-128244942D01*
X98674569Y-127906376D01*
X98669997Y-127896572D01*
X98523924Y-127543921D01*
X98520224Y-127533755D01*
X98405446Y-127169723D01*
X98402646Y-127159275D01*
X98320027Y-126786609D01*
X98318149Y-126775955D01*
X98305642Y-126680953D01*
X98268326Y-126397505D01*
X98267386Y-126386773D01*
X98250618Y-126002702D01*
X98250500Y-125997293D01*
X98250500Y-121668753D01*
X152550000Y-121668753D01*
X152550000Y-121675000D01*
X153466988Y-121675000D01*
X153434075Y-121732007D01*
X153400000Y-121859174D01*
X153400000Y-121990826D01*
X153434075Y-122117993D01*
X153466988Y-122175000D01*
X152550000Y-122175000D01*
X152550000Y-122181246D01*
X152583242Y-122391127D01*
X152583242Y-122391130D01*
X152648904Y-122593217D01*
X152745379Y-122782557D01*
X152870272Y-122954459D01*
X152870276Y-122954464D01*
X153020535Y-123104723D01*
X153020540Y-123104727D01*
X153192442Y-123229620D01*
X153381782Y-123326095D01*
X153583871Y-123391757D01*
X153650000Y-123402231D01*
X153650000Y-122358012D01*
X153707007Y-122390925D01*
X153834174Y-122425000D01*
X153965826Y-122425000D01*
X154092993Y-122390925D01*
X154150000Y-122358012D01*
X154150000Y-123402230D01*
X154216126Y-123391757D01*
X154216129Y-123391757D01*
X154418217Y-123326095D01*
X154607557Y-123229620D01*
X154779458Y-123104728D01*
X154918330Y-122965856D01*
X154979653Y-122932371D01*
X155049345Y-122937355D01*
X155105279Y-122979226D01*
X155111551Y-122988440D01*
X155115185Y-122994331D01*
X155115186Y-122994334D01*
X155207288Y-123143656D01*
X155331344Y-123267712D01*
X155480666Y-123359814D01*
X155647203Y-123414999D01*
X155749991Y-123425500D01*
X157050008Y-123425499D01*
X157152797Y-123414999D01*
X157319334Y-123359814D01*
X157468656Y-123267712D01*
X157592712Y-123143656D01*
X157684814Y-122994334D01*
X157739999Y-122827797D01*
X157750500Y-122725009D01*
X157750499Y-121124992D01*
X157739999Y-121022203D01*
X157684814Y-120855666D01*
X157592712Y-120706344D01*
X157468656Y-120582288D01*
X157319334Y-120490186D01*
X157152797Y-120435001D01*
X157152795Y-120435000D01*
X157050010Y-120424500D01*
X155749998Y-120424500D01*
X155749981Y-120424501D01*
X155647203Y-120435000D01*
X155647200Y-120435001D01*
X155480668Y-120490185D01*
X155480663Y-120490187D01*
X155331342Y-120582289D01*
X155207289Y-120706342D01*
X155111551Y-120861559D01*
X155059603Y-120908283D01*
X154990640Y-120919506D01*
X154926558Y-120891662D01*
X154918331Y-120884143D01*
X154779464Y-120745276D01*
X154779459Y-120745272D01*
X154607557Y-120620379D01*
X154418215Y-120523903D01*
X154216124Y-120458241D01*
X154150000Y-120447768D01*
X154150000Y-121491988D01*
X154092993Y-121459075D01*
X153965826Y-121425000D01*
X153834174Y-121425000D01*
X153707007Y-121459075D01*
X153650000Y-121491988D01*
X153650000Y-120447768D01*
X153649999Y-120447768D01*
X153583875Y-120458241D01*
X153381784Y-120523903D01*
X153192442Y-120620379D01*
X153020540Y-120745272D01*
X153020535Y-120745276D01*
X152870276Y-120895535D01*
X152870272Y-120895540D01*
X152745379Y-121067442D01*
X152648904Y-121256782D01*
X152583242Y-121458869D01*
X152583242Y-121458872D01*
X152550000Y-121668753D01*
X98250500Y-121668753D01*
X98250500Y-99511307D01*
X102849500Y-99511307D01*
X102849500Y-103350396D01*
X102884103Y-103524359D01*
X102884104Y-103524363D01*
X102884105Y-103524366D01*
X102894198Y-103548733D01*
X102894199Y-103548735D01*
X102951984Y-103688242D01*
X102951985Y-103688244D01*
X102994223Y-103751458D01*
X102994224Y-103751459D01*
X102994227Y-103751463D01*
X103028329Y-103802500D01*
X103050537Y-103835738D01*
X114689261Y-115474462D01*
X114728231Y-115500501D01*
X114806495Y-115552795D01*
X114836753Y-115573013D01*
X114918693Y-115606953D01*
X115000634Y-115640895D01*
X115174603Y-115675499D01*
X115174607Y-115675500D01*
X115174608Y-115675500D01*
X138023693Y-115675500D01*
X138023694Y-115675499D01*
X138197666Y-115640895D01*
X138279606Y-115606953D01*
X138361547Y-115573013D01*
X138433730Y-115524781D01*
X138470069Y-115500501D01*
X138483058Y-115491821D01*
X138509036Y-115474464D01*
X142524680Y-111458818D01*
X142586003Y-111425334D01*
X142612361Y-111422500D01*
X142837360Y-111422500D01*
X142837361Y-111422500D01*
X143033636Y-111391413D01*
X143222632Y-111330005D01*
X143399694Y-111239787D01*
X143560464Y-111122981D01*
X143700981Y-110982464D01*
X143817787Y-110821694D01*
X143908005Y-110644632D01*
X143969413Y-110455636D01*
X144000500Y-110259361D01*
X144000500Y-110060639D01*
X143969413Y-109864364D01*
X143908005Y-109675368D01*
X143908005Y-109675367D01*
X143817786Y-109498305D01*
X143700981Y-109337536D01*
X143560464Y-109197019D01*
X143399694Y-109080213D01*
X143222632Y-108989994D01*
X143222629Y-108989993D01*
X143033637Y-108928587D01*
X142935498Y-108913043D01*
X142837361Y-108897500D01*
X142262639Y-108897500D01*
X142197214Y-108907862D01*
X142066362Y-108928587D01*
X141877370Y-108989993D01*
X141877367Y-108989994D01*
X141700305Y-109080213D01*
X141539533Y-109197021D01*
X141399021Y-109337533D01*
X141282213Y-109498305D01*
X141191994Y-109675367D01*
X141191993Y-109675370D01*
X141130587Y-109864362D01*
X141099500Y-110060639D01*
X141099500Y-110259366D01*
X141100231Y-110263982D01*
X141091276Y-110333275D01*
X141065439Y-110371060D01*
X137598319Y-113838181D01*
X137536996Y-113871666D01*
X137510638Y-113874500D01*
X122295848Y-113874500D01*
X122228809Y-113854815D01*
X122183054Y-113802011D01*
X122173110Y-113732853D01*
X122202135Y-113669297D01*
X122208167Y-113662819D01*
X125057648Y-110813338D01*
X133948729Y-101922256D01*
X133948733Y-101922254D01*
X134035858Y-101835129D01*
X134104311Y-101732682D01*
X134104312Y-101732681D01*
X134135973Y-101656243D01*
X134151463Y-101618848D01*
X134175500Y-101498002D01*
X134175500Y-86910452D01*
X134195185Y-86843413D01*
X134211819Y-86822771D01*
X135612771Y-85421819D01*
X135674094Y-85388334D01*
X135700452Y-85385500D01*
X141192735Y-85385500D01*
X141259774Y-85405185D01*
X141293052Y-85436613D01*
X141399019Y-85582464D01*
X141539536Y-85722981D01*
X141700306Y-85839787D01*
X141785257Y-85883072D01*
X141856780Y-85919515D01*
X141907576Y-85967490D01*
X141924371Y-86035311D01*
X141901833Y-86101446D01*
X141856780Y-86140485D01*
X141700305Y-86220213D01*
X141539533Y-86337021D01*
X141399021Y-86477533D01*
X141282213Y-86638305D01*
X141191994Y-86815367D01*
X141191993Y-86815370D01*
X141130587Y-87004362D01*
X141121279Y-87063133D01*
X141099500Y-87200639D01*
X141099500Y-87399361D01*
X141105843Y-87439411D01*
X141130587Y-87595637D01*
X141191993Y-87784629D01*
X141191994Y-87784632D01*
X141271926Y-87941505D01*
X141282213Y-87961694D01*
X141399019Y-88122464D01*
X141539536Y-88262981D01*
X141700306Y-88379787D01*
X141818832Y-88440179D01*
X141856780Y-88459515D01*
X141907576Y-88507490D01*
X141924371Y-88575311D01*
X141901833Y-88641446D01*
X141856780Y-88680485D01*
X141700305Y-88760213D01*
X141539533Y-88877021D01*
X141399021Y-89017533D01*
X141282213Y-89178305D01*
X141191994Y-89355367D01*
X141191993Y-89355370D01*
X141130587Y-89544362D01*
X141102202Y-89723581D01*
X141099500Y-89740639D01*
X141099500Y-89939361D01*
X141103866Y-89966928D01*
X141130587Y-90135637D01*
X141191993Y-90324629D01*
X141191994Y-90324632D01*
X141271926Y-90481505D01*
X141282213Y-90501694D01*
X141399019Y-90662464D01*
X141539536Y-90802981D01*
X141700306Y-90919787D01*
X141766899Y-90953718D01*
X141856780Y-90999515D01*
X141907576Y-91047490D01*
X141924371Y-91115311D01*
X141901833Y-91181446D01*
X141856780Y-91220485D01*
X141700305Y-91300213D01*
X141539533Y-91417021D01*
X141399021Y-91557533D01*
X141282213Y-91718305D01*
X141191994Y-91895367D01*
X141191993Y-91895370D01*
X141130587Y-92084362D01*
X141105572Y-92242299D01*
X141099500Y-92280639D01*
X141099500Y-92479361D01*
X141104751Y-92512512D01*
X141130587Y-92675637D01*
X141191993Y-92864629D01*
X141191994Y-92864632D01*
X141271926Y-93021505D01*
X141282213Y-93041694D01*
X141399019Y-93202464D01*
X141539536Y-93342981D01*
X141700306Y-93459787D01*
X141771150Y-93495884D01*
X141856780Y-93539515D01*
X141907576Y-93587490D01*
X141924371Y-93655311D01*
X141901833Y-93721446D01*
X141856780Y-93760485D01*
X141700305Y-93840213D01*
X141539533Y-93957021D01*
X141399021Y-94097533D01*
X141282213Y-94258305D01*
X141191994Y-94435367D01*
X141191993Y-94435370D01*
X141130587Y-94624362D01*
X141110671Y-94750109D01*
X141099500Y-94820639D01*
X141099500Y-95019361D01*
X141103669Y-95045685D01*
X141130587Y-95215637D01*
X141191993Y-95404629D01*
X141191994Y-95404632D01*
X141271926Y-95561505D01*
X141282213Y-95581694D01*
X141399019Y-95742464D01*
X141539536Y-95882981D01*
X141700306Y-95999787D01*
X141816062Y-96058768D01*
X141856780Y-96079515D01*
X141907576Y-96127490D01*
X141924371Y-96195311D01*
X141901833Y-96261446D01*
X141856780Y-96300485D01*
X141700305Y-96380213D01*
X141539533Y-96497021D01*
X141399021Y-96637533D01*
X141282213Y-96798305D01*
X141191994Y-96975367D01*
X141191993Y-96975370D01*
X141130587Y-97164362D01*
X141099500Y-97360639D01*
X141099500Y-97559360D01*
X141130587Y-97755637D01*
X141191993Y-97944629D01*
X141191994Y-97944632D01*
X141282213Y-98121694D01*
X141399019Y-98282464D01*
X141539536Y-98422981D01*
X141700306Y-98539787D01*
X141818832Y-98600179D01*
X141856780Y-98619515D01*
X141907576Y-98667490D01*
X141924371Y-98735311D01*
X141901833Y-98801446D01*
X141856780Y-98840485D01*
X141700305Y-98920213D01*
X141539533Y-99037021D01*
X141399021Y-99177533D01*
X141282213Y-99338305D01*
X141191994Y-99515367D01*
X141191993Y-99515370D01*
X141130587Y-99704362D01*
X141116497Y-99793325D01*
X141099500Y-99900639D01*
X141099500Y-100099361D01*
X141104742Y-100132455D01*
X141130587Y-100295637D01*
X141191993Y-100484629D01*
X141191994Y-100484632D01*
X141282213Y-100661694D01*
X141399019Y-100822464D01*
X141539536Y-100962981D01*
X141700306Y-101079787D01*
X141779393Y-101120084D01*
X141856780Y-101159515D01*
X141907576Y-101207490D01*
X141924371Y-101275311D01*
X141901833Y-101341446D01*
X141856780Y-101380485D01*
X141700305Y-101460213D01*
X141539533Y-101577021D01*
X141399021Y-101717533D01*
X141282213Y-101878305D01*
X141191994Y-102055367D01*
X141191993Y-102055370D01*
X141130587Y-102244362D01*
X141128654Y-102256569D01*
X141099500Y-102440639D01*
X141099500Y-102639361D01*
X141107600Y-102690500D01*
X141130587Y-102835637D01*
X141191993Y-103024629D01*
X141191994Y-103024632D01*
X141263771Y-103165500D01*
X141282213Y-103201694D01*
X141399019Y-103362464D01*
X141539536Y-103502981D01*
X141700306Y-103619787D01*
X141818832Y-103680179D01*
X141856780Y-103699515D01*
X141907576Y-103747490D01*
X141924371Y-103815311D01*
X141901833Y-103881446D01*
X141856780Y-103920485D01*
X141700305Y-104000213D01*
X141539533Y-104117021D01*
X141399021Y-104257533D01*
X141282213Y-104418305D01*
X141191994Y-104595367D01*
X141191993Y-104595370D01*
X141130587Y-104784362D01*
X141099500Y-104980639D01*
X141099500Y-105179360D01*
X141130587Y-105375637D01*
X141191993Y-105564629D01*
X141191994Y-105564632D01*
X141282213Y-105741694D01*
X141399019Y-105902464D01*
X141539536Y-106042981D01*
X141700306Y-106159787D01*
X141787149Y-106204035D01*
X141877367Y-106250005D01*
X141877370Y-106250006D01*
X141971866Y-106280709D01*
X142066364Y-106311413D01*
X142262639Y-106342500D01*
X142262640Y-106342500D01*
X142837360Y-106342500D01*
X142837361Y-106342500D01*
X143033636Y-106311413D01*
X143222632Y-106250005D01*
X143399694Y-106159787D01*
X143560464Y-106042981D01*
X143700981Y-105902464D01*
X143817787Y-105741694D01*
X143908005Y-105564632D01*
X143969413Y-105375636D01*
X144000500Y-105179361D01*
X144000500Y-104980639D01*
X143969413Y-104784364D01*
X143908005Y-104595368D01*
X143908005Y-104595367D01*
X143817786Y-104418305D01*
X143700981Y-104257536D01*
X143560464Y-104117019D01*
X143399694Y-104000213D01*
X143243218Y-103920484D01*
X143192423Y-103872510D01*
X143175628Y-103804689D01*
X143198165Y-103738554D01*
X143243218Y-103699515D01*
X143399694Y-103619787D01*
X143560464Y-103502981D01*
X143700981Y-103362464D01*
X143806947Y-103216613D01*
X143862277Y-103173949D01*
X143907265Y-103165500D01*
X144579548Y-103165500D01*
X144646587Y-103185185D01*
X144667229Y-103201819D01*
X149688181Y-108222771D01*
X149721666Y-108284094D01*
X149724500Y-108310452D01*
X149724500Y-114461608D01*
X149733876Y-114508748D01*
X149733879Y-114508759D01*
X149734590Y-114512334D01*
X149748537Y-114582452D01*
X149757592Y-114604312D01*
X149760861Y-114612204D01*
X149760862Y-114612208D01*
X149795685Y-114696280D01*
X149795686Y-114696282D01*
X149795688Y-114696286D01*
X149809166Y-114716457D01*
X149822552Y-114736491D01*
X149822553Y-114736492D01*
X149822554Y-114736493D01*
X149864142Y-114798733D01*
X149864145Y-114798736D01*
X149864148Y-114798740D01*
X149955586Y-114890178D01*
X149955608Y-114890198D01*
X150422502Y-115357092D01*
X150455987Y-115418415D01*
X150457295Y-115464169D01*
X150449500Y-115513388D01*
X150449500Y-115686610D01*
X150475421Y-115850273D01*
X150476598Y-115857701D01*
X150530127Y-116022445D01*
X150608768Y-116176788D01*
X150710586Y-116316928D01*
X150833072Y-116439414D01*
X150973212Y-116541232D01*
X151127555Y-116619873D01*
X151292299Y-116673402D01*
X151463389Y-116700500D01*
X151463390Y-116700500D01*
X151636610Y-116700500D01*
X151636611Y-116700500D01*
X151807701Y-116673402D01*
X151972445Y-116619873D01*
X152126788Y-116541232D01*
X152266928Y-116439414D01*
X152389414Y-116316928D01*
X152491232Y-116176788D01*
X152569873Y-116022445D01*
X152623402Y-115857701D01*
X152650500Y-115686611D01*
X152650500Y-115513389D01*
X152623402Y-115342299D01*
X152569873Y-115177555D01*
X152491232Y-115023212D01*
X152389414Y-114883072D01*
X152266928Y-114760586D01*
X152126788Y-114658768D01*
X151972445Y-114580127D01*
X151807701Y-114526598D01*
X151807699Y-114526597D01*
X151807698Y-114526597D01*
X151676271Y-114505781D01*
X151636611Y-114499500D01*
X151463389Y-114499500D01*
X151414169Y-114507295D01*
X151344876Y-114498339D01*
X151307092Y-114472502D01*
X151033813Y-114199223D01*
X168699500Y-114199223D01*
X168699500Y-114500776D01*
X168699501Y-114500793D01*
X168738861Y-114799766D01*
X168816913Y-115091060D01*
X168932314Y-115369661D01*
X168932318Y-115369671D01*
X169083099Y-115630831D01*
X169266679Y-115870078D01*
X169266685Y-115870085D01*
X169479914Y-116083314D01*
X169479921Y-116083320D01*
X169719168Y-116266900D01*
X169980328Y-116417681D01*
X169980329Y-116417681D01*
X169980332Y-116417683D01*
X170166072Y-116494619D01*
X170258939Y-116533086D01*
X170258940Y-116533086D01*
X170258942Y-116533087D01*
X170550232Y-116611138D01*
X170849217Y-116650500D01*
X170849224Y-116650500D01*
X171150776Y-116650500D01*
X171150783Y-116650500D01*
X171449768Y-116611138D01*
X171741058Y-116533087D01*
X172019668Y-116417683D01*
X172280832Y-116266900D01*
X172520080Y-116083319D01*
X172733319Y-115870080D01*
X172916900Y-115630832D01*
X173067683Y-115369668D01*
X173183087Y-115091058D01*
X173261138Y-114799768D01*
X173300500Y-114500783D01*
X173300500Y-114231995D01*
X174199500Y-114231995D01*
X174199500Y-114468004D01*
X174199501Y-114468020D01*
X174230306Y-114702010D01*
X174291394Y-114929993D01*
X174381714Y-115148045D01*
X174381719Y-115148056D01*
X174398751Y-115177555D01*
X174499727Y-115352450D01*
X174499729Y-115352453D01*
X174499730Y-115352454D01*
X174643406Y-115539697D01*
X174643412Y-115539704D01*
X174810295Y-115706587D01*
X174810302Y-115706593D01*
X174826909Y-115719336D01*
X174997550Y-115850273D01*
X175128918Y-115926118D01*
X175201943Y-115968280D01*
X175201948Y-115968282D01*
X175201951Y-115968284D01*
X175420007Y-116058606D01*
X175647986Y-116119693D01*
X175881989Y-116150500D01*
X175881996Y-116150500D01*
X176118004Y-116150500D01*
X176118011Y-116150500D01*
X176352014Y-116119693D01*
X176579993Y-116058606D01*
X176798049Y-115968284D01*
X177002450Y-115850273D01*
X177189699Y-115706592D01*
X177356592Y-115539699D01*
X177500273Y-115352450D01*
X177618284Y-115148049D01*
X177708606Y-114929993D01*
X177769693Y-114702014D01*
X177800500Y-114468011D01*
X177800500Y-114231989D01*
X177769693Y-113997986D01*
X177708606Y-113770007D01*
X177618284Y-113551951D01*
X177618282Y-113551948D01*
X177618280Y-113551943D01*
X177562510Y-113455348D01*
X177500273Y-113347550D01*
X177425414Y-113249992D01*
X177425407Y-113249983D01*
X179199500Y-113249983D01*
X179199500Y-115450001D01*
X179199501Y-115450018D01*
X179210000Y-115552796D01*
X179210001Y-115552799D01*
X179239194Y-115640895D01*
X179265186Y-115719334D01*
X179357288Y-115868656D01*
X179481344Y-115992712D01*
X179630666Y-116084814D01*
X179797203Y-116139999D01*
X179899991Y-116150500D01*
X182100008Y-116150499D01*
X182202797Y-116139999D01*
X182369334Y-116084814D01*
X182518656Y-115992712D01*
X182642712Y-115868656D01*
X182734814Y-115719334D01*
X182789999Y-115552797D01*
X182800500Y-115450009D01*
X182800499Y-113249992D01*
X182789999Y-113147203D01*
X182734814Y-112980666D01*
X182642712Y-112831344D01*
X182518656Y-112707288D01*
X182411824Y-112641394D01*
X182369336Y-112615187D01*
X182369331Y-112615185D01*
X182367862Y-112614698D01*
X182202797Y-112560001D01*
X182202795Y-112560000D01*
X182100010Y-112549500D01*
X179899998Y-112549500D01*
X179899981Y-112549501D01*
X179797203Y-112560000D01*
X179797200Y-112560001D01*
X179630668Y-112615185D01*
X179630663Y-112615187D01*
X179481342Y-112707289D01*
X179357289Y-112831342D01*
X179265187Y-112980663D01*
X179265185Y-112980668D01*
X179260962Y-112993412D01*
X179210001Y-113147203D01*
X179210001Y-113147204D01*
X179210000Y-113147204D01*
X179199500Y-113249983D01*
X177425407Y-113249983D01*
X177356593Y-113160302D01*
X177356587Y-113160295D01*
X177189704Y-112993412D01*
X177189697Y-112993406D01*
X177002454Y-112849730D01*
X177002453Y-112849729D01*
X177002450Y-112849727D01*
X176920957Y-112802677D01*
X176798056Y-112731719D01*
X176798045Y-112731714D01*
X176579993Y-112641394D01*
X176352010Y-112580306D01*
X176118020Y-112549501D01*
X176118017Y-112549500D01*
X176118011Y-112549500D01*
X175881989Y-112549500D01*
X175881983Y-112549500D01*
X175881979Y-112549501D01*
X175647989Y-112580306D01*
X175420006Y-112641394D01*
X175201954Y-112731714D01*
X175201943Y-112731719D01*
X174997545Y-112849730D01*
X174810302Y-112993406D01*
X174810295Y-112993412D01*
X174643412Y-113160295D01*
X174643406Y-113160302D01*
X174499730Y-113347545D01*
X174381719Y-113551943D01*
X174381714Y-113551954D01*
X174291394Y-113770006D01*
X174230306Y-113997989D01*
X174199501Y-114231979D01*
X174199500Y-114231995D01*
X173300500Y-114231995D01*
X173300500Y-114199217D01*
X173261138Y-113900232D01*
X173183087Y-113608942D01*
X173067683Y-113330332D01*
X173021292Y-113249981D01*
X172916900Y-113069168D01*
X172733320Y-112829921D01*
X172733314Y-112829914D01*
X172520085Y-112616685D01*
X172520078Y-112616679D01*
X172280831Y-112433099D01*
X172019671Y-112282318D01*
X172019661Y-112282314D01*
X171741060Y-112166913D01*
X171449766Y-112088861D01*
X171150793Y-112049501D01*
X171150788Y-112049500D01*
X171150783Y-112049500D01*
X170849217Y-112049500D01*
X170849211Y-112049500D01*
X170849206Y-112049501D01*
X170550233Y-112088861D01*
X170258939Y-112166913D01*
X169980338Y-112282314D01*
X169980328Y-112282318D01*
X169719168Y-112433099D01*
X169479921Y-112616679D01*
X169479914Y-112616685D01*
X169266685Y-112829914D01*
X169266679Y-112829921D01*
X169083099Y-113069168D01*
X168932318Y-113330328D01*
X168932314Y-113330338D01*
X168816913Y-113608939D01*
X168738861Y-113900233D01*
X168699501Y-114199206D01*
X168699500Y-114199223D01*
X151033813Y-114199223D01*
X151011819Y-114177229D01*
X150978334Y-114115906D01*
X150975500Y-114089548D01*
X150975500Y-107938396D01*
X150975500Y-107938394D01*
X150951463Y-107817548D01*
X150937652Y-107784207D01*
X150904312Y-107703714D01*
X150870084Y-107652490D01*
X150835858Y-107601267D01*
X150835856Y-107601264D01*
X150745637Y-107511045D01*
X150745606Y-107511016D01*
X145383150Y-102148560D01*
X145375860Y-102141270D01*
X145375858Y-102141267D01*
X145288733Y-102054142D01*
X145237509Y-102019915D01*
X145186286Y-101985688D01*
X145186283Y-101985686D01*
X145186280Y-101985685D01*
X145112603Y-101955168D01*
X145112601Y-101955167D01*
X145105792Y-101952347D01*
X145072452Y-101938537D01*
X145012029Y-101926518D01*
X145007306Y-101925578D01*
X145007304Y-101925578D01*
X144951610Y-101914500D01*
X144951607Y-101914500D01*
X144951606Y-101914500D01*
X143907265Y-101914500D01*
X143840226Y-101894815D01*
X143806947Y-101863386D01*
X143754026Y-101790547D01*
X143700981Y-101717536D01*
X143560464Y-101577019D01*
X143399694Y-101460213D01*
X143243218Y-101380484D01*
X143192423Y-101332510D01*
X143175628Y-101264689D01*
X143198165Y-101198554D01*
X143243218Y-101159515D01*
X143399694Y-101079787D01*
X143560464Y-100962981D01*
X143700981Y-100822464D01*
X143817787Y-100661694D01*
X143908005Y-100484632D01*
X143969413Y-100295636D01*
X144000500Y-100099361D01*
X144000500Y-99900639D01*
X143969413Y-99704364D01*
X143919420Y-99550500D01*
X143908006Y-99515370D01*
X143908005Y-99515367D01*
X143817786Y-99338305D01*
X143802805Y-99317685D01*
X143700981Y-99177536D01*
X143560464Y-99037019D01*
X143399694Y-98920213D01*
X143243218Y-98840484D01*
X143192423Y-98792510D01*
X143175628Y-98724689D01*
X143198165Y-98658554D01*
X143243218Y-98619515D01*
X143399694Y-98539787D01*
X143560464Y-98422981D01*
X143700981Y-98282464D01*
X143817787Y-98121694D01*
X143908005Y-97944632D01*
X143969413Y-97755636D01*
X144000500Y-97559361D01*
X144000500Y-97360639D01*
X143969413Y-97164364D01*
X143969412Y-97164360D01*
X143963718Y-97146834D01*
X143952851Y-97113389D01*
X151649500Y-97113389D01*
X151649500Y-97286610D01*
X151676597Y-97457697D01*
X151676597Y-97457699D01*
X151676598Y-97457701D01*
X151730127Y-97622445D01*
X151808768Y-97776788D01*
X151910586Y-97916928D01*
X152033072Y-98039414D01*
X152173212Y-98141232D01*
X152327555Y-98219873D01*
X152492299Y-98273402D01*
X152663389Y-98300500D01*
X152663390Y-98300500D01*
X152836610Y-98300500D01*
X152836611Y-98300500D01*
X153007701Y-98273402D01*
X153172445Y-98219873D01*
X153326788Y-98141232D01*
X153466928Y-98039414D01*
X153589414Y-97916928D01*
X153618705Y-97876613D01*
X153674035Y-97833948D01*
X153719022Y-97825500D01*
X160173631Y-97825500D01*
X160240670Y-97845185D01*
X160246507Y-97849175D01*
X160373212Y-97941232D01*
X160527555Y-98019873D01*
X160692299Y-98073402D01*
X160863389Y-98100500D01*
X160863390Y-98100500D01*
X161036610Y-98100500D01*
X161036611Y-98100500D01*
X161207701Y-98073402D01*
X161372445Y-98019873D01*
X161526788Y-97941232D01*
X161666928Y-97839414D01*
X161789414Y-97716928D01*
X161891232Y-97576788D01*
X161969873Y-97422445D01*
X162023402Y-97257701D01*
X162050500Y-97086611D01*
X162050500Y-96913389D01*
X162023402Y-96742299D01*
X161969873Y-96577555D01*
X161891232Y-96423212D01*
X161789414Y-96283072D01*
X161666928Y-96160586D01*
X161526788Y-96058768D01*
X161372445Y-95980127D01*
X161207701Y-95926598D01*
X161207699Y-95926597D01*
X161207698Y-95926597D01*
X161076271Y-95905781D01*
X161036611Y-95899500D01*
X160863389Y-95899500D01*
X160823728Y-95905781D01*
X160692302Y-95926597D01*
X160527552Y-95980128D01*
X160373211Y-96058768D01*
X160298618Y-96112964D01*
X160233072Y-96160586D01*
X160233070Y-96160588D01*
X160233069Y-96160588D01*
X160110588Y-96283069D01*
X160110588Y-96283070D01*
X160110586Y-96283072D01*
X160097935Y-96300485D01*
X160008770Y-96423207D01*
X160008768Y-96423212D01*
X159966180Y-96506795D01*
X159918208Y-96557590D01*
X159855697Y-96574500D01*
X153719022Y-96574500D01*
X153651983Y-96554815D01*
X153618705Y-96523387D01*
X153589414Y-96483072D01*
X153466930Y-96360588D01*
X153466928Y-96360586D01*
X153326788Y-96258768D01*
X153314506Y-96252510D01*
X153172447Y-96180128D01*
X153172446Y-96180127D01*
X153172445Y-96180127D01*
X153007701Y-96126598D01*
X153007699Y-96126597D01*
X153007698Y-96126597D01*
X152876271Y-96105781D01*
X152836611Y-96099500D01*
X152663389Y-96099500D01*
X152623728Y-96105781D01*
X152492302Y-96126597D01*
X152327552Y-96180128D01*
X152173211Y-96258768D01*
X152093256Y-96316859D01*
X152033072Y-96360586D01*
X152033070Y-96360588D01*
X152033069Y-96360588D01*
X151910588Y-96483069D01*
X151910588Y-96483070D01*
X151910586Y-96483072D01*
X151866859Y-96543256D01*
X151808768Y-96623211D01*
X151730128Y-96777552D01*
X151676597Y-96942302D01*
X151649500Y-97113389D01*
X143952851Y-97113389D01*
X143908006Y-96975370D01*
X143908005Y-96975367D01*
X143823466Y-96809452D01*
X143817787Y-96798306D01*
X143700981Y-96637536D01*
X143560464Y-96497019D01*
X143399694Y-96380213D01*
X143243218Y-96300484D01*
X143192423Y-96252510D01*
X143175628Y-96184689D01*
X143198165Y-96118554D01*
X143243218Y-96079515D01*
X143399694Y-95999787D01*
X143560464Y-95882981D01*
X143700981Y-95742464D01*
X143817787Y-95581694D01*
X143908005Y-95404632D01*
X143969413Y-95215636D01*
X144000500Y-95019361D01*
X144000500Y-94820639D01*
X143969413Y-94624364D01*
X143908005Y-94435368D01*
X143908005Y-94435367D01*
X143817786Y-94258305D01*
X143804008Y-94239341D01*
X143700981Y-94097536D01*
X143560464Y-93957019D01*
X143399694Y-93840213D01*
X143243218Y-93760484D01*
X143192423Y-93712510D01*
X143175628Y-93644689D01*
X143198165Y-93578554D01*
X143243218Y-93539515D01*
X143399694Y-93459787D01*
X143560464Y-93342981D01*
X143700981Y-93202464D01*
X143817787Y-93041694D01*
X143908005Y-92864632D01*
X143969413Y-92675636D01*
X144000500Y-92479361D01*
X144000500Y-92280639D01*
X143969413Y-92084364D01*
X143929196Y-91960588D01*
X143908006Y-91895370D01*
X143908005Y-91895367D01*
X143850786Y-91783070D01*
X143817787Y-91718306D01*
X143700981Y-91557536D01*
X143560464Y-91417019D01*
X143399694Y-91300213D01*
X143243218Y-91220484D01*
X143192423Y-91172510D01*
X143175628Y-91104689D01*
X143198165Y-91038554D01*
X143243218Y-90999515D01*
X143399694Y-90919787D01*
X143560464Y-90802981D01*
X143700981Y-90662464D01*
X143817787Y-90501694D01*
X143908005Y-90324632D01*
X143969413Y-90135636D01*
X144000500Y-89939361D01*
X144000500Y-89740639D01*
X143969413Y-89544364D01*
X143908005Y-89355368D01*
X143908005Y-89355367D01*
X143817786Y-89178305D01*
X143806949Y-89163389D01*
X143700981Y-89017536D01*
X143560464Y-88877019D01*
X143399694Y-88760213D01*
X143243218Y-88680484D01*
X143192423Y-88632510D01*
X143175628Y-88564689D01*
X143198165Y-88498554D01*
X143243218Y-88459515D01*
X143399694Y-88379787D01*
X143560464Y-88262981D01*
X143700981Y-88122464D01*
X143817787Y-87961694D01*
X143908005Y-87784632D01*
X143969413Y-87595636D01*
X144000500Y-87399361D01*
X144000500Y-87200639D01*
X143969413Y-87004364D01*
X143921760Y-86857701D01*
X143908006Y-86815370D01*
X143908005Y-86815367D01*
X143842399Y-86686610D01*
X143817787Y-86638306D01*
X143700981Y-86477536D01*
X143560464Y-86337019D01*
X143399694Y-86220213D01*
X143243218Y-86140484D01*
X143192423Y-86092510D01*
X143175628Y-86024689D01*
X143198165Y-85958554D01*
X143243218Y-85919515D01*
X143399694Y-85839787D01*
X143560464Y-85722981D01*
X143700981Y-85582464D01*
X143817787Y-85421694D01*
X143908005Y-85244632D01*
X143969413Y-85055636D01*
X144000500Y-84859361D01*
X144000500Y-84660639D01*
X143969413Y-84464364D01*
X143908005Y-84275368D01*
X143908005Y-84275367D01*
X143842352Y-84146518D01*
X143817787Y-84098306D01*
X143700981Y-83937536D01*
X143560464Y-83797019D01*
X143399694Y-83680213D01*
X143243218Y-83600484D01*
X143192423Y-83552510D01*
X143175628Y-83484689D01*
X143198165Y-83418554D01*
X143243218Y-83379515D01*
X143399694Y-83299787D01*
X143560464Y-83182981D01*
X143700981Y-83042464D01*
X143817787Y-82881694D01*
X143908005Y-82704632D01*
X143969413Y-82515636D01*
X144000500Y-82319361D01*
X144000500Y-82120639D01*
X143969413Y-81924364D01*
X143934703Y-81817538D01*
X143908006Y-81735370D01*
X143908005Y-81735367D01*
X143839677Y-81601267D01*
X143817787Y-81558306D01*
X143700981Y-81397536D01*
X143560464Y-81257019D01*
X143399694Y-81140213D01*
X143243218Y-81060484D01*
X143192423Y-81012510D01*
X143175628Y-80944689D01*
X143198165Y-80878554D01*
X143243218Y-80839515D01*
X143399694Y-80759787D01*
X143560464Y-80642981D01*
X143700981Y-80502464D01*
X143817787Y-80341694D01*
X143908005Y-80164632D01*
X143969413Y-79975636D01*
X144000500Y-79779361D01*
X144000500Y-79580639D01*
X143969413Y-79384364D01*
X143937407Y-79285858D01*
X143908006Y-79195370D01*
X143908005Y-79195367D01*
X143862035Y-79105149D01*
X143817787Y-79018306D01*
X143700981Y-78857536D01*
X143560464Y-78717019D01*
X143399694Y-78600213D01*
X143243218Y-78520484D01*
X143192423Y-78472510D01*
X143175628Y-78404689D01*
X143198165Y-78338554D01*
X143243218Y-78299515D01*
X143399694Y-78219787D01*
X143560464Y-78102981D01*
X143700981Y-77962464D01*
X143817787Y-77801694D01*
X143908005Y-77624632D01*
X143969413Y-77435636D01*
X144000500Y-77239361D01*
X144000500Y-77040639D01*
X143969413Y-76844364D01*
X143935915Y-76741267D01*
X143908006Y-76655370D01*
X143908005Y-76655367D01*
X143842352Y-76526518D01*
X143817787Y-76478306D01*
X143700981Y-76317536D01*
X143560464Y-76177019D01*
X143399694Y-76060213D01*
X143243218Y-75980484D01*
X143192423Y-75932510D01*
X143175628Y-75864689D01*
X143198165Y-75798554D01*
X143243218Y-75759515D01*
X143399694Y-75679787D01*
X143560464Y-75562981D01*
X143700981Y-75422464D01*
X143817787Y-75261694D01*
X143908005Y-75084632D01*
X143969413Y-74895636D01*
X144000500Y-74699361D01*
X144000500Y-74500639D01*
X143969413Y-74304364D01*
X143908005Y-74115368D01*
X143908005Y-74115367D01*
X143817786Y-73938305D01*
X143700981Y-73777536D01*
X143560464Y-73637019D01*
X143530670Y-73615372D01*
X143467735Y-73569647D01*
X143425070Y-73514316D01*
X143419091Y-73444703D01*
X143451697Y-73382908D01*
X143452866Y-73381722D01*
X150707093Y-66127495D01*
X150768414Y-66094012D01*
X150814171Y-66092705D01*
X150863385Y-66100500D01*
X150863389Y-66100500D01*
X151036610Y-66100500D01*
X151036611Y-66100500D01*
X151207701Y-66073402D01*
X151372445Y-66019873D01*
X151526788Y-65941232D01*
X151666928Y-65839414D01*
X151789414Y-65716928D01*
X151891232Y-65576788D01*
X151969873Y-65422445D01*
X152023402Y-65257701D01*
X152050500Y-65086611D01*
X152050500Y-64913389D01*
X152023402Y-64742299D01*
X151969873Y-64577555D01*
X151891232Y-64423212D01*
X151789414Y-64283072D01*
X151666928Y-64160586D01*
X151526788Y-64058768D01*
X151372445Y-63980127D01*
X151207701Y-63926598D01*
X151207699Y-63926597D01*
X151207698Y-63926597D01*
X151076271Y-63905781D01*
X151036611Y-63899500D01*
X150863389Y-63899500D01*
X150823728Y-63905781D01*
X150692302Y-63926597D01*
X150527552Y-63980128D01*
X150373211Y-64058768D01*
X150293467Y-64116706D01*
X150233072Y-64160586D01*
X150233070Y-64160588D01*
X150233069Y-64160588D01*
X150110588Y-64283069D01*
X150110588Y-64283070D01*
X150110586Y-64283072D01*
X150066859Y-64343256D01*
X150008768Y-64423211D01*
X149930128Y-64577552D01*
X149876597Y-64742302D01*
X149849500Y-64913389D01*
X149849500Y-65086616D01*
X149857294Y-65135828D01*
X149848339Y-65205121D01*
X149822502Y-65242906D01*
X142151270Y-72914139D01*
X142064144Y-73001264D01*
X142064138Y-73001272D01*
X141995692Y-73103705D01*
X141995684Y-73103719D01*
X141966001Y-73175383D01*
X141965999Y-73175388D01*
X141962347Y-73184207D01*
X141948537Y-73217548D01*
X141924500Y-73338394D01*
X141924500Y-73345736D01*
X141921215Y-73359221D01*
X141907919Y-73382198D01*
X141897978Y-73406816D01*
X141889797Y-73413517D01*
X141886222Y-73419696D01*
X141875559Y-73425179D01*
X141857035Y-73440354D01*
X141700307Y-73520211D01*
X141539533Y-73637021D01*
X141399021Y-73777533D01*
X141282213Y-73938305D01*
X141191994Y-74115367D01*
X141191993Y-74115370D01*
X141130587Y-74304362D01*
X141099500Y-74500639D01*
X141099500Y-74699360D01*
X141130587Y-74895637D01*
X141191993Y-75084629D01*
X141191994Y-75084632D01*
X141282213Y-75261694D01*
X141399019Y-75422464D01*
X141539536Y-75562981D01*
X141700306Y-75679787D01*
X141818832Y-75740179D01*
X141856780Y-75759515D01*
X141907576Y-75807490D01*
X141924371Y-75875311D01*
X141901833Y-75941446D01*
X141856780Y-75980485D01*
X141700305Y-76060213D01*
X141539533Y-76177021D01*
X141399021Y-76317533D01*
X141293053Y-76463386D01*
X141237723Y-76506051D01*
X141192735Y-76514500D01*
X137748389Y-76514500D01*
X137697535Y-76524615D01*
X137697530Y-76524616D01*
X137687971Y-76526518D01*
X137627548Y-76538537D01*
X137580397Y-76558067D01*
X137513715Y-76585688D01*
X137513714Y-76585689D01*
X137491347Y-76600633D01*
X137491344Y-76600635D01*
X137411268Y-76654140D01*
X137382340Y-76683069D01*
X137324142Y-76741267D01*
X132553850Y-81511558D01*
X132553842Y-81511566D01*
X132551270Y-81514139D01*
X132551267Y-81514142D01*
X132464142Y-81601267D01*
X132438653Y-81639414D01*
X132433911Y-81646510D01*
X132433908Y-81646514D01*
X132395690Y-81703710D01*
X132395685Y-81703719D01*
X132348540Y-81817538D01*
X132348537Y-81817547D01*
X132337987Y-81870588D01*
X132327291Y-81924364D01*
X132327290Y-81924367D01*
X132324500Y-81938390D01*
X132324500Y-101089547D01*
X132304815Y-101156586D01*
X132288181Y-101177228D01*
X120527229Y-112938181D01*
X120465906Y-112971666D01*
X120439548Y-112974500D01*
X116060453Y-112974500D01*
X115993414Y-112954815D01*
X115972772Y-112938181D01*
X114611819Y-111577228D01*
X114578334Y-111515905D01*
X114575500Y-111489547D01*
X114575500Y-110060639D01*
X115699500Y-110060639D01*
X115699500Y-110259360D01*
X115730587Y-110455637D01*
X115791993Y-110644629D01*
X115791994Y-110644632D01*
X115877955Y-110813338D01*
X115882213Y-110821694D01*
X115999019Y-110982464D01*
X116139536Y-111122981D01*
X116300306Y-111239787D01*
X116387149Y-111284035D01*
X116477367Y-111330005D01*
X116477370Y-111330006D01*
X116571866Y-111360709D01*
X116666364Y-111391413D01*
X116862639Y-111422500D01*
X116862640Y-111422500D01*
X117437360Y-111422500D01*
X117437361Y-111422500D01*
X117633636Y-111391413D01*
X117822632Y-111330005D01*
X117999694Y-111239787D01*
X118160464Y-111122981D01*
X118300981Y-110982464D01*
X118417787Y-110821694D01*
X118508005Y-110644632D01*
X118569413Y-110455636D01*
X118600500Y-110259361D01*
X118600500Y-110060639D01*
X118569413Y-109864364D01*
X118508005Y-109675368D01*
X118508005Y-109675367D01*
X118417786Y-109498305D01*
X118300981Y-109337536D01*
X118160464Y-109197019D01*
X117999694Y-109080213D01*
X117822632Y-108989994D01*
X117822629Y-108989993D01*
X117633637Y-108928587D01*
X117535498Y-108913043D01*
X117437361Y-108897500D01*
X116862639Y-108897500D01*
X116797214Y-108907862D01*
X116666362Y-108928587D01*
X116477370Y-108989993D01*
X116477367Y-108989994D01*
X116300305Y-109080213D01*
X116139533Y-109197021D01*
X115999021Y-109337533D01*
X115882213Y-109498305D01*
X115791994Y-109675367D01*
X115791993Y-109675370D01*
X115730587Y-109864362D01*
X115699500Y-110060639D01*
X114575500Y-110060639D01*
X114575500Y-100938392D01*
X114572149Y-100921550D01*
X114567124Y-100896286D01*
X114563481Y-100877971D01*
X114551463Y-100817548D01*
X114531932Y-100770397D01*
X114504312Y-100703715D01*
X114504310Y-100703712D01*
X114504309Y-100703709D01*
X114456517Y-100632185D01*
X114456515Y-100632183D01*
X114454792Y-100629605D01*
X114435858Y-100601267D01*
X114435856Y-100601264D01*
X114345637Y-100511045D01*
X114345606Y-100511016D01*
X112243150Y-98408560D01*
X112235860Y-98401270D01*
X112235858Y-98401267D01*
X112148733Y-98314142D01*
X112097509Y-98279915D01*
X112046286Y-98245688D01*
X112046283Y-98245686D01*
X112046280Y-98245685D01*
X111972603Y-98215168D01*
X111972601Y-98215167D01*
X111965792Y-98212347D01*
X111932452Y-98198537D01*
X111872029Y-98186518D01*
X111867306Y-98185578D01*
X111867304Y-98185578D01*
X111811610Y-98174500D01*
X111811607Y-98174500D01*
X111811606Y-98174500D01*
X110822981Y-98174500D01*
X110755942Y-98154815D01*
X110712497Y-98106797D01*
X110705049Y-98092180D01*
X110580109Y-97920213D01*
X110429786Y-97769890D01*
X110257817Y-97644949D01*
X110248504Y-97640204D01*
X110197707Y-97592230D01*
X110180912Y-97524409D01*
X110203449Y-97458274D01*
X110248507Y-97419232D01*
X110257555Y-97414622D01*
X110311716Y-97375270D01*
X110311717Y-97375270D01*
X109679408Y-96742962D01*
X109742993Y-96725925D01*
X109857007Y-96660099D01*
X109950099Y-96567007D01*
X110015925Y-96452993D01*
X110032962Y-96389409D01*
X110665270Y-97021717D01*
X110665270Y-97021716D01*
X110704622Y-96967554D01*
X110801095Y-96778217D01*
X110866757Y-96576130D01*
X110866757Y-96576127D01*
X110900000Y-96366246D01*
X110900000Y-96153753D01*
X110866757Y-95943872D01*
X110866757Y-95943869D01*
X110801095Y-95741782D01*
X110704624Y-95552449D01*
X110665270Y-95498282D01*
X110665269Y-95498282D01*
X110032962Y-96130590D01*
X110015925Y-96067007D01*
X109950099Y-95952993D01*
X109857007Y-95859901D01*
X109742993Y-95794075D01*
X109679409Y-95777037D01*
X110311716Y-95144728D01*
X110257550Y-95105375D01*
X110247954Y-95100486D01*
X110197157Y-95052512D01*
X110180361Y-94984692D01*
X110202897Y-94918556D01*
X110247954Y-94879514D01*
X110257554Y-94874622D01*
X110311716Y-94835270D01*
X110311717Y-94835270D01*
X109679408Y-94202962D01*
X109742993Y-94185925D01*
X109857007Y-94120099D01*
X109950099Y-94027007D01*
X110015925Y-93912993D01*
X110032962Y-93849409D01*
X110665270Y-94481717D01*
X110665270Y-94481716D01*
X110704622Y-94427554D01*
X110801095Y-94238217D01*
X110866757Y-94036130D01*
X110866757Y-94036127D01*
X110900000Y-93826246D01*
X110900000Y-93613753D01*
X110866757Y-93403872D01*
X110866757Y-93403869D01*
X110801095Y-93201782D01*
X110704624Y-93012449D01*
X110665270Y-92958282D01*
X110665269Y-92958282D01*
X110032962Y-93590590D01*
X110015925Y-93527007D01*
X109950099Y-93412993D01*
X109857007Y-93319901D01*
X109742993Y-93254075D01*
X109679409Y-93237037D01*
X110311716Y-92604728D01*
X110257550Y-92565375D01*
X110247954Y-92560486D01*
X110197157Y-92512512D01*
X110180361Y-92444692D01*
X110202897Y-92378556D01*
X110247954Y-92339514D01*
X110257554Y-92334622D01*
X110311716Y-92295270D01*
X110311717Y-92295270D01*
X109679408Y-91662962D01*
X109742993Y-91645925D01*
X109857007Y-91580099D01*
X109950099Y-91487007D01*
X110015925Y-91372993D01*
X110032962Y-91309409D01*
X110665270Y-91941717D01*
X110665270Y-91941716D01*
X110704622Y-91887554D01*
X110801095Y-91698217D01*
X110866757Y-91496130D01*
X110866757Y-91496127D01*
X110900000Y-91286246D01*
X110900000Y-91073753D01*
X110866757Y-90863872D01*
X110866757Y-90863869D01*
X110801095Y-90661782D01*
X110704624Y-90472449D01*
X110665270Y-90418282D01*
X110665269Y-90418282D01*
X110032962Y-91050590D01*
X110015925Y-90987007D01*
X109950099Y-90872993D01*
X109857007Y-90779901D01*
X109742993Y-90714075D01*
X109679409Y-90697037D01*
X110311716Y-90064728D01*
X110257550Y-90025375D01*
X110247954Y-90020486D01*
X110197157Y-89972512D01*
X110180361Y-89904692D01*
X110202897Y-89838556D01*
X110247954Y-89799514D01*
X110257554Y-89794622D01*
X110311716Y-89755270D01*
X110311717Y-89755270D01*
X109679408Y-89122962D01*
X109742993Y-89105925D01*
X109857007Y-89040099D01*
X109950099Y-88947007D01*
X110015925Y-88832993D01*
X110032962Y-88769409D01*
X110665270Y-89401717D01*
X110665270Y-89401716D01*
X110704622Y-89347554D01*
X110801095Y-89158217D01*
X110866757Y-88956130D01*
X110866757Y-88956127D01*
X110900000Y-88746246D01*
X110900000Y-88533753D01*
X110866757Y-88323872D01*
X110866757Y-88323869D01*
X110801095Y-88121782D01*
X110704624Y-87932449D01*
X110665270Y-87878282D01*
X110665269Y-87878282D01*
X110032962Y-88510590D01*
X110015925Y-88447007D01*
X109950099Y-88332993D01*
X109857007Y-88239901D01*
X109742993Y-88174075D01*
X109679409Y-88157037D01*
X110311716Y-87524728D01*
X110257550Y-87485375D01*
X110068217Y-87388904D01*
X109866129Y-87323242D01*
X109656246Y-87290000D01*
X109443754Y-87290000D01*
X109233872Y-87323242D01*
X109233869Y-87323242D01*
X109031782Y-87388904D01*
X108842439Y-87485380D01*
X108788282Y-87524727D01*
X108788282Y-87524728D01*
X109420591Y-88157037D01*
X109357007Y-88174075D01*
X109242993Y-88239901D01*
X109149901Y-88332993D01*
X109084075Y-88447007D01*
X109067037Y-88510591D01*
X108434728Y-87878282D01*
X108434727Y-87878282D01*
X108395380Y-87932440D01*
X108395376Y-87932446D01*
X108390760Y-87941505D01*
X108342781Y-87992297D01*
X108274959Y-88009087D01*
X108208826Y-87986543D01*
X108169794Y-87941493D01*
X108165051Y-87932184D01*
X108165049Y-87932181D01*
X108165048Y-87932179D01*
X108040109Y-87760213D01*
X107889786Y-87609890D01*
X107717820Y-87484951D01*
X107528414Y-87388444D01*
X107528413Y-87388443D01*
X107528412Y-87388443D01*
X107326243Y-87322754D01*
X107326241Y-87322753D01*
X107326240Y-87322753D01*
X107139824Y-87293228D01*
X107116287Y-87289500D01*
X106903713Y-87289500D01*
X106880176Y-87293228D01*
X106693760Y-87322753D01*
X106491585Y-87388444D01*
X106302179Y-87484951D01*
X106130213Y-87609890D01*
X105979890Y-87760213D01*
X105854951Y-87932179D01*
X105758444Y-88121585D01*
X105692753Y-88323760D01*
X105659500Y-88533713D01*
X105659500Y-88746286D01*
X105692735Y-88956127D01*
X105692754Y-88956243D01*
X105723379Y-89050498D01*
X105758444Y-89158414D01*
X105854951Y-89347820D01*
X105979890Y-89519786D01*
X106130213Y-89670109D01*
X106302182Y-89795050D01*
X106310946Y-89799516D01*
X106361742Y-89847491D01*
X106378536Y-89915312D01*
X106355998Y-89981447D01*
X106310946Y-90020484D01*
X106302182Y-90024949D01*
X106130213Y-90149890D01*
X105979890Y-90300213D01*
X105854951Y-90472179D01*
X105758444Y-90661585D01*
X105692753Y-90863760D01*
X105659500Y-91073713D01*
X105659500Y-91286286D01*
X105692735Y-91496127D01*
X105692754Y-91496243D01*
X105749213Y-91670006D01*
X105758444Y-91698414D01*
X105854951Y-91887820D01*
X105979890Y-92059786D01*
X106130213Y-92210109D01*
X106302182Y-92335050D01*
X106310946Y-92339516D01*
X106361742Y-92387491D01*
X106378536Y-92455312D01*
X106355998Y-92521447D01*
X106310946Y-92560484D01*
X106302182Y-92564949D01*
X106130213Y-92689890D01*
X105979890Y-92840213D01*
X105854951Y-93012179D01*
X105758444Y-93201585D01*
X105692753Y-93403760D01*
X105659500Y-93613713D01*
X105659500Y-93826286D01*
X105692735Y-94036127D01*
X105692754Y-94036243D01*
X105726230Y-94139272D01*
X105758444Y-94238414D01*
X105854951Y-94427820D01*
X105979890Y-94599786D01*
X106130213Y-94750109D01*
X106302182Y-94875050D01*
X106310946Y-94879516D01*
X106361742Y-94927491D01*
X106378536Y-94995312D01*
X106355998Y-95061447D01*
X106310946Y-95100484D01*
X106302182Y-95104949D01*
X106130213Y-95229890D01*
X105979890Y-95380213D01*
X105854951Y-95552179D01*
X105758444Y-95741585D01*
X105692753Y-95943760D01*
X105659500Y-96153713D01*
X105659500Y-96366286D01*
X105692735Y-96576127D01*
X105692754Y-96576243D01*
X105746746Y-96742413D01*
X105758444Y-96778414D01*
X105854951Y-96967820D01*
X105979890Y-97139786D01*
X106130213Y-97290109D01*
X106302182Y-97415050D01*
X106310946Y-97419516D01*
X106361742Y-97467491D01*
X106378536Y-97535312D01*
X106355998Y-97601447D01*
X106310946Y-97640484D01*
X106302182Y-97644949D01*
X106130213Y-97769890D01*
X106130209Y-97769894D01*
X106036923Y-97863181D01*
X105975600Y-97896666D01*
X105949242Y-97899500D01*
X104461303Y-97899500D01*
X104287341Y-97934103D01*
X104287333Y-97934105D01*
X104123455Y-98001985D01*
X104123446Y-98001990D01*
X103975964Y-98100535D01*
X103975960Y-98100538D01*
X103050540Y-99025958D01*
X103050534Y-99025965D01*
X103028208Y-99059378D01*
X103028195Y-99059399D01*
X103026013Y-99062666D01*
X102951987Y-99173453D01*
X102929995Y-99226547D01*
X102926839Y-99234164D01*
X102926837Y-99234169D01*
X102884105Y-99337333D01*
X102884103Y-99337341D01*
X102851855Y-99499461D01*
X102851856Y-99499462D01*
X102849500Y-99511307D01*
X98250500Y-99511307D01*
X98250500Y-74500639D01*
X115699500Y-74500639D01*
X115699500Y-74699360D01*
X115730587Y-74895637D01*
X115791993Y-75084629D01*
X115791994Y-75084632D01*
X115882213Y-75261694D01*
X115999019Y-75422464D01*
X116139536Y-75562981D01*
X116300306Y-75679787D01*
X116418832Y-75740179D01*
X116456780Y-75759515D01*
X116507576Y-75807490D01*
X116524371Y-75875311D01*
X116501833Y-75941446D01*
X116456780Y-75980485D01*
X116300305Y-76060213D01*
X116139533Y-76177021D01*
X115999021Y-76317533D01*
X115882213Y-76478305D01*
X115791994Y-76655367D01*
X115791993Y-76655370D01*
X115730587Y-76844362D01*
X115699500Y-77040639D01*
X115699500Y-77239360D01*
X115730587Y-77435637D01*
X115791993Y-77624629D01*
X115791994Y-77624632D01*
X115873801Y-77785185D01*
X115882213Y-77801694D01*
X115999019Y-77962464D01*
X116139536Y-78102981D01*
X116300306Y-78219787D01*
X116396307Y-78268702D01*
X116456780Y-78299515D01*
X116507576Y-78347490D01*
X116524371Y-78415311D01*
X116501833Y-78481446D01*
X116456780Y-78520485D01*
X116300305Y-78600213D01*
X116139533Y-78717021D01*
X115999021Y-78857533D01*
X115882213Y-79018305D01*
X115791994Y-79195367D01*
X115791993Y-79195370D01*
X115730587Y-79384362D01*
X115730587Y-79384364D01*
X115699500Y-79580639D01*
X115699500Y-79779361D01*
X115712077Y-79858768D01*
X115730587Y-79975637D01*
X115791993Y-80164629D01*
X115791994Y-80164632D01*
X115882213Y-80341694D01*
X115999019Y-80502464D01*
X116139536Y-80642981D01*
X116300306Y-80759787D01*
X116349966Y-80785090D01*
X116456780Y-80839515D01*
X116507576Y-80887490D01*
X116524371Y-80955311D01*
X116501833Y-81021446D01*
X116456780Y-81060485D01*
X116300305Y-81140213D01*
X116139533Y-81257021D01*
X115999021Y-81397533D01*
X115882213Y-81558305D01*
X115791994Y-81735367D01*
X115791993Y-81735370D01*
X115730587Y-81924362D01*
X115699500Y-82120639D01*
X115699500Y-82319360D01*
X115730587Y-82515637D01*
X115791993Y-82704629D01*
X115791994Y-82704632D01*
X115882213Y-82881694D01*
X115999019Y-83042464D01*
X116139536Y-83182981D01*
X116300306Y-83299787D01*
X116418832Y-83360179D01*
X116456780Y-83379515D01*
X116507576Y-83427490D01*
X116524371Y-83495311D01*
X116501833Y-83561446D01*
X116456780Y-83600485D01*
X116300305Y-83680213D01*
X116139533Y-83797021D01*
X115999021Y-83937533D01*
X115882213Y-84098305D01*
X115791994Y-84275367D01*
X115791993Y-84275370D01*
X115730587Y-84464362D01*
X115699500Y-84660639D01*
X115699500Y-84859361D01*
X115706862Y-84905840D01*
X115730587Y-85055637D01*
X115791993Y-85244629D01*
X115791994Y-85244632D01*
X115863771Y-85385500D01*
X115882213Y-85421694D01*
X115999019Y-85582464D01*
X116139536Y-85722981D01*
X116300306Y-85839787D01*
X116385257Y-85883072D01*
X116456780Y-85919515D01*
X116507576Y-85967490D01*
X116524371Y-86035311D01*
X116501833Y-86101446D01*
X116456780Y-86140485D01*
X116300305Y-86220213D01*
X116139533Y-86337021D01*
X115999021Y-86477533D01*
X115882213Y-86638305D01*
X115791994Y-86815367D01*
X115791993Y-86815370D01*
X115730587Y-87004362D01*
X115721279Y-87063133D01*
X115699500Y-87200639D01*
X115699500Y-87399361D01*
X115705843Y-87439411D01*
X115730587Y-87595637D01*
X115791993Y-87784629D01*
X115791994Y-87784632D01*
X115871926Y-87941505D01*
X115882213Y-87961694D01*
X115999019Y-88122464D01*
X116139536Y-88262981D01*
X116300306Y-88379787D01*
X116418832Y-88440179D01*
X116456780Y-88459515D01*
X116507576Y-88507490D01*
X116524371Y-88575311D01*
X116501833Y-88641446D01*
X116456780Y-88680485D01*
X116300305Y-88760213D01*
X116139533Y-88877021D01*
X115999021Y-89017533D01*
X115882213Y-89178305D01*
X115791994Y-89355367D01*
X115791993Y-89355370D01*
X115730587Y-89544362D01*
X115702202Y-89723581D01*
X115699500Y-89740639D01*
X115699500Y-89939361D01*
X115703866Y-89966928D01*
X115730587Y-90135637D01*
X115791993Y-90324629D01*
X115791994Y-90324632D01*
X115871926Y-90481505D01*
X115882213Y-90501694D01*
X115999019Y-90662464D01*
X116139536Y-90802981D01*
X116300306Y-90919787D01*
X116366899Y-90953718D01*
X116456780Y-90999515D01*
X116507576Y-91047490D01*
X116524371Y-91115311D01*
X116501833Y-91181446D01*
X116456780Y-91220485D01*
X116300305Y-91300213D01*
X116139533Y-91417021D01*
X115999021Y-91557533D01*
X115882213Y-91718305D01*
X115791994Y-91895367D01*
X115791993Y-91895370D01*
X115730587Y-92084362D01*
X115705572Y-92242299D01*
X115699500Y-92280639D01*
X115699500Y-92479361D01*
X115704751Y-92512512D01*
X115730587Y-92675637D01*
X115791993Y-92864629D01*
X115791994Y-92864632D01*
X115871926Y-93021505D01*
X115882213Y-93041694D01*
X115999019Y-93202464D01*
X116139536Y-93342981D01*
X116300306Y-93459787D01*
X116371150Y-93495884D01*
X116456780Y-93539515D01*
X116507576Y-93587490D01*
X116524371Y-93655311D01*
X116501833Y-93721446D01*
X116456780Y-93760485D01*
X116300305Y-93840213D01*
X116139533Y-93957021D01*
X115999021Y-94097533D01*
X115882213Y-94258305D01*
X115791994Y-94435367D01*
X115791993Y-94435370D01*
X115730587Y-94624362D01*
X115710671Y-94750109D01*
X115699500Y-94820639D01*
X115699500Y-95019361D01*
X115703669Y-95045685D01*
X115730587Y-95215637D01*
X115791993Y-95404629D01*
X115791994Y-95404632D01*
X115871926Y-95561505D01*
X115882213Y-95581694D01*
X115999019Y-95742464D01*
X116139536Y-95882981D01*
X116300306Y-95999787D01*
X116416062Y-96058768D01*
X116456780Y-96079515D01*
X116507576Y-96127490D01*
X116524371Y-96195311D01*
X116501833Y-96261446D01*
X116456780Y-96300485D01*
X116300305Y-96380213D01*
X116139533Y-96497021D01*
X115999021Y-96637533D01*
X115882213Y-96798305D01*
X115791994Y-96975367D01*
X115791993Y-96975370D01*
X115730587Y-97164362D01*
X115699500Y-97360639D01*
X115699500Y-97559360D01*
X115730587Y-97755637D01*
X115791993Y-97944629D01*
X115791994Y-97944632D01*
X115882213Y-98121694D01*
X115999019Y-98282464D01*
X116139536Y-98422981D01*
X116300306Y-98539787D01*
X116418832Y-98600179D01*
X116456780Y-98619515D01*
X116507576Y-98667490D01*
X116524371Y-98735311D01*
X116501833Y-98801446D01*
X116456780Y-98840485D01*
X116300305Y-98920213D01*
X116139533Y-99037021D01*
X115999021Y-99177533D01*
X115882213Y-99338305D01*
X115791994Y-99515367D01*
X115791993Y-99515370D01*
X115730587Y-99704362D01*
X115716497Y-99793325D01*
X115699500Y-99900639D01*
X115699500Y-100099361D01*
X115704742Y-100132455D01*
X115730587Y-100295637D01*
X115791993Y-100484629D01*
X115791994Y-100484632D01*
X115882213Y-100661694D01*
X115999019Y-100822464D01*
X116139536Y-100962981D01*
X116300306Y-101079787D01*
X116379393Y-101120084D01*
X116456780Y-101159515D01*
X116507576Y-101207490D01*
X116524371Y-101275311D01*
X116501833Y-101341446D01*
X116456780Y-101380485D01*
X116300305Y-101460213D01*
X116139533Y-101577021D01*
X115999021Y-101717533D01*
X115882213Y-101878305D01*
X115791994Y-102055367D01*
X115791993Y-102055370D01*
X115730587Y-102244362D01*
X115728654Y-102256569D01*
X115699500Y-102440639D01*
X115699500Y-102639361D01*
X115707600Y-102690500D01*
X115730587Y-102835637D01*
X115791993Y-103024629D01*
X115791994Y-103024632D01*
X115863771Y-103165500D01*
X115882213Y-103201694D01*
X115999019Y-103362464D01*
X116139536Y-103502981D01*
X116300306Y-103619787D01*
X116418832Y-103680179D01*
X116456780Y-103699515D01*
X116507576Y-103747490D01*
X116524371Y-103815311D01*
X116501833Y-103881446D01*
X116456780Y-103920485D01*
X116300305Y-104000213D01*
X116139533Y-104117021D01*
X115999021Y-104257533D01*
X115882213Y-104418305D01*
X115791994Y-104595367D01*
X115791993Y-104595370D01*
X115730587Y-104784362D01*
X115699500Y-104980639D01*
X115699500Y-105179360D01*
X115730587Y-105375637D01*
X115791993Y-105564629D01*
X115791994Y-105564632D01*
X115882213Y-105741694D01*
X115999019Y-105902464D01*
X116139536Y-106042981D01*
X116300306Y-106159787D01*
X116387149Y-106204035D01*
X116477367Y-106250005D01*
X116477370Y-106250006D01*
X116571866Y-106280709D01*
X116666364Y-106311413D01*
X116862639Y-106342500D01*
X116862640Y-106342500D01*
X117437360Y-106342500D01*
X117437361Y-106342500D01*
X117633636Y-106311413D01*
X117822632Y-106250005D01*
X117999694Y-106159787D01*
X118160464Y-106042981D01*
X118300981Y-105902464D01*
X118417787Y-105741694D01*
X118508005Y-105564632D01*
X118569413Y-105375636D01*
X118600500Y-105179361D01*
X118600500Y-104980639D01*
X118569413Y-104784364D01*
X118508005Y-104595368D01*
X118508005Y-104595367D01*
X118417786Y-104418305D01*
X118300981Y-104257536D01*
X118160464Y-104117019D01*
X117999694Y-104000213D01*
X117843218Y-103920484D01*
X117792423Y-103872510D01*
X117775628Y-103804689D01*
X117798165Y-103738554D01*
X117843218Y-103699515D01*
X117999694Y-103619787D01*
X118160464Y-103502981D01*
X118300981Y-103362464D01*
X118417787Y-103201694D01*
X118508005Y-103024632D01*
X118569413Y-102835636D01*
X118600500Y-102639361D01*
X118600500Y-102440639D01*
X118569413Y-102244364D01*
X118508005Y-102055368D01*
X118508005Y-102055367D01*
X118448476Y-101938537D01*
X118417787Y-101878306D01*
X118300981Y-101717536D01*
X118160464Y-101577019D01*
X117999694Y-101460213D01*
X117843218Y-101380484D01*
X117792423Y-101332510D01*
X117775628Y-101264689D01*
X117798165Y-101198554D01*
X117843218Y-101159515D01*
X117999694Y-101079787D01*
X118160464Y-100962981D01*
X118300981Y-100822464D01*
X118417787Y-100661694D01*
X118508005Y-100484632D01*
X118569413Y-100295636D01*
X118600500Y-100099361D01*
X118600500Y-99900639D01*
X118569413Y-99704364D01*
X118519420Y-99550500D01*
X118508006Y-99515370D01*
X118508005Y-99515367D01*
X118417786Y-99338305D01*
X118402805Y-99317685D01*
X118300981Y-99177536D01*
X118160464Y-99037019D01*
X117999694Y-98920213D01*
X117843218Y-98840484D01*
X117792423Y-98792510D01*
X117775628Y-98724689D01*
X117798165Y-98658554D01*
X117843218Y-98619515D01*
X117999694Y-98539787D01*
X118160464Y-98422981D01*
X118300981Y-98282464D01*
X118417787Y-98121694D01*
X118508005Y-97944632D01*
X118569413Y-97755636D01*
X118600500Y-97559361D01*
X118600500Y-97360639D01*
X118569413Y-97164364D01*
X118508005Y-96975368D01*
X118508005Y-96975367D01*
X118423466Y-96809452D01*
X118417787Y-96798306D01*
X118300981Y-96637536D01*
X118160464Y-96497019D01*
X117999694Y-96380213D01*
X117843218Y-96300484D01*
X117792423Y-96252510D01*
X117775628Y-96184689D01*
X117798165Y-96118554D01*
X117843218Y-96079515D01*
X117999694Y-95999787D01*
X118160464Y-95882981D01*
X118300981Y-95742464D01*
X118417787Y-95581694D01*
X118508005Y-95404632D01*
X118569413Y-95215636D01*
X118600500Y-95019361D01*
X118600500Y-94820639D01*
X118569413Y-94624364D01*
X118508005Y-94435368D01*
X118508005Y-94435367D01*
X118417786Y-94258305D01*
X118404008Y-94239341D01*
X118300981Y-94097536D01*
X118160464Y-93957019D01*
X117999694Y-93840213D01*
X117843218Y-93760484D01*
X117792423Y-93712510D01*
X117775628Y-93644689D01*
X117798165Y-93578554D01*
X117843218Y-93539515D01*
X117999694Y-93459787D01*
X118160464Y-93342981D01*
X118300981Y-93202464D01*
X118417787Y-93041694D01*
X118508005Y-92864632D01*
X118569413Y-92675636D01*
X118600500Y-92479361D01*
X118600500Y-92280639D01*
X118569413Y-92084364D01*
X118529196Y-91960588D01*
X118508006Y-91895370D01*
X118508005Y-91895367D01*
X118450786Y-91783070D01*
X118417787Y-91718306D01*
X118300981Y-91557536D01*
X118160464Y-91417019D01*
X117999694Y-91300213D01*
X117843218Y-91220484D01*
X117792423Y-91172510D01*
X117775628Y-91104689D01*
X117798165Y-91038554D01*
X117843218Y-90999515D01*
X117999694Y-90919787D01*
X118160464Y-90802981D01*
X118300981Y-90662464D01*
X118417787Y-90501694D01*
X118508005Y-90324632D01*
X118569413Y-90135636D01*
X118600500Y-89939361D01*
X118600500Y-89740639D01*
X118569413Y-89544364D01*
X118534235Y-89436100D01*
X118532241Y-89366260D01*
X118564484Y-89310104D01*
X145412771Y-62461819D01*
X145474094Y-62428334D01*
X145500452Y-62425500D01*
X154039548Y-62425500D01*
X154106587Y-62445185D01*
X154127229Y-62461819D01*
X154888181Y-63222771D01*
X154921666Y-63284094D01*
X154924500Y-63310452D01*
X154924500Y-64889547D01*
X154904815Y-64956586D01*
X154888181Y-64977228D01*
X149664144Y-70201264D01*
X149664138Y-70201272D01*
X149595692Y-70303705D01*
X149595684Y-70303719D01*
X149562347Y-70384207D01*
X149556823Y-70397543D01*
X149548537Y-70417545D01*
X149548535Y-70417553D01*
X149524500Y-70538389D01*
X149524500Y-81261609D01*
X149547410Y-81376788D01*
X149548535Y-81382445D01*
X149548536Y-81382448D01*
X149548537Y-81382451D01*
X149595688Y-81496286D01*
X149595689Y-81496288D01*
X149595690Y-81496289D01*
X149595690Y-81496290D01*
X149608018Y-81514740D01*
X149608023Y-81514746D01*
X149611892Y-81520536D01*
X149664142Y-81598733D01*
X149751267Y-81685858D01*
X149751270Y-81685860D01*
X149759306Y-81693896D01*
X151822502Y-83757092D01*
X151855987Y-83818415D01*
X151857295Y-83864169D01*
X151849500Y-83913389D01*
X151849500Y-84086611D01*
X151876598Y-84257701D01*
X151930127Y-84422445D01*
X152008768Y-84576788D01*
X152110586Y-84716928D01*
X152110588Y-84716930D01*
X152233075Y-84839417D01*
X152273384Y-84868702D01*
X152316050Y-84924031D01*
X152324500Y-84969021D01*
X152324500Y-85061610D01*
X152348535Y-85182444D01*
X152348537Y-85182452D01*
X152362347Y-85215792D01*
X152395688Y-85296286D01*
X152420912Y-85334035D01*
X152425202Y-85340456D01*
X152425204Y-85340459D01*
X152464141Y-85398733D01*
X152555586Y-85490178D01*
X152555608Y-85490198D01*
X153156838Y-86091428D01*
X153190323Y-86152751D01*
X153185339Y-86222443D01*
X153143467Y-86278376D01*
X153078003Y-86302793D01*
X153049763Y-86301583D01*
X153047309Y-86301194D01*
X153036611Y-86299500D01*
X152863389Y-86299500D01*
X152842598Y-86302793D01*
X152692302Y-86326597D01*
X152527552Y-86380128D01*
X152373211Y-86458768D01*
X152298033Y-86513389D01*
X152233072Y-86560586D01*
X152233070Y-86560588D01*
X152233069Y-86560588D01*
X152110588Y-86683069D01*
X152110588Y-86683070D01*
X152110586Y-86683072D01*
X152108015Y-86686611D01*
X152008768Y-86823211D01*
X151930128Y-86977552D01*
X151876597Y-87142302D01*
X151849500Y-87313389D01*
X151849500Y-87486610D01*
X151874254Y-87642906D01*
X151876598Y-87657701D01*
X151930127Y-87822445D01*
X152008768Y-87976788D01*
X152110586Y-88116928D01*
X152233072Y-88239414D01*
X152373212Y-88341232D01*
X152527555Y-88419873D01*
X152692299Y-88473402D01*
X152863389Y-88500500D01*
X152863390Y-88500500D01*
X153036608Y-88500500D01*
X153036611Y-88500500D01*
X153085829Y-88492704D01*
X153155119Y-88501658D01*
X153192906Y-88527496D01*
X157264139Y-92598729D01*
X157264142Y-92598733D01*
X157351267Y-92685858D01*
X157389357Y-92711309D01*
X157453714Y-92754312D01*
X157453719Y-92754314D01*
X157529222Y-92785588D01*
X157529229Y-92785590D01*
X157534207Y-92787652D01*
X157567548Y-92801463D01*
X157593108Y-92806547D01*
X157688391Y-92825499D01*
X157688392Y-92825500D01*
X157688393Y-92825500D01*
X157688394Y-92825500D01*
X160314529Y-92825500D01*
X160381568Y-92845185D01*
X160427323Y-92897989D01*
X160437267Y-92967147D01*
X160408242Y-93030703D01*
X160376801Y-93055305D01*
X160377364Y-93056223D01*
X160373218Y-93058763D01*
X160297608Y-93113697D01*
X160233072Y-93160586D01*
X160233070Y-93160588D01*
X160233069Y-93160588D01*
X160179737Y-93213921D01*
X160118414Y-93247406D01*
X160092056Y-93250240D01*
X153651181Y-93250240D01*
X153584142Y-93230555D01*
X153550864Y-93199127D01*
X153521573Y-93158812D01*
X153399089Y-93036328D01*
X153399087Y-93036326D01*
X153258947Y-92934508D01*
X153104604Y-92855867D01*
X152939860Y-92802338D01*
X152939858Y-92802337D01*
X152939857Y-92802337D01*
X152808430Y-92781521D01*
X152768770Y-92775240D01*
X152595548Y-92775240D01*
X152555887Y-92781521D01*
X152424461Y-92802337D01*
X152259711Y-92855868D01*
X152105370Y-92934508D01*
X152060447Y-92967147D01*
X151965231Y-93036326D01*
X151965229Y-93036328D01*
X151965228Y-93036328D01*
X151842747Y-93158809D01*
X151842747Y-93158810D01*
X151842745Y-93158812D01*
X151802706Y-93213921D01*
X151740927Y-93298951D01*
X151662287Y-93453292D01*
X151608756Y-93618042D01*
X151581659Y-93789129D01*
X151581659Y-93962350D01*
X151603069Y-94097533D01*
X151608757Y-94133441D01*
X151662286Y-94298185D01*
X151740927Y-94452528D01*
X151842745Y-94592668D01*
X151965231Y-94715154D01*
X152105371Y-94816972D01*
X152259714Y-94895613D01*
X152424458Y-94949142D01*
X152595548Y-94976240D01*
X152595549Y-94976240D01*
X152768769Y-94976240D01*
X152768770Y-94976240D01*
X152939860Y-94949142D01*
X153104604Y-94895613D01*
X153258947Y-94816972D01*
X153399087Y-94715154D01*
X153521573Y-94592668D01*
X153550864Y-94552353D01*
X153606194Y-94509688D01*
X153651181Y-94501240D01*
X159894288Y-94501240D01*
X159961327Y-94520925D01*
X160004772Y-94568946D01*
X160008768Y-94576788D01*
X160008770Y-94576790D01*
X160008770Y-94576792D01*
X160043334Y-94624364D01*
X160110586Y-94716928D01*
X160233072Y-94839414D01*
X160373212Y-94941232D01*
X160527555Y-95019873D01*
X160692299Y-95073402D01*
X160863389Y-95100500D01*
X160863390Y-95100500D01*
X161036610Y-95100500D01*
X161036611Y-95100500D01*
X161207701Y-95073402D01*
X161372445Y-95019873D01*
X161526788Y-94941232D01*
X161666928Y-94839414D01*
X161789414Y-94716928D01*
X161891232Y-94576788D01*
X161969873Y-94422445D01*
X162023402Y-94257701D01*
X162026310Y-94239338D01*
X162056237Y-94176205D01*
X162115547Y-94139272D01*
X162185410Y-94140268D01*
X162236464Y-94171054D01*
X164688181Y-96622771D01*
X164721666Y-96684094D01*
X164724500Y-96710452D01*
X164724500Y-97661609D01*
X164747410Y-97776788D01*
X164748535Y-97782445D01*
X164748536Y-97782448D01*
X164748537Y-97782451D01*
X164795688Y-97896286D01*
X164795689Y-97896288D01*
X164804381Y-97909296D01*
X164825721Y-97941232D01*
X164864142Y-97998733D01*
X164951267Y-98085858D01*
X164951269Y-98085859D01*
X164961430Y-98096020D01*
X167951263Y-101085855D01*
X167951266Y-101085857D01*
X167951267Y-101085858D01*
X168053715Y-101154312D01*
X168091602Y-101170005D01*
X168167548Y-101201463D01*
X168187597Y-101205451D01*
X168233406Y-101214563D01*
X168288392Y-101225501D01*
X168288394Y-101225501D01*
X168417721Y-101225501D01*
X168417741Y-101225500D01*
X181411607Y-101225500D01*
X181472029Y-101213481D01*
X181532452Y-101201463D01*
X181578351Y-101182451D01*
X181646286Y-101154312D01*
X181697509Y-101120084D01*
X181748733Y-101085858D01*
X181835858Y-100998733D01*
X181835858Y-100998731D01*
X181846066Y-100988524D01*
X181846066Y-100988522D01*
X182035858Y-100798733D01*
X182104312Y-100696285D01*
X182131932Y-100629603D01*
X182151463Y-100582452D01*
X182175500Y-100461606D01*
X182175500Y-97099223D01*
X199649500Y-97099223D01*
X199649500Y-97400776D01*
X199649501Y-97400793D01*
X199688861Y-97699766D01*
X199766913Y-97991060D01*
X199882314Y-98269661D01*
X199882318Y-98269671D01*
X200033099Y-98530831D01*
X200216679Y-98770078D01*
X200216685Y-98770085D01*
X200429914Y-98983314D01*
X200429921Y-98983320D01*
X200669168Y-99166900D01*
X200930328Y-99317681D01*
X200930329Y-99317681D01*
X200930332Y-99317683D01*
X201116072Y-99394619D01*
X201208939Y-99433086D01*
X201208940Y-99433086D01*
X201208942Y-99433087D01*
X201500232Y-99511138D01*
X201799217Y-99550500D01*
X201799224Y-99550500D01*
X202100776Y-99550500D01*
X202100783Y-99550500D01*
X202399768Y-99511138D01*
X202691058Y-99433087D01*
X202969668Y-99317683D01*
X203230832Y-99166900D01*
X203470080Y-98983319D01*
X203683319Y-98770080D01*
X203866900Y-98530832D01*
X204017683Y-98269668D01*
X204133087Y-97991058D01*
X204211138Y-97699768D01*
X204250500Y-97400783D01*
X204250500Y-97099217D01*
X204211138Y-96800232D01*
X204133087Y-96508942D01*
X204132197Y-96506794D01*
X204042396Y-96289995D01*
X204017683Y-96230332D01*
X204014893Y-96225500D01*
X203866900Y-95969168D01*
X203683320Y-95729921D01*
X203683314Y-95729914D01*
X203470085Y-95516685D01*
X203470078Y-95516679D01*
X203230831Y-95333099D01*
X202969671Y-95182318D01*
X202969661Y-95182314D01*
X202691060Y-95066913D01*
X202399766Y-94988861D01*
X202100793Y-94949501D01*
X202100788Y-94949500D01*
X202100783Y-94949500D01*
X201799217Y-94949500D01*
X201799211Y-94949500D01*
X201799206Y-94949501D01*
X201500233Y-94988861D01*
X201208939Y-95066913D01*
X200930338Y-95182314D01*
X200930328Y-95182318D01*
X200669168Y-95333099D01*
X200429921Y-95516679D01*
X200429914Y-95516685D01*
X200216685Y-95729914D01*
X200216679Y-95729921D01*
X200033099Y-95969168D01*
X199882318Y-96230328D01*
X199882314Y-96230338D01*
X199766913Y-96508939D01*
X199688861Y-96800233D01*
X199649501Y-97099206D01*
X199649500Y-97099223D01*
X182175500Y-97099223D01*
X182175500Y-93769021D01*
X182195185Y-93701982D01*
X182226616Y-93668702D01*
X182242035Y-93657500D01*
X182259668Y-93644689D01*
X182266924Y-93639417D01*
X182266924Y-93639416D01*
X182266928Y-93639414D01*
X182389414Y-93516928D01*
X182491232Y-93376788D01*
X182569873Y-93222445D01*
X182623402Y-93057701D01*
X182650500Y-92886611D01*
X182650500Y-92713389D01*
X182623402Y-92542299D01*
X182569873Y-92377555D01*
X182491232Y-92223212D01*
X182424959Y-92131995D01*
X200149500Y-92131995D01*
X200149500Y-92368004D01*
X200149501Y-92368020D01*
X200180306Y-92602010D01*
X200241394Y-92829993D01*
X200331714Y-93048045D01*
X200331719Y-93048056D01*
X200348308Y-93076788D01*
X200449727Y-93252450D01*
X200449729Y-93252453D01*
X200449730Y-93252454D01*
X200593406Y-93439697D01*
X200593412Y-93439704D01*
X200760295Y-93606587D01*
X200760302Y-93606593D01*
X200803079Y-93639417D01*
X200947550Y-93750273D01*
X201014851Y-93789129D01*
X201151943Y-93868280D01*
X201151948Y-93868282D01*
X201151951Y-93868284D01*
X201370007Y-93958606D01*
X201597986Y-94019693D01*
X201831989Y-94050500D01*
X201831996Y-94050500D01*
X202068004Y-94050500D01*
X202068011Y-94050500D01*
X202302014Y-94019693D01*
X202529993Y-93958606D01*
X202748049Y-93868284D01*
X202952450Y-93750273D01*
X203139699Y-93606592D01*
X203306592Y-93439699D01*
X203450273Y-93252450D01*
X203568284Y-93048049D01*
X203658606Y-92829993D01*
X203719693Y-92602014D01*
X203750500Y-92368011D01*
X203750500Y-92131989D01*
X203719693Y-91897986D01*
X203658606Y-91670007D01*
X203568284Y-91451951D01*
X203568282Y-91451948D01*
X203568280Y-91451943D01*
X203522698Y-91372993D01*
X203450273Y-91247550D01*
X203340652Y-91104689D01*
X203306593Y-91060302D01*
X203306587Y-91060295D01*
X203139704Y-90893412D01*
X203139697Y-90893406D01*
X202952454Y-90749730D01*
X202952453Y-90749729D01*
X202952450Y-90749727D01*
X202870957Y-90702677D01*
X202748056Y-90631719D01*
X202748045Y-90631714D01*
X202529993Y-90541394D01*
X202496043Y-90532297D01*
X202302014Y-90480307D01*
X202302013Y-90480306D01*
X202302010Y-90480306D01*
X202068020Y-90449501D01*
X202068017Y-90449500D01*
X202068011Y-90449500D01*
X201831989Y-90449500D01*
X201831983Y-90449500D01*
X201831979Y-90449501D01*
X201597989Y-90480306D01*
X201370006Y-90541394D01*
X201151954Y-90631714D01*
X201151943Y-90631719D01*
X200947545Y-90749730D01*
X200760302Y-90893406D01*
X200760295Y-90893412D01*
X200593412Y-91060295D01*
X200593406Y-91060302D01*
X200449730Y-91247545D01*
X200331719Y-91451943D01*
X200331714Y-91451954D01*
X200241394Y-91670006D01*
X200180306Y-91897989D01*
X200149501Y-92131979D01*
X200149500Y-92131995D01*
X182424959Y-92131995D01*
X182389414Y-92083072D01*
X182266928Y-91960586D01*
X182126788Y-91858768D01*
X181972445Y-91780127D01*
X181807701Y-91726598D01*
X181807699Y-91726597D01*
X181807698Y-91726597D01*
X181676271Y-91705781D01*
X181636611Y-91699500D01*
X181463389Y-91699500D01*
X181423728Y-91705781D01*
X181292302Y-91726597D01*
X181127552Y-91780128D01*
X180973211Y-91858768D01*
X180919233Y-91897986D01*
X180833072Y-91960586D01*
X180833070Y-91960588D01*
X180833069Y-91960588D01*
X180710588Y-92083069D01*
X180710588Y-92083070D01*
X180710586Y-92083072D01*
X180675053Y-92131979D01*
X180608768Y-92223211D01*
X180530128Y-92377552D01*
X180476597Y-92542302D01*
X180467140Y-92602014D01*
X180449500Y-92713389D01*
X180449500Y-92886611D01*
X180455176Y-92922445D01*
X180476218Y-93055305D01*
X180476598Y-93057701D01*
X180530127Y-93222445D01*
X180608768Y-93376788D01*
X180710586Y-93516928D01*
X180710588Y-93516930D01*
X180833075Y-93639417D01*
X180873384Y-93668702D01*
X180916050Y-93724031D01*
X180924500Y-93769021D01*
X180924500Y-99850500D01*
X180904815Y-99917539D01*
X180852011Y-99963294D01*
X180800500Y-99974500D01*
X168660453Y-99974500D01*
X168593414Y-99954815D01*
X168572772Y-99938181D01*
X167088241Y-98453650D01*
X167054756Y-98392327D01*
X167059740Y-98322635D01*
X167101612Y-98266702D01*
X167167076Y-98242285D01*
X167214235Y-98248037D01*
X167292299Y-98273402D01*
X167463389Y-98300500D01*
X167463390Y-98300500D01*
X167636610Y-98300500D01*
X167636611Y-98300500D01*
X167807701Y-98273402D01*
X167972445Y-98219873D01*
X168126788Y-98141232D01*
X168266928Y-98039414D01*
X168389414Y-97916928D01*
X168491232Y-97776788D01*
X168569873Y-97622445D01*
X168623402Y-97457701D01*
X168650500Y-97286611D01*
X168650500Y-97113389D01*
X168623402Y-96942299D01*
X168598037Y-96864236D01*
X168596043Y-96794398D01*
X168632123Y-96734565D01*
X168694824Y-96703737D01*
X168764238Y-96711701D01*
X168803650Y-96738240D01*
X169022502Y-96957092D01*
X169055987Y-97018415D01*
X169057295Y-97064169D01*
X169049500Y-97113388D01*
X169049500Y-97286610D01*
X169076597Y-97457697D01*
X169076597Y-97457699D01*
X169076598Y-97457701D01*
X169130127Y-97622445D01*
X169208768Y-97776788D01*
X169310586Y-97916928D01*
X169433072Y-98039414D01*
X169573212Y-98141232D01*
X169727555Y-98219873D01*
X169892299Y-98273402D01*
X170063389Y-98300500D01*
X170063390Y-98300500D01*
X170236610Y-98300500D01*
X170236611Y-98300500D01*
X170407701Y-98273402D01*
X170572445Y-98219873D01*
X170726788Y-98141232D01*
X170866928Y-98039414D01*
X170989414Y-97916928D01*
X171091232Y-97776788D01*
X171169873Y-97622445D01*
X171223402Y-97457701D01*
X171227527Y-97431658D01*
X171257456Y-97368523D01*
X171316767Y-97331591D01*
X171386630Y-97332589D01*
X171444863Y-97371198D01*
X171472473Y-97431658D01*
X171476596Y-97457696D01*
X171476597Y-97457697D01*
X171476597Y-97457699D01*
X171476598Y-97457701D01*
X171530127Y-97622445D01*
X171608768Y-97776788D01*
X171710586Y-97916928D01*
X171833072Y-98039414D01*
X171973212Y-98141232D01*
X172127555Y-98219873D01*
X172292299Y-98273402D01*
X172463389Y-98300500D01*
X172463390Y-98300500D01*
X172636610Y-98300500D01*
X172636611Y-98300500D01*
X172807701Y-98273402D01*
X172972445Y-98219873D01*
X173126788Y-98141232D01*
X173266928Y-98039414D01*
X173389414Y-97916928D01*
X173491232Y-97776788D01*
X173569873Y-97622445D01*
X173623402Y-97457701D01*
X173650500Y-97286611D01*
X173650500Y-97113389D01*
X173623402Y-96942299D01*
X173569873Y-96777555D01*
X173491232Y-96623212D01*
X173389414Y-96483072D01*
X173266928Y-96360586D01*
X173126788Y-96258768D01*
X173114506Y-96252510D01*
X172972447Y-96180128D01*
X172972446Y-96180127D01*
X172972445Y-96180127D01*
X172807701Y-96126598D01*
X172807699Y-96126597D01*
X172807698Y-96126597D01*
X172676271Y-96105781D01*
X172636611Y-96099500D01*
X172463389Y-96099500D01*
X172414169Y-96107295D01*
X172344876Y-96098339D01*
X172307095Y-96072504D01*
X171435859Y-95201269D01*
X171435858Y-95201267D01*
X171348733Y-95114142D01*
X171297509Y-95079915D01*
X171246286Y-95045688D01*
X171246283Y-95045686D01*
X171246280Y-95045685D01*
X171172603Y-95015168D01*
X171172601Y-95015167D01*
X171165792Y-95012347D01*
X171132452Y-94998537D01*
X171072029Y-94986518D01*
X171067306Y-94985578D01*
X171067304Y-94985578D01*
X171011610Y-94974500D01*
X171011607Y-94974500D01*
X171011606Y-94974500D01*
X170060452Y-94974500D01*
X169993413Y-94954815D01*
X169972771Y-94938181D01*
X168846771Y-93812181D01*
X168813286Y-93750858D01*
X168818270Y-93681166D01*
X168860142Y-93625233D01*
X168925606Y-93600816D01*
X168934452Y-93600500D01*
X169086610Y-93600500D01*
X169086611Y-93600500D01*
X169257701Y-93573402D01*
X169422445Y-93519873D01*
X169576788Y-93441232D01*
X169716928Y-93339414D01*
X169839414Y-93216928D01*
X169941232Y-93076788D01*
X170019873Y-92922445D01*
X170073402Y-92757701D01*
X170073939Y-92754314D01*
X170093218Y-92632587D01*
X170100500Y-92586611D01*
X170100500Y-92413389D01*
X170073402Y-92242299D01*
X170019873Y-92077555D01*
X169941232Y-91923212D01*
X169839414Y-91783072D01*
X169716928Y-91660586D01*
X169693684Y-91643698D01*
X169651019Y-91588369D01*
X169645040Y-91518756D01*
X169677646Y-91456961D01*
X169678823Y-91455766D01*
X170757093Y-90377495D01*
X170818414Y-90344012D01*
X170864171Y-90342705D01*
X170913385Y-90350500D01*
X170913389Y-90350500D01*
X171086610Y-90350500D01*
X171086611Y-90350500D01*
X171257701Y-90323402D01*
X171422445Y-90269873D01*
X171576788Y-90191232D01*
X171716928Y-90089414D01*
X171839414Y-89966928D01*
X171941232Y-89826788D01*
X172019873Y-89672445D01*
X172073402Y-89507701D01*
X172100500Y-89336611D01*
X172100500Y-89163389D01*
X172073402Y-88992299D01*
X172019873Y-88827555D01*
X171941232Y-88673212D01*
X171839414Y-88533072D01*
X171716928Y-88410586D01*
X171576788Y-88308768D01*
X171422445Y-88230127D01*
X171257701Y-88176598D01*
X171257699Y-88176597D01*
X171257698Y-88176597D01*
X171126271Y-88155781D01*
X171086611Y-88149500D01*
X170913389Y-88149500D01*
X170873728Y-88155781D01*
X170742302Y-88176597D01*
X170577552Y-88230128D01*
X170423211Y-88308768D01*
X170378529Y-88341232D01*
X170283072Y-88410586D01*
X170283070Y-88410588D01*
X170283069Y-88410588D01*
X170160588Y-88533069D01*
X170160588Y-88533070D01*
X170160586Y-88533072D01*
X170128307Y-88577500D01*
X170058768Y-88673211D01*
X169980128Y-88827552D01*
X169926597Y-88992302D01*
X169899500Y-89163389D01*
X169899500Y-89336616D01*
X169907294Y-89385828D01*
X169898339Y-89455121D01*
X169872502Y-89492906D01*
X169236201Y-90129208D01*
X168601270Y-90764139D01*
X168601267Y-90764142D01*
X168562431Y-90802978D01*
X168514142Y-90851266D01*
X168489487Y-90888166D01*
X168489486Y-90888167D01*
X168445690Y-90953709D01*
X168445685Y-90953718D01*
X168398540Y-91067538D01*
X168398535Y-91067554D01*
X168384445Y-91138394D01*
X168374500Y-91188389D01*
X168374500Y-91530978D01*
X168354815Y-91598017D01*
X168323387Y-91631295D01*
X168283072Y-91660585D01*
X168160588Y-91783069D01*
X168160588Y-91783070D01*
X168160586Y-91783072D01*
X168140360Y-91810911D01*
X168058768Y-91923211D01*
X167980128Y-92077552D01*
X167926597Y-92242302D01*
X167899500Y-92413389D01*
X167899500Y-92565548D01*
X167879815Y-92632587D01*
X167827011Y-92678342D01*
X167757853Y-92688286D01*
X167694297Y-92659261D01*
X167687819Y-92653229D01*
X162268813Y-87234223D01*
X163220334Y-87234223D01*
X163220334Y-87407444D01*
X163241523Y-87541231D01*
X163247432Y-87578535D01*
X163300961Y-87743279D01*
X163379602Y-87897622D01*
X163481420Y-88037762D01*
X163603906Y-88160248D01*
X163744046Y-88262066D01*
X163898389Y-88340707D01*
X164063133Y-88394236D01*
X164234223Y-88421334D01*
X164234224Y-88421334D01*
X164407444Y-88421334D01*
X164407445Y-88421334D01*
X164578535Y-88394236D01*
X164743279Y-88340707D01*
X164897622Y-88262066D01*
X165037762Y-88160248D01*
X165160248Y-88037762D01*
X165262066Y-87897622D01*
X165340707Y-87743279D01*
X165394236Y-87578535D01*
X165421334Y-87407445D01*
X165421334Y-87333064D01*
X165441019Y-87266025D01*
X165457653Y-87245383D01*
X165666217Y-87036819D01*
X165727540Y-87003334D01*
X165753898Y-87000500D01*
X174773920Y-87000500D01*
X174889267Y-86977555D01*
X174918913Y-86971658D01*
X175055495Y-86915084D01*
X175104729Y-86882186D01*
X175178416Y-86832952D01*
X176024548Y-85986818D01*
X176085871Y-85953334D01*
X176112229Y-85950500D01*
X179187770Y-85950500D01*
X179254809Y-85970185D01*
X179275451Y-85986819D01*
X179813181Y-86524549D01*
X179846666Y-86585872D01*
X179849500Y-86612230D01*
X179849500Y-86686610D01*
X179871065Y-86822771D01*
X179876598Y-86857701D01*
X179930127Y-87022445D01*
X180008768Y-87176788D01*
X180110586Y-87316928D01*
X180233072Y-87439414D01*
X180373212Y-87541232D01*
X180527555Y-87619873D01*
X180692299Y-87673402D01*
X180863389Y-87700500D01*
X180863390Y-87700500D01*
X181036610Y-87700500D01*
X181036611Y-87700500D01*
X181207701Y-87673402D01*
X181372445Y-87619873D01*
X181526788Y-87541232D01*
X181666928Y-87439414D01*
X181789414Y-87316928D01*
X181891232Y-87176788D01*
X181969873Y-87022445D01*
X182023402Y-86857701D01*
X182050500Y-86686611D01*
X182050500Y-86513389D01*
X182023402Y-86342299D01*
X181969873Y-86177555D01*
X181955824Y-86149983D01*
X200149500Y-86149983D01*
X200149500Y-88350001D01*
X200149501Y-88350018D01*
X200160000Y-88452796D01*
X200160001Y-88452799D01*
X200205426Y-88589880D01*
X200215186Y-88619334D01*
X200307288Y-88768656D01*
X200431344Y-88892712D01*
X200580666Y-88984814D01*
X200747203Y-89039999D01*
X200849991Y-89050500D01*
X203050008Y-89050499D01*
X203152797Y-89039999D01*
X203319334Y-88984814D01*
X203468656Y-88892712D01*
X203592712Y-88768656D01*
X203684814Y-88619334D01*
X203739999Y-88452797D01*
X203750500Y-88350009D01*
X203750499Y-86149992D01*
X203739999Y-86047203D01*
X203684814Y-85880666D01*
X203592712Y-85731344D01*
X203468656Y-85607288D01*
X203340665Y-85528343D01*
X203319336Y-85515187D01*
X203319331Y-85515185D01*
X203308853Y-85511713D01*
X203152797Y-85460001D01*
X203152795Y-85460000D01*
X203050010Y-85449500D01*
X200849998Y-85449500D01*
X200849981Y-85449501D01*
X200747203Y-85460000D01*
X200747200Y-85460001D01*
X200580668Y-85515185D01*
X200580663Y-85515187D01*
X200431342Y-85607289D01*
X200307289Y-85731342D01*
X200215187Y-85880663D01*
X200215185Y-85880668D01*
X200202313Y-85919515D01*
X200160001Y-86047203D01*
X200160001Y-86047204D01*
X200160000Y-86047204D01*
X200149500Y-86149983D01*
X181955824Y-86149983D01*
X181891232Y-86023212D01*
X181789414Y-85883072D01*
X181666928Y-85760586D01*
X181526788Y-85658768D01*
X181372445Y-85580127D01*
X181207701Y-85526598D01*
X181207699Y-85526597D01*
X181207698Y-85526597D01*
X181076271Y-85505781D01*
X181036611Y-85499500D01*
X181036610Y-85499500D01*
X180962230Y-85499500D01*
X180895191Y-85479815D01*
X180874549Y-85463181D01*
X180028421Y-84617052D01*
X180028420Y-84617051D01*
X179934523Y-84554312D01*
X179905495Y-84534916D01*
X179905488Y-84534912D01*
X179768917Y-84478343D01*
X179768907Y-84478340D01*
X179623920Y-84449500D01*
X179623918Y-84449500D01*
X175823917Y-84449500D01*
X175676082Y-84449500D01*
X175676080Y-84449500D01*
X175531092Y-84478340D01*
X175531082Y-84478343D01*
X175394511Y-84534912D01*
X175394498Y-84534919D01*
X175271584Y-84617048D01*
X175271580Y-84617051D01*
X174425451Y-85463181D01*
X174364128Y-85496666D01*
X174337770Y-85499500D01*
X165317748Y-85499500D01*
X165172760Y-85528340D01*
X165172750Y-85528343D01*
X165036177Y-85584913D01*
X165011409Y-85601463D01*
X164913247Y-85667051D01*
X164913246Y-85667052D01*
X164396285Y-86184015D01*
X164334962Y-86217500D01*
X164308604Y-86220334D01*
X164234223Y-86220334D01*
X164194562Y-86226615D01*
X164063136Y-86247431D01*
X164063133Y-86247432D01*
X163902886Y-86299500D01*
X163898386Y-86300962D01*
X163744045Y-86379602D01*
X163664090Y-86437693D01*
X163603906Y-86481420D01*
X163603904Y-86481422D01*
X163603903Y-86481422D01*
X163481422Y-86603903D01*
X163481422Y-86603904D01*
X163481420Y-86603906D01*
X163456428Y-86638305D01*
X163379602Y-86744045D01*
X163300962Y-86898386D01*
X163247431Y-87063136D01*
X163220334Y-87234223D01*
X162268813Y-87234223D01*
X153611819Y-78577229D01*
X153597115Y-78550301D01*
X153580523Y-78524483D01*
X153579631Y-78518282D01*
X153578334Y-78515906D01*
X153575500Y-78489548D01*
X153575500Y-78369021D01*
X153595185Y-78301982D01*
X153626616Y-78268702D01*
X153666924Y-78239417D01*
X153666924Y-78239416D01*
X153666928Y-78239414D01*
X153789414Y-78116928D01*
X153891232Y-77976788D01*
X153969873Y-77822445D01*
X154023402Y-77657701D01*
X154050500Y-77486611D01*
X154050500Y-77313389D01*
X154023402Y-77142299D01*
X153969873Y-76977555D01*
X153891232Y-76823212D01*
X153789414Y-76683072D01*
X153666928Y-76560586D01*
X153526788Y-76458768D01*
X153372445Y-76380127D01*
X153207701Y-76326598D01*
X153207699Y-76326597D01*
X153207698Y-76326597D01*
X153076271Y-76305781D01*
X153036611Y-76299500D01*
X152863389Y-76299500D01*
X152823728Y-76305781D01*
X152692302Y-76326597D01*
X152527552Y-76380128D01*
X152373211Y-76458768D01*
X152346320Y-76478306D01*
X152233072Y-76560586D01*
X152233070Y-76560588D01*
X152233069Y-76560588D01*
X152110588Y-76683069D01*
X152110588Y-76683070D01*
X152110586Y-76683072D01*
X152068305Y-76741267D01*
X152008768Y-76823211D01*
X151930128Y-76977552D01*
X151876597Y-77142302D01*
X151861225Y-77239360D01*
X151849500Y-77313389D01*
X151849500Y-77486611D01*
X151876598Y-77657701D01*
X151930127Y-77822445D01*
X152008768Y-77976788D01*
X152110586Y-78116928D01*
X152110588Y-78116930D01*
X152233075Y-78239417D01*
X152273384Y-78268702D01*
X152316050Y-78324031D01*
X152324500Y-78369021D01*
X152324500Y-78861611D01*
X152348535Y-78982444D01*
X152348540Y-78982461D01*
X152395685Y-79096280D01*
X152395687Y-79096283D01*
X152395688Y-79096286D01*
X152429915Y-79147509D01*
X152464142Y-79198733D01*
X152551267Y-79285858D01*
X152551270Y-79285860D01*
X152558554Y-79293144D01*
X152778945Y-79513535D01*
X152812430Y-79574858D01*
X152807446Y-79644550D01*
X152765574Y-79700483D01*
X152710664Y-79723689D01*
X152692300Y-79726597D01*
X152533488Y-79778199D01*
X152529913Y-79779361D01*
X152527552Y-79780128D01*
X152373211Y-79858768D01*
X152293256Y-79916859D01*
X152233072Y-79960586D01*
X152233070Y-79960588D01*
X152233069Y-79960588D01*
X152110588Y-80083069D01*
X152110588Y-80083070D01*
X152110586Y-80083072D01*
X152066859Y-80143256D01*
X152008768Y-80223211D01*
X151930128Y-80377552D01*
X151876597Y-80542302D01*
X151849500Y-80713389D01*
X151849500Y-80886611D01*
X151876598Y-81057701D01*
X151930127Y-81222445D01*
X152008768Y-81376788D01*
X152110586Y-81516928D01*
X152110588Y-81516930D01*
X152233075Y-81639417D01*
X152273384Y-81668702D01*
X152316050Y-81724031D01*
X152324500Y-81769021D01*
X152324500Y-82061611D01*
X152348537Y-82182455D01*
X152349183Y-82184584D01*
X152349193Y-82185752D01*
X152349725Y-82188425D01*
X152349217Y-82188525D01*
X152349800Y-82254451D01*
X152312545Y-82313560D01*
X152249248Y-82343144D01*
X152180004Y-82333811D01*
X152142838Y-82308248D01*
X150811819Y-80977229D01*
X150778334Y-80915906D01*
X150775500Y-80889548D01*
X150775500Y-70910451D01*
X150795185Y-70843412D01*
X150811814Y-70822775D01*
X155948729Y-65685860D01*
X155948733Y-65685858D01*
X156035858Y-65598733D01*
X156104311Y-65496286D01*
X156151463Y-65382452D01*
X156175500Y-65261606D01*
X156175500Y-63167483D01*
X173949500Y-63167483D01*
X173949500Y-65367501D01*
X173949501Y-65367518D01*
X173960000Y-65470296D01*
X173960001Y-65470299D01*
X174010962Y-65624087D01*
X174015186Y-65636834D01*
X174107288Y-65786156D01*
X174231344Y-65910212D01*
X174380666Y-66002314D01*
X174547203Y-66057499D01*
X174649991Y-66068000D01*
X176850008Y-66067999D01*
X176952797Y-66057499D01*
X177119334Y-66002314D01*
X177268656Y-65910212D01*
X177392712Y-65786156D01*
X177484814Y-65636834D01*
X177539999Y-65470297D01*
X177550500Y-65367509D01*
X177550499Y-64149495D01*
X178949500Y-64149495D01*
X178949500Y-64385504D01*
X178949501Y-64385520D01*
X178980306Y-64619510D01*
X179041394Y-64847493D01*
X179131714Y-65065545D01*
X179131719Y-65065556D01*
X179202677Y-65188457D01*
X179249727Y-65269950D01*
X179249729Y-65269953D01*
X179249730Y-65269954D01*
X179393406Y-65457197D01*
X179393412Y-65457204D01*
X179560295Y-65624087D01*
X179560302Y-65624093D01*
X179576909Y-65636836D01*
X179747550Y-65767773D01*
X179871631Y-65839411D01*
X179951943Y-65885780D01*
X179951948Y-65885782D01*
X179951951Y-65885784D01*
X180170007Y-65976106D01*
X180397986Y-66037193D01*
X180631989Y-66068000D01*
X180631996Y-66068000D01*
X180868004Y-66068000D01*
X180868011Y-66068000D01*
X181102014Y-66037193D01*
X181329993Y-65976106D01*
X181548049Y-65885784D01*
X181752450Y-65767773D01*
X181939699Y-65624092D01*
X182106592Y-65457199D01*
X182250273Y-65269950D01*
X182368284Y-65065549D01*
X182458606Y-64847493D01*
X182519693Y-64619514D01*
X182550500Y-64385511D01*
X182550500Y-64149489D01*
X182546186Y-64116723D01*
X183449500Y-64116723D01*
X183449500Y-64418276D01*
X183449501Y-64418293D01*
X183488861Y-64717266D01*
X183566913Y-65008560D01*
X183682314Y-65287161D01*
X183682318Y-65287171D01*
X183833099Y-65548331D01*
X184016679Y-65787578D01*
X184016685Y-65787585D01*
X184229914Y-66000814D01*
X184229921Y-66000820D01*
X184469168Y-66184400D01*
X184730328Y-66335181D01*
X184730329Y-66335181D01*
X184730332Y-66335183D01*
X184916072Y-66412119D01*
X185008939Y-66450586D01*
X185008940Y-66450586D01*
X185008942Y-66450587D01*
X185300232Y-66528638D01*
X185599217Y-66568000D01*
X185599224Y-66568000D01*
X185900776Y-66568000D01*
X185900783Y-66568000D01*
X186199768Y-66528638D01*
X186491058Y-66450587D01*
X186769668Y-66335183D01*
X187030832Y-66184400D01*
X187270080Y-66000819D01*
X187483319Y-65787580D01*
X187666900Y-65548332D01*
X187817683Y-65287168D01*
X187933087Y-65008558D01*
X188011138Y-64717268D01*
X188050500Y-64418283D01*
X188050500Y-64116717D01*
X188011138Y-63817732D01*
X187933087Y-63526442D01*
X187817683Y-63247832D01*
X187771292Y-63167481D01*
X187666900Y-62986668D01*
X187483320Y-62747421D01*
X187483314Y-62747414D01*
X187270085Y-62534185D01*
X187270078Y-62534179D01*
X187030831Y-62350599D01*
X186769671Y-62199818D01*
X186769661Y-62199814D01*
X186491060Y-62084413D01*
X186199766Y-62006361D01*
X185900793Y-61967001D01*
X185900788Y-61967000D01*
X185900783Y-61967000D01*
X185599217Y-61967000D01*
X185599211Y-61967000D01*
X185599206Y-61967001D01*
X185300233Y-62006361D01*
X185008939Y-62084413D01*
X184730338Y-62199814D01*
X184730328Y-62199818D01*
X184469168Y-62350599D01*
X184229921Y-62534179D01*
X184229914Y-62534185D01*
X184016685Y-62747414D01*
X184016679Y-62747421D01*
X183833099Y-62986668D01*
X183682318Y-63247828D01*
X183682314Y-63247838D01*
X183566913Y-63526439D01*
X183488861Y-63817733D01*
X183449501Y-64116706D01*
X183449500Y-64116723D01*
X182546186Y-64116723D01*
X182546185Y-64116717D01*
X182521156Y-63926598D01*
X182519693Y-63915486D01*
X182458606Y-63687507D01*
X182368284Y-63469451D01*
X182368282Y-63469448D01*
X182368280Y-63469443D01*
X182326118Y-63396418D01*
X182250273Y-63265050D01*
X182106592Y-63077801D01*
X182106587Y-63077795D01*
X181939704Y-62910912D01*
X181939697Y-62910906D01*
X181752454Y-62767230D01*
X181752453Y-62767229D01*
X181752450Y-62767227D01*
X181642446Y-62703716D01*
X181548056Y-62649219D01*
X181548045Y-62649214D01*
X181329993Y-62558894D01*
X181162977Y-62514142D01*
X181102014Y-62497807D01*
X181102013Y-62497806D01*
X181102010Y-62497806D01*
X180868020Y-62467001D01*
X180868017Y-62467000D01*
X180868011Y-62467000D01*
X180631989Y-62467000D01*
X180631983Y-62467000D01*
X180631979Y-62467001D01*
X180397989Y-62497806D01*
X180170006Y-62558894D01*
X179951954Y-62649214D01*
X179951943Y-62649219D01*
X179747545Y-62767230D01*
X179560302Y-62910906D01*
X179560295Y-62910912D01*
X179393412Y-63077795D01*
X179393406Y-63077802D01*
X179249730Y-63265045D01*
X179131719Y-63469443D01*
X179131714Y-63469454D01*
X179041394Y-63687506D01*
X178980306Y-63915489D01*
X178949501Y-64149479D01*
X178949500Y-64149495D01*
X177550499Y-64149495D01*
X177550499Y-63167492D01*
X177539999Y-63064703D01*
X177484814Y-62898166D01*
X177392712Y-62748844D01*
X177268656Y-62624788D01*
X177161824Y-62558894D01*
X177119336Y-62532687D01*
X177119331Y-62532685D01*
X177117862Y-62532198D01*
X176952797Y-62477501D01*
X176952795Y-62477500D01*
X176850010Y-62467000D01*
X174649998Y-62467000D01*
X174649981Y-62467001D01*
X174547203Y-62477500D01*
X174547200Y-62477501D01*
X174380668Y-62532685D01*
X174380663Y-62532687D01*
X174231342Y-62624789D01*
X174107289Y-62748842D01*
X174015187Y-62898163D01*
X174015185Y-62898168D01*
X174010962Y-62910912D01*
X173960001Y-63064703D01*
X173960001Y-63064704D01*
X173960000Y-63064704D01*
X173949500Y-63167483D01*
X156175500Y-63167483D01*
X156175500Y-62938394D01*
X156151463Y-62817548D01*
X156104311Y-62703714D01*
X156104310Y-62703713D01*
X156104307Y-62703707D01*
X156035858Y-62601267D01*
X156035855Y-62601263D01*
X155945637Y-62511045D01*
X155945606Y-62511016D01*
X154843150Y-61408560D01*
X154835860Y-61401270D01*
X154835858Y-61401267D01*
X154748733Y-61314142D01*
X154697509Y-61279915D01*
X154646286Y-61245688D01*
X154646283Y-61245686D01*
X154646280Y-61245685D01*
X154572603Y-61215168D01*
X154572601Y-61215167D01*
X154565792Y-61212347D01*
X154532452Y-61198537D01*
X154472029Y-61186518D01*
X154467306Y-61185578D01*
X154467304Y-61185578D01*
X154411610Y-61174500D01*
X154411607Y-61174500D01*
X154411606Y-61174500D01*
X145251606Y-61174500D01*
X145128393Y-61174500D01*
X145128389Y-61174500D01*
X145072697Y-61185578D01*
X145067971Y-61186518D01*
X145024743Y-61195116D01*
X145007546Y-61198537D01*
X144893716Y-61245687D01*
X144893707Y-61245692D01*
X144791268Y-61314140D01*
X144747705Y-61357703D01*
X144704142Y-61401267D01*
X118812181Y-87293228D01*
X118750858Y-87326713D01*
X118681166Y-87321729D01*
X118625233Y-87279857D01*
X118600816Y-87214393D01*
X118600500Y-87205547D01*
X118600500Y-87200639D01*
X118591260Y-87142299D01*
X118569413Y-87004364D01*
X118521760Y-86857701D01*
X118508006Y-86815370D01*
X118508005Y-86815367D01*
X118442399Y-86686610D01*
X118417787Y-86638306D01*
X118300981Y-86477536D01*
X118160464Y-86337019D01*
X117999694Y-86220213D01*
X117843218Y-86140484D01*
X117792423Y-86092510D01*
X117775628Y-86024689D01*
X117798165Y-85958554D01*
X117843218Y-85919515D01*
X117999694Y-85839787D01*
X118160464Y-85722981D01*
X118300981Y-85582464D01*
X118417787Y-85421694D01*
X118508005Y-85244632D01*
X118569413Y-85055636D01*
X118600500Y-84859361D01*
X118600500Y-84660639D01*
X118569413Y-84464364D01*
X118508005Y-84275368D01*
X118508005Y-84275367D01*
X118442352Y-84146518D01*
X118417787Y-84098306D01*
X118300981Y-83937536D01*
X118160464Y-83797019D01*
X117999694Y-83680213D01*
X117843218Y-83600484D01*
X117792423Y-83552510D01*
X117775628Y-83484689D01*
X117798165Y-83418554D01*
X117843218Y-83379515D01*
X117999694Y-83299787D01*
X118160464Y-83182981D01*
X118300981Y-83042464D01*
X118417787Y-82881694D01*
X118508005Y-82704632D01*
X118569413Y-82515636D01*
X118600500Y-82319361D01*
X118600500Y-82120639D01*
X118569413Y-81924364D01*
X118534703Y-81817538D01*
X118508006Y-81735370D01*
X118508005Y-81735367D01*
X118439677Y-81601267D01*
X118417787Y-81558306D01*
X118300981Y-81397536D01*
X118160464Y-81257019D01*
X117999694Y-81140213D01*
X117843218Y-81060484D01*
X117792423Y-81012510D01*
X117775628Y-80944689D01*
X117798165Y-80878554D01*
X117843218Y-80839515D01*
X117999694Y-80759787D01*
X118160464Y-80642981D01*
X118300981Y-80502464D01*
X118417787Y-80341694D01*
X118508005Y-80164632D01*
X118569413Y-79975636D01*
X118600500Y-79779361D01*
X118600500Y-79580639D01*
X118569413Y-79384364D01*
X118537407Y-79285858D01*
X118508006Y-79195370D01*
X118508005Y-79195367D01*
X118462035Y-79105149D01*
X118417787Y-79018306D01*
X118300981Y-78857536D01*
X118160464Y-78717019D01*
X117999694Y-78600213D01*
X117843218Y-78520484D01*
X117792423Y-78472510D01*
X117775628Y-78404689D01*
X117798165Y-78338554D01*
X117843218Y-78299515D01*
X117999694Y-78219787D01*
X118160464Y-78102981D01*
X118300981Y-77962464D01*
X118417787Y-77801694D01*
X118508005Y-77624632D01*
X118569413Y-77435636D01*
X118600500Y-77239361D01*
X118600500Y-77040639D01*
X118569413Y-76844364D01*
X118535915Y-76741267D01*
X118508006Y-76655370D01*
X118508005Y-76655367D01*
X118442352Y-76526518D01*
X118417787Y-76478306D01*
X118300981Y-76317536D01*
X118160464Y-76177019D01*
X117999694Y-76060213D01*
X117843218Y-75980484D01*
X117792423Y-75932510D01*
X117775628Y-75864689D01*
X117798165Y-75798554D01*
X117843218Y-75759515D01*
X117999694Y-75679787D01*
X118160464Y-75562981D01*
X118300981Y-75422464D01*
X118417787Y-75261694D01*
X118508005Y-75084632D01*
X118569413Y-74895636D01*
X118600500Y-74699361D01*
X118600500Y-74500639D01*
X118569413Y-74304364D01*
X118508005Y-74115368D01*
X118508005Y-74115367D01*
X118417786Y-73938305D01*
X118300981Y-73777536D01*
X118160464Y-73637019D01*
X117999694Y-73520213D01*
X117988121Y-73514316D01*
X117822632Y-73429994D01*
X117822629Y-73429993D01*
X117633637Y-73368587D01*
X117443005Y-73338394D01*
X117437361Y-73337500D01*
X116862639Y-73337500D01*
X116856995Y-73338394D01*
X116666362Y-73368587D01*
X116477370Y-73429993D01*
X116477367Y-73429994D01*
X116300305Y-73520213D01*
X116139533Y-73637021D01*
X115999021Y-73777533D01*
X115882213Y-73938305D01*
X115791994Y-74115367D01*
X115791993Y-74115370D01*
X115730587Y-74304362D01*
X115699500Y-74500639D01*
X98250500Y-74500639D01*
X98250500Y-57099983D01*
X152699500Y-57099983D01*
X152699500Y-58700001D01*
X152699501Y-58700018D01*
X152710000Y-58802796D01*
X152710001Y-58802799D01*
X152744031Y-58905493D01*
X152765186Y-58969334D01*
X152857288Y-59118656D01*
X152981344Y-59242712D01*
X153130666Y-59334814D01*
X153297203Y-59389999D01*
X153399991Y-59400500D01*
X154700008Y-59400499D01*
X154802797Y-59389999D01*
X154969334Y-59334814D01*
X155118656Y-59242712D01*
X155242712Y-59118656D01*
X155334814Y-58969334D01*
X155334814Y-58969331D01*
X155338448Y-58963441D01*
X155390395Y-58916716D01*
X155459358Y-58905493D01*
X155523440Y-58933336D01*
X155531668Y-58940856D01*
X155670535Y-59079723D01*
X155670540Y-59079727D01*
X155842442Y-59204620D01*
X156031782Y-59301095D01*
X156233871Y-59366757D01*
X156300000Y-59377231D01*
X156300000Y-58333012D01*
X156357007Y-58365925D01*
X156484174Y-58400000D01*
X156615826Y-58400000D01*
X156742993Y-58365925D01*
X156800000Y-58333012D01*
X156800000Y-59377230D01*
X156866126Y-59366757D01*
X156866129Y-59366757D01*
X157068217Y-59301095D01*
X157257557Y-59204620D01*
X157429459Y-59079727D01*
X157429464Y-59079723D01*
X157579723Y-58929464D01*
X157579727Y-58929459D01*
X157704620Y-58757557D01*
X157801095Y-58568217D01*
X157866757Y-58366130D01*
X157866757Y-58366127D01*
X157900000Y-58156246D01*
X157900000Y-58150000D01*
X156983012Y-58150000D01*
X157015925Y-58092993D01*
X157050000Y-57965826D01*
X157050000Y-57834174D01*
X157015925Y-57707007D01*
X156983012Y-57650000D01*
X157900000Y-57650000D01*
X157900000Y-57643753D01*
X157866757Y-57433872D01*
X157866757Y-57433869D01*
X157801095Y-57231782D01*
X157704620Y-57042442D01*
X157579727Y-56870540D01*
X157579723Y-56870535D01*
X157429464Y-56720276D01*
X157429459Y-56720272D01*
X157257557Y-56595379D01*
X157068215Y-56498903D01*
X156866124Y-56433241D01*
X156800000Y-56422768D01*
X156800000Y-57466988D01*
X156742993Y-57434075D01*
X156615826Y-57400000D01*
X156484174Y-57400000D01*
X156357007Y-57434075D01*
X156300000Y-57466988D01*
X156300000Y-56422768D01*
X156299999Y-56422768D01*
X156233875Y-56433241D01*
X156031784Y-56498903D01*
X155842442Y-56595379D01*
X155670541Y-56720271D01*
X155531668Y-56859144D01*
X155470345Y-56892628D01*
X155400653Y-56887644D01*
X155344720Y-56845772D01*
X155338448Y-56836558D01*
X155242712Y-56681344D01*
X155118657Y-56557289D01*
X155118656Y-56557288D01*
X154969334Y-56465186D01*
X154802797Y-56410001D01*
X154802795Y-56410000D01*
X154700010Y-56399500D01*
X153399998Y-56399500D01*
X153399981Y-56399501D01*
X153297203Y-56410000D01*
X153297200Y-56410001D01*
X153130668Y-56465185D01*
X153130663Y-56465187D01*
X152981342Y-56557289D01*
X152857289Y-56681342D01*
X152765187Y-56830663D01*
X152765185Y-56830668D01*
X152760180Y-56845772D01*
X152710001Y-56997203D01*
X152710001Y-56997204D01*
X152710000Y-56997204D01*
X152699500Y-57099983D01*
X98250500Y-57099983D01*
X98250500Y-56002706D01*
X98250618Y-55997297D01*
X98253377Y-55934108D01*
X98267387Y-55613224D01*
X98268325Y-55602496D01*
X98318151Y-55224032D01*
X98320024Y-55213402D01*
X98402648Y-54840714D01*
X98405446Y-54830276D01*
X98520230Y-54466227D01*
X98523917Y-54456095D01*
X98670003Y-54103412D01*
X98674561Y-54093638D01*
X98850822Y-53755045D01*
X98856217Y-53745700D01*
X99061325Y-53423744D01*
X99067515Y-53414905D01*
X99299896Y-53112060D01*
X99306834Y-53103791D01*
X99564726Y-52822352D01*
X99572352Y-52814726D01*
X99853791Y-52556834D01*
X99862060Y-52549896D01*
X100164905Y-52317515D01*
X100173744Y-52311325D01*
X100495700Y-52106217D01*
X100505045Y-52100822D01*
X100843638Y-51924561D01*
X100853412Y-51920003D01*
X101206095Y-51773917D01*
X101216227Y-51770230D01*
X101580285Y-51655443D01*
X101590714Y-51652648D01*
X101963402Y-51570024D01*
X101974032Y-51568151D01*
X102352496Y-51518325D01*
X102363224Y-51517387D01*
X102747297Y-51500617D01*
X102752706Y-51500500D01*
X102815892Y-51500500D01*
X202684108Y-51500500D01*
X202747294Y-51500500D01*
X202752702Y-51500617D01*
G37*
%TD.AperFunction*%
%TD*%
M02*
