%TF.GenerationSoftware,KiCad,Pcbnew,10.0.4*%
%TF.CreationDate,2026-07-18T17:24:23-04:00*%
%TF.ProjectId,bench-psu-monitor,62656e63-682d-4707-9375-2d6d6f6e6974,rev?*%
%TF.SameCoordinates,Original*%
%TF.FileFunction,Soldermask,Top*%
%TF.FilePolarity,Negative*%
%FSLAX46Y46*%
G04 Gerber Fmt 4.6, Leading zero omitted, Abs format (unit mm)*
G04 Created by KiCad (PCBNEW 10.0.4) date 2026-07-18 17:24:23*
%MOMM*%
%LPD*%
G01*
G04 APERTURE LIST*
G04 Aperture macros list*
%AMRoundRect*
0 Rectangle with rounded corners*
0 $1 Rounding radius*
0 $2 $3 $4 $5 $6 $7 $8 $9 X,Y pos of 4 corners*
0 Add a 4 corners polygon primitive as box body*
4,1,4,$2,$3,$4,$5,$6,$7,$8,$9,$2,$3,0*
0 Add four circle primitives for the rounded corners*
1,1,$1+$1,$2,$3*
1,1,$1+$1,$4,$5*
1,1,$1+$1,$6,$7*
1,1,$1+$1,$8,$9*
0 Add four rect primitives between the rounded corners*
20,1,$1+$1,$2,$3,$4,$5,0*
20,1,$1+$1,$4,$5,$6,$7,0*
20,1,$1+$1,$6,$7,$8,$9,0*
20,1,$1+$1,$8,$9,$2,$3,0*%
%AMFreePoly0*
4,1,23,0.500000,-0.750000,0.000000,-0.750000,0.000000,-0.745722,-0.065263,-0.745722,-0.191342,-0.711940,-0.304381,-0.646677,-0.396677,-0.554381,-0.461940,-0.441342,-0.495722,-0.315263,-0.495722,-0.250000,-0.500000,-0.250000,-0.500000,0.250000,-0.495722,0.250000,-0.495722,0.315263,-0.461940,0.441342,-0.396677,0.554381,-0.304381,0.646677,-0.191342,0.711940,-0.065263,0.745722,0.000000,0.745722,
0.000000,0.750000,0.500000,0.750000,0.500000,-0.750000,0.500000,-0.750000,$1*%
%AMFreePoly1*
4,1,23,0.000000,0.745722,0.065263,0.745722,0.191342,0.711940,0.304381,0.646677,0.396677,0.554381,0.461940,0.441342,0.495722,0.315263,0.495722,0.250000,0.500000,0.250000,0.500000,-0.250000,0.495722,-0.250000,0.495722,-0.315263,0.461940,-0.441342,0.396677,-0.554381,0.304381,-0.646677,0.191342,-0.711940,0.065263,-0.745722,0.000000,-0.745722,0.000000,-0.750000,-0.500000,-0.750000,
-0.500000,0.750000,0.000000,0.750000,0.000000,0.745722,0.000000,0.745722,$1*%
G04 Aperture macros list end*
%ADD10C,0.760000*%
%ADD11R,1.700000X1.700000*%
%ADD12C,1.700000*%
%ADD13RoundRect,0.250000X0.650000X-0.325000X0.650000X0.325000X-0.650000X0.325000X-0.650000X-0.325000X0*%
%ADD14RoundRect,0.200000X0.275000X-0.200000X0.275000X0.200000X-0.275000X0.200000X-0.275000X-0.200000X0*%
%ADD15C,7.000000*%
%ADD16RoundRect,0.250000X0.312500X0.625000X-0.312500X0.625000X-0.312500X-0.625000X0.312500X-0.625000X0*%
%ADD17RoundRect,0.087500X-0.087500X0.425000X-0.087500X-0.425000X0.087500X-0.425000X0.087500X0.425000X0*%
%ADD18RoundRect,0.087500X-0.425000X0.087500X-0.425000X-0.087500X0.425000X-0.087500X0.425000X0.087500X0*%
%ADD19R,2.100000X2.100000*%
%ADD20RoundRect,0.250000X-0.600000X-0.750000X0.600000X-0.750000X0.600000X0.750000X-0.600000X0.750000X0*%
%ADD21O,1.700000X2.000000*%
%ADD22RoundRect,0.200000X0.200000X0.275000X-0.200000X0.275000X-0.200000X-0.275000X0.200000X-0.275000X0*%
%ADD23RoundRect,0.250000X0.362500X1.425000X-0.362500X1.425000X-0.362500X-1.425000X0.362500X-1.425000X0*%
%ADD24RoundRect,0.250000X-0.312500X-0.625000X0.312500X-0.625000X0.312500X0.625000X-0.312500X0.625000X0*%
%ADD25RoundRect,0.250000X0.325000X0.650000X-0.325000X0.650000X-0.325000X-0.650000X0.325000X-0.650000X0*%
%ADD26RoundRect,0.250000X-0.325000X-0.650000X0.325000X-0.650000X0.325000X0.650000X-0.325000X0.650000X0*%
%ADD27RoundRect,0.200000X-0.275000X0.200000X-0.275000X-0.200000X0.275000X-0.200000X0.275000X0.200000X0*%
%ADD28RoundRect,0.250000X-0.650000X0.325000X-0.650000X-0.325000X0.650000X-0.325000X0.650000X0.325000X0*%
%ADD29O,1.900000X1.524000*%
%ADD30RoundRect,0.250000X-1.050000X1.050000X-1.050000X-1.050000X1.050000X-1.050000X1.050000X1.050000X0*%
%ADD31C,2.600000*%
%ADD32RoundRect,0.250000X0.600000X0.750000X-0.600000X0.750000X-0.600000X-0.750000X0.600000X-0.750000X0*%
%ADD33RoundRect,0.250000X1.050000X1.050000X-1.050000X1.050000X-1.050000X-1.050000X1.050000X-1.050000X0*%
%ADD34FreePoly0,180.000000*%
%ADD35FreePoly1,180.000000*%
%ADD36RoundRect,0.250000X-1.425000X0.362500X-1.425000X-0.362500X1.425000X-0.362500X1.425000X0.362500X0*%
%ADD37RoundRect,0.250000X-0.362500X-1.425000X0.362500X-1.425000X0.362500X1.425000X-0.362500X1.425000X0*%
%ADD38RoundRect,0.250000X-1.050000X-1.050000X1.050000X-1.050000X1.050000X1.050000X-1.050000X1.050000X0*%
G04 APERTURE END LIST*
D10*
G36*
X116582045Y-59978209D02*
G01*
X116825921Y-60222085D01*
X116969999Y-60798397D01*
X116969999Y-61971506D01*
X116825921Y-62547818D01*
X116582045Y-62791694D01*
X116355530Y-62904952D01*
X115811133Y-62904952D01*
X115584620Y-62791695D01*
X115340743Y-62547818D01*
X115196666Y-61971506D01*
X115196666Y-60798397D01*
X115340743Y-60222085D01*
X115584620Y-59978208D01*
X115811133Y-59864952D01*
X116355530Y-59864952D01*
X116582045Y-59978209D01*
G37*
G36*
X129248711Y-59978209D02*
G01*
X129492587Y-60222085D01*
X129636665Y-60798397D01*
X129636665Y-61971506D01*
X129492587Y-62547818D01*
X129248711Y-62791694D01*
X129022196Y-62904952D01*
X128477799Y-62904952D01*
X128251286Y-62791695D01*
X128007409Y-62547818D01*
X127863332Y-61971506D01*
X127863332Y-60798397D01*
X128007409Y-60222085D01*
X128251286Y-59978208D01*
X128477799Y-59864952D01*
X129022196Y-59864952D01*
X129248711Y-59978209D01*
G37*
G36*
X133229663Y-59978209D02*
G01*
X133323409Y-60071954D01*
X133436665Y-60298466D01*
X133436665Y-60661914D01*
X133323409Y-60888425D01*
X133229663Y-60982170D01*
X133003148Y-61095428D01*
X132025236Y-61095428D01*
X132025236Y-59864952D01*
X133003148Y-59864952D01*
X133229663Y-59978209D01*
G37*
G36*
X112259017Y-55689774D02*
G01*
X112332932Y-55763688D01*
X112446190Y-55990203D01*
X112446190Y-56353649D01*
X112332932Y-56580164D01*
X112239188Y-56673907D01*
X112012673Y-56787165D01*
X111034761Y-56787165D01*
X111034761Y-55556689D01*
X111859762Y-55556689D01*
X112259017Y-55689774D01*
G37*
G36*
X112058237Y-53860422D02*
G01*
X112151980Y-53954165D01*
X112265238Y-54180680D01*
X112265238Y-54363173D01*
X112151980Y-54589687D01*
X112058235Y-54683431D01*
X111831722Y-54796689D01*
X111034761Y-54796689D01*
X111034761Y-53747165D01*
X111831721Y-53747165D01*
X112058237Y-53860422D01*
G37*
G36*
X134134425Y-53860422D02*
G01*
X134228171Y-53954167D01*
X134341427Y-54180679D01*
X134341427Y-54544127D01*
X134228171Y-54770638D01*
X134134425Y-54864383D01*
X133907910Y-54977641D01*
X132929998Y-54977641D01*
X132929998Y-53747165D01*
X133907910Y-53747165D01*
X134134425Y-53860422D01*
G37*
G36*
X142942697Y-64087174D02*
G01*
X109852539Y-64087174D01*
X109852539Y-59484952D01*
X110274761Y-59484952D01*
X110274761Y-63284952D01*
X110278012Y-63334552D01*
X110303687Y-63430372D01*
X110353287Y-63516281D01*
X110423432Y-63586426D01*
X110509341Y-63636026D01*
X110605161Y-63661701D01*
X110704361Y-63661701D01*
X110800181Y-63636026D01*
X110886090Y-63586426D01*
X110956235Y-63516281D01*
X111005835Y-63430372D01*
X111031510Y-63334552D01*
X111034761Y-63284952D01*
X111034761Y-61197826D01*
X111577078Y-62359934D01*
X111582707Y-62370188D01*
X111584313Y-62374603D01*
X111588110Y-62380030D01*
X111600999Y-62403506D01*
X111622247Y-62428813D01*
X111641187Y-62455879D01*
X111654015Y-62466649D01*
X111664787Y-62479479D01*
X111691857Y-62498421D01*
X111717160Y-62519666D01*
X111732340Y-62526750D01*
X111746063Y-62536353D01*
X111777106Y-62547641D01*
X111807053Y-62561617D01*
X111823552Y-62564531D01*
X111839290Y-62570254D01*
X111872200Y-62573123D01*
X111904741Y-62578871D01*
X111921427Y-62577415D01*
X111938115Y-62578871D01*
X111970652Y-62573123D01*
X112003565Y-62570254D01*
X112019306Y-62564529D01*
X112035803Y-62561616D01*
X112065744Y-62547643D01*
X112096793Y-62536353D01*
X112110516Y-62526749D01*
X112125696Y-62519666D01*
X112150998Y-62498421D01*
X112178069Y-62479479D01*
X112188840Y-62466650D01*
X112201669Y-62455879D01*
X112220611Y-62428808D01*
X112241856Y-62403506D01*
X112254742Y-62380033D01*
X112258543Y-62374603D01*
X112260148Y-62370187D01*
X112265778Y-62359934D01*
X112808095Y-61197825D01*
X112808095Y-63284952D01*
X112811346Y-63334552D01*
X112837021Y-63430372D01*
X112886621Y-63516281D01*
X112956766Y-63586426D01*
X113042675Y-63636026D01*
X113138495Y-63661701D01*
X113237695Y-63661701D01*
X113333515Y-63636026D01*
X113419424Y-63586426D01*
X113489569Y-63516281D01*
X113539169Y-63430372D01*
X113564844Y-63334552D01*
X113568095Y-63284952D01*
X113568095Y-60751619D01*
X114436666Y-60751619D01*
X114436666Y-62018285D01*
X114439210Y-62057107D01*
X114439136Y-62061541D01*
X114439707Y-62064690D01*
X114439917Y-62067885D01*
X114441064Y-62072168D01*
X114448012Y-62110448D01*
X114628964Y-62834258D01*
X114644147Y-62881589D01*
X114645711Y-62884407D01*
X114646544Y-62887514D01*
X114669746Y-62927702D01*
X114692296Y-62968321D01*
X114694534Y-62970635D01*
X114696144Y-62973424D01*
X114728917Y-63010796D01*
X115090822Y-63372701D01*
X115128194Y-63405474D01*
X115138104Y-63411196D01*
X115146672Y-63418793D01*
X115189582Y-63443883D01*
X115551487Y-63624835D01*
X115570418Y-63632798D01*
X115576008Y-63636026D01*
X115581743Y-63637562D01*
X115597305Y-63644109D01*
X115634834Y-63651788D01*
X115671828Y-63661701D01*
X115688670Y-63662804D01*
X115694491Y-63663996D01*
X115700938Y-63663608D01*
X115721428Y-63664952D01*
X116445237Y-63664952D01*
X116465726Y-63663608D01*
X116472174Y-63663996D01*
X116477994Y-63662804D01*
X116494837Y-63661701D01*
X116531839Y-63651786D01*
X116569360Y-63644108D01*
X116584917Y-63637563D01*
X116590657Y-63636026D01*
X116596249Y-63632797D01*
X116615178Y-63624835D01*
X116977083Y-63443882D01*
X117019993Y-63418793D01*
X117028560Y-63411195D01*
X117038471Y-63405474D01*
X117075843Y-63372701D01*
X117437748Y-63010796D01*
X117470521Y-62973424D01*
X117472130Y-62970635D01*
X117474369Y-62968321D01*
X117496918Y-62927702D01*
X117520121Y-62887514D01*
X117520953Y-62884407D01*
X117522518Y-62881589D01*
X117537701Y-62834258D01*
X117718653Y-62110448D01*
X117725600Y-62072168D01*
X117726748Y-62067885D01*
X117726957Y-62064690D01*
X117727529Y-62061541D01*
X117727454Y-62057107D01*
X117729999Y-62018285D01*
X117729999Y-60751619D01*
X117727454Y-60712796D01*
X117727529Y-60708363D01*
X117726957Y-60705213D01*
X117726748Y-60702019D01*
X117725600Y-60697735D01*
X117718653Y-60659456D01*
X117537701Y-59935646D01*
X117522518Y-59888315D01*
X117520953Y-59885496D01*
X117520121Y-59882390D01*
X117496918Y-59842201D01*
X117474369Y-59801583D01*
X117472130Y-59799268D01*
X117470521Y-59796480D01*
X117437748Y-59759108D01*
X117163592Y-59484952D01*
X118598570Y-59484952D01*
X118598570Y-63284952D01*
X118601821Y-63334552D01*
X118627496Y-63430372D01*
X118677096Y-63516281D01*
X118747241Y-63586426D01*
X118833150Y-63636026D01*
X118928970Y-63661701D01*
X119028170Y-63661701D01*
X119123990Y-63636026D01*
X119209899Y-63586426D01*
X119280044Y-63516281D01*
X119329644Y-63430372D01*
X119355319Y-63334552D01*
X119358570Y-63284952D01*
X119358570Y-60915866D01*
X120820066Y-63473484D01*
X120847498Y-63514936D01*
X120848097Y-63515541D01*
X120848525Y-63516281D01*
X120883028Y-63550784D01*
X120917330Y-63585393D01*
X120918066Y-63585822D01*
X120918670Y-63586426D01*
X120960974Y-63610850D01*
X121003017Y-63635374D01*
X121003837Y-63635597D01*
X121004579Y-63636026D01*
X121051821Y-63648684D01*
X121098722Y-63661476D01*
X121099573Y-63661479D01*
X121100399Y-63661701D01*
X121149219Y-63661701D01*
X121197920Y-63661918D01*
X121198745Y-63661701D01*
X121199599Y-63661701D01*
X121246749Y-63649066D01*
X121293854Y-63636670D01*
X121294594Y-63636246D01*
X121295419Y-63636026D01*
X121337638Y-63611650D01*
X121379984Y-63587453D01*
X121380590Y-63586851D01*
X121381328Y-63586426D01*
X121415776Y-63551977D01*
X121450440Y-63517621D01*
X121450869Y-63516884D01*
X121451473Y-63516281D01*
X121475876Y-63474012D01*
X121500422Y-63431933D01*
X121500646Y-63431111D01*
X121501073Y-63430372D01*
X121513719Y-63383174D01*
X121526523Y-63336228D01*
X121526526Y-63335377D01*
X121526748Y-63334552D01*
X121529999Y-63284952D01*
X121529999Y-59484952D01*
X122579522Y-59484952D01*
X122579522Y-63284952D01*
X122582773Y-63334552D01*
X122608448Y-63430372D01*
X122658048Y-63516281D01*
X122728193Y-63586426D01*
X122814102Y-63636026D01*
X122909922Y-63661701D01*
X123009122Y-63661701D01*
X123104942Y-63636026D01*
X123190851Y-63586426D01*
X123260996Y-63516281D01*
X123310596Y-63430372D01*
X123336271Y-63334552D01*
X123339522Y-63284952D01*
X123339522Y-59484952D01*
X123336271Y-59435352D01*
X123849440Y-59435352D01*
X123849440Y-59534552D01*
X123875115Y-59630372D01*
X123924715Y-59716281D01*
X123994860Y-59786426D01*
X124080769Y-59836026D01*
X124176589Y-59861701D01*
X124226189Y-59864952D01*
X124931904Y-59864952D01*
X124931904Y-63284952D01*
X124935155Y-63334552D01*
X124960830Y-63430372D01*
X125010430Y-63516281D01*
X125080575Y-63586426D01*
X125166484Y-63636026D01*
X125262304Y-63661701D01*
X125361504Y-63661701D01*
X125457324Y-63636026D01*
X125543233Y-63586426D01*
X125613378Y-63516281D01*
X125662978Y-63430372D01*
X125688653Y-63334552D01*
X125691904Y-63284952D01*
X125691904Y-60751619D01*
X127103332Y-60751619D01*
X127103332Y-62018285D01*
X127105876Y-62057107D01*
X127105802Y-62061541D01*
X127106373Y-62064690D01*
X127106583Y-62067885D01*
X127107730Y-62072168D01*
X127114678Y-62110448D01*
X127295630Y-62834258D01*
X127310813Y-62881589D01*
X127312377Y-62884407D01*
X127313210Y-62887514D01*
X127336412Y-62927702D01*
X127358962Y-62968321D01*
X127361200Y-62970635D01*
X127362810Y-62973424D01*
X127395583Y-63010796D01*
X127757488Y-63372701D01*
X127794860Y-63405474D01*
X127804770Y-63411196D01*
X127813338Y-63418793D01*
X127856248Y-63443883D01*
X128218153Y-63624835D01*
X128237084Y-63632798D01*
X128242674Y-63636026D01*
X128248409Y-63637562D01*
X128263971Y-63644109D01*
X128301500Y-63651788D01*
X128338494Y-63661701D01*
X128355336Y-63662804D01*
X128361157Y-63663996D01*
X128367604Y-63663608D01*
X128388094Y-63664952D01*
X129111903Y-63664952D01*
X129132392Y-63663608D01*
X129138840Y-63663996D01*
X129144660Y-63662804D01*
X129161503Y-63661701D01*
X129198505Y-63651786D01*
X129236026Y-63644108D01*
X129251583Y-63637563D01*
X129257323Y-63636026D01*
X129262915Y-63632797D01*
X129281844Y-63624835D01*
X129643749Y-63443882D01*
X129686659Y-63418793D01*
X129695226Y-63411195D01*
X129705137Y-63405474D01*
X129742509Y-63372701D01*
X130104414Y-63010796D01*
X130137187Y-62973424D01*
X130138796Y-62970635D01*
X130141035Y-62968321D01*
X130163584Y-62927702D01*
X130186787Y-62887514D01*
X130187619Y-62884407D01*
X130189184Y-62881589D01*
X130204367Y-62834258D01*
X130385319Y-62110448D01*
X130392266Y-62072168D01*
X130393414Y-62067885D01*
X130393623Y-62064690D01*
X130394195Y-62061541D01*
X130394120Y-62057107D01*
X130396665Y-62018285D01*
X130396665Y-60751619D01*
X130394120Y-60712796D01*
X130394195Y-60708363D01*
X130393623Y-60705213D01*
X130393414Y-60702019D01*
X130392266Y-60697735D01*
X130385319Y-60659456D01*
X130204367Y-59935646D01*
X130189184Y-59888315D01*
X130187619Y-59885496D01*
X130186787Y-59882390D01*
X130163584Y-59842201D01*
X130141035Y-59801583D01*
X130138796Y-59799268D01*
X130137187Y-59796480D01*
X130104414Y-59759108D01*
X129830258Y-59484952D01*
X131265236Y-59484952D01*
X131265236Y-63284952D01*
X131268487Y-63334552D01*
X131294162Y-63430372D01*
X131343762Y-63516281D01*
X131413907Y-63586426D01*
X131499816Y-63636026D01*
X131595636Y-63661701D01*
X131694836Y-63661701D01*
X131790656Y-63636026D01*
X131876565Y-63586426D01*
X131946710Y-63516281D01*
X131996310Y-63430372D01*
X132021985Y-63334552D01*
X132025236Y-63284952D01*
X132025236Y-61855428D01*
X132352149Y-61855428D01*
X133505357Y-63502868D01*
X133536464Y-63541638D01*
X133612447Y-63605413D01*
X133702347Y-63647348D01*
X133800037Y-63664588D01*
X133898860Y-63655956D01*
X133992083Y-63622041D01*
X134073350Y-63565153D01*
X134137126Y-63489170D01*
X134179061Y-63399271D01*
X134196301Y-63301580D01*
X134187669Y-63202757D01*
X134153754Y-63109535D01*
X134127973Y-63067037D01*
X133254274Y-61818895D01*
X133262796Y-61815311D01*
X133624701Y-61634358D01*
X133667611Y-61609269D01*
X133676178Y-61601671D01*
X133686089Y-61595950D01*
X133723461Y-61563177D01*
X133904413Y-61382224D01*
X133937187Y-61344852D01*
X133942909Y-61334941D01*
X133950506Y-61326374D01*
X133975595Y-61283464D01*
X134156547Y-60921560D01*
X134164508Y-60902634D01*
X134167739Y-60897039D01*
X134169277Y-60891298D01*
X134175821Y-60875743D01*
X134183499Y-60838219D01*
X134193414Y-60801219D01*
X134194517Y-60784376D01*
X134195709Y-60778556D01*
X134195321Y-60772108D01*
X134196665Y-60751619D01*
X134196665Y-60208761D01*
X134195321Y-60188271D01*
X134195709Y-60181824D01*
X134194517Y-60176003D01*
X134193414Y-60159161D01*
X134183499Y-60122160D01*
X134175821Y-60084637D01*
X134169277Y-60069081D01*
X134167739Y-60063341D01*
X134164508Y-60057745D01*
X134156547Y-60038820D01*
X133975595Y-59676916D01*
X133950506Y-59634006D01*
X133942909Y-59625438D01*
X133937187Y-59615528D01*
X133904413Y-59578156D01*
X133723461Y-59397203D01*
X133686089Y-59364430D01*
X133676178Y-59358708D01*
X133667611Y-59351111D01*
X133624701Y-59326022D01*
X133262796Y-59145069D01*
X133243867Y-59137106D01*
X133238275Y-59133878D01*
X133232535Y-59132340D01*
X133216978Y-59125796D01*
X133179457Y-59118117D01*
X133142455Y-59108203D01*
X133125612Y-59107099D01*
X133119792Y-59105908D01*
X133113344Y-59106295D01*
X133092855Y-59104952D01*
X131645236Y-59104952D01*
X131595636Y-59108203D01*
X131499816Y-59133878D01*
X131413907Y-59183478D01*
X131343762Y-59253623D01*
X131294162Y-59339532D01*
X131268487Y-59435352D01*
X131265236Y-59484952D01*
X129830258Y-59484952D01*
X129742509Y-59397203D01*
X129705137Y-59364430D01*
X129695226Y-59358708D01*
X129686659Y-59351111D01*
X129643749Y-59326022D01*
X129281844Y-59145069D01*
X129262915Y-59137106D01*
X129257323Y-59133878D01*
X129251583Y-59132340D01*
X129236026Y-59125796D01*
X129198505Y-59118117D01*
X129161503Y-59108203D01*
X129144660Y-59107099D01*
X129138840Y-59105908D01*
X129132392Y-59106295D01*
X129111903Y-59104952D01*
X128388094Y-59104952D01*
X128367604Y-59106295D01*
X128361157Y-59105908D01*
X128355336Y-59107099D01*
X128338494Y-59108203D01*
X128301500Y-59118115D01*
X128263971Y-59125795D01*
X128248409Y-59132341D01*
X128242674Y-59133878D01*
X128237084Y-59137105D01*
X128218153Y-59145069D01*
X127856248Y-59326021D01*
X127813338Y-59351111D01*
X127804770Y-59358707D01*
X127794860Y-59364430D01*
X127757488Y-59397203D01*
X127395583Y-59759108D01*
X127362810Y-59796480D01*
X127361200Y-59799268D01*
X127358962Y-59801583D01*
X127336412Y-59842201D01*
X127313210Y-59882390D01*
X127312377Y-59885496D01*
X127310813Y-59888315D01*
X127295630Y-59935646D01*
X127114678Y-60659456D01*
X127107730Y-60697735D01*
X127106583Y-60702019D01*
X127106373Y-60705213D01*
X127105802Y-60708363D01*
X127105876Y-60712796D01*
X127103332Y-60751619D01*
X125691904Y-60751619D01*
X125691904Y-59864952D01*
X126397618Y-59864952D01*
X126447218Y-59861701D01*
X126543038Y-59836026D01*
X126628947Y-59786426D01*
X126699092Y-59716281D01*
X126748692Y-59630372D01*
X126774367Y-59534552D01*
X126774367Y-59435352D01*
X126748692Y-59339532D01*
X126699092Y-59253623D01*
X126628947Y-59183478D01*
X126543038Y-59133878D01*
X126447218Y-59108203D01*
X126397618Y-59104952D01*
X124226189Y-59104952D01*
X124176589Y-59108203D01*
X124080769Y-59133878D01*
X123994860Y-59183478D01*
X123924715Y-59253623D01*
X123875115Y-59339532D01*
X123849440Y-59435352D01*
X123336271Y-59435352D01*
X123310596Y-59339532D01*
X123260996Y-59253623D01*
X123190851Y-59183478D01*
X123104942Y-59133878D01*
X123009122Y-59108203D01*
X122909922Y-59108203D01*
X122814102Y-59133878D01*
X122728193Y-59183478D01*
X122658048Y-59253623D01*
X122608448Y-59339532D01*
X122582773Y-59435352D01*
X122579522Y-59484952D01*
X121529999Y-59484952D01*
X121526748Y-59435352D01*
X121501073Y-59339532D01*
X121451473Y-59253623D01*
X121381328Y-59183478D01*
X121295419Y-59133878D01*
X121199599Y-59108203D01*
X121100399Y-59108203D01*
X121004579Y-59133878D01*
X120918670Y-59183478D01*
X120848525Y-59253623D01*
X120798925Y-59339532D01*
X120773250Y-59435352D01*
X120769999Y-59484952D01*
X120769999Y-61854038D01*
X119308502Y-59296419D01*
X119281071Y-59254967D01*
X119280469Y-59254360D01*
X119280044Y-59253623D01*
X119245595Y-59219174D01*
X119211239Y-59184511D01*
X119210502Y-59184081D01*
X119209899Y-59183478D01*
X119167630Y-59159074D01*
X119125551Y-59134529D01*
X119124729Y-59134304D01*
X119123990Y-59133878D01*
X119076822Y-59121239D01*
X119029847Y-59108428D01*
X119028995Y-59108424D01*
X119028170Y-59108203D01*
X118979350Y-59108203D01*
X118930648Y-59107986D01*
X118929823Y-59108203D01*
X118928970Y-59108203D01*
X118881846Y-59120829D01*
X118834715Y-59133234D01*
X118833974Y-59133657D01*
X118833150Y-59133878D01*
X118790930Y-59158253D01*
X118748585Y-59182451D01*
X118747978Y-59183052D01*
X118747241Y-59183478D01*
X118712792Y-59217926D01*
X118678129Y-59252283D01*
X118677699Y-59253019D01*
X118677096Y-59253623D01*
X118652692Y-59295891D01*
X118628147Y-59337971D01*
X118627922Y-59338792D01*
X118627496Y-59339532D01*
X118614857Y-59386699D01*
X118602046Y-59433675D01*
X118602042Y-59434526D01*
X118601821Y-59435352D01*
X118598570Y-59484952D01*
X117163592Y-59484952D01*
X117075843Y-59397203D01*
X117038471Y-59364430D01*
X117028560Y-59358708D01*
X117019993Y-59351111D01*
X116977083Y-59326022D01*
X116615178Y-59145069D01*
X116596249Y-59137106D01*
X116590657Y-59133878D01*
X116584917Y-59132340D01*
X116569360Y-59125796D01*
X116531839Y-59118117D01*
X116494837Y-59108203D01*
X116477994Y-59107099D01*
X116472174Y-59105908D01*
X116465726Y-59106295D01*
X116445237Y-59104952D01*
X115721428Y-59104952D01*
X115700938Y-59106295D01*
X115694491Y-59105908D01*
X115688670Y-59107099D01*
X115671828Y-59108203D01*
X115634834Y-59118115D01*
X115597305Y-59125795D01*
X115581743Y-59132341D01*
X115576008Y-59133878D01*
X115570418Y-59137105D01*
X115551487Y-59145069D01*
X115189582Y-59326021D01*
X115146672Y-59351111D01*
X115138104Y-59358707D01*
X115128194Y-59364430D01*
X115090822Y-59397203D01*
X114728917Y-59759108D01*
X114696144Y-59796480D01*
X114694534Y-59799268D01*
X114692296Y-59801583D01*
X114669746Y-59842201D01*
X114646544Y-59882390D01*
X114645711Y-59885496D01*
X114644147Y-59888315D01*
X114628964Y-59935646D01*
X114448012Y-60659456D01*
X114441064Y-60697735D01*
X114439917Y-60702019D01*
X114439707Y-60705213D01*
X114439136Y-60708363D01*
X114439210Y-60712796D01*
X114436666Y-60751619D01*
X113568095Y-60751619D01*
X113568095Y-59484952D01*
X113564844Y-59435352D01*
X113560551Y-59419330D01*
X113559111Y-59402815D01*
X113547765Y-59371615D01*
X113539169Y-59339532D01*
X113530875Y-59325167D01*
X113525210Y-59309587D01*
X113506174Y-59282383D01*
X113489569Y-59253623D01*
X113477842Y-59241896D01*
X113468336Y-59228311D01*
X113442905Y-59206959D01*
X113419424Y-59183478D01*
X113405061Y-59175185D01*
X113392363Y-59164524D01*
X113362277Y-59150483D01*
X113333515Y-59133878D01*
X113317493Y-59129585D01*
X113302470Y-59122574D01*
X113269776Y-59116799D01*
X113237695Y-59108203D01*
X113221110Y-59108203D01*
X113204782Y-59105319D01*
X113171707Y-59108203D01*
X113138495Y-59108203D01*
X113122474Y-59112495D01*
X113105957Y-59113936D01*
X113074756Y-59125281D01*
X113042675Y-59133878D01*
X113028310Y-59142171D01*
X113012730Y-59147837D01*
X112985526Y-59166872D01*
X112956766Y-59183478D01*
X112945039Y-59195204D01*
X112931454Y-59204711D01*
X112910100Y-59230143D01*
X112886621Y-59253623D01*
X112878330Y-59267982D01*
X112867666Y-59280684D01*
X112843745Y-59324256D01*
X111921427Y-61300649D01*
X110999111Y-59324256D01*
X110975189Y-59280684D01*
X110964527Y-59267985D01*
X110956235Y-59253623D01*
X110932753Y-59230141D01*
X110911402Y-59204711D01*
X110897816Y-59195204D01*
X110886090Y-59183478D01*
X110857329Y-59166872D01*
X110830126Y-59147837D01*
X110814545Y-59142171D01*
X110800181Y-59133878D01*
X110768097Y-59125281D01*
X110736898Y-59113936D01*
X110720382Y-59112495D01*
X110704361Y-59108203D01*
X110671149Y-59108203D01*
X110638074Y-59105319D01*
X110621745Y-59108203D01*
X110605161Y-59108203D01*
X110573087Y-59116797D01*
X110540386Y-59122573D01*
X110525357Y-59129586D01*
X110509341Y-59133878D01*
X110480582Y-59150482D01*
X110450493Y-59164524D01*
X110437794Y-59175185D01*
X110423432Y-59183478D01*
X110399950Y-59206959D01*
X110374520Y-59228311D01*
X110365013Y-59241896D01*
X110353287Y-59253623D01*
X110336681Y-59282383D01*
X110317646Y-59309587D01*
X110311980Y-59325167D01*
X110303687Y-59339532D01*
X110295090Y-59371615D01*
X110283745Y-59402815D01*
X110282304Y-59419330D01*
X110278012Y-59435352D01*
X110274761Y-59484952D01*
X109852539Y-59484952D01*
X109852539Y-53367165D01*
X110274761Y-53367165D01*
X110274761Y-57167165D01*
X110278012Y-57216765D01*
X110303687Y-57312585D01*
X110353287Y-57398494D01*
X110423432Y-57468639D01*
X110509341Y-57518239D01*
X110605161Y-57543914D01*
X110654761Y-57547165D01*
X112102380Y-57547165D01*
X112122869Y-57545821D01*
X112129317Y-57546209D01*
X112135137Y-57545017D01*
X112151980Y-57543914D01*
X112188982Y-57533999D01*
X112226503Y-57526321D01*
X112242060Y-57519776D01*
X112247800Y-57518239D01*
X112253392Y-57515010D01*
X112272321Y-57507048D01*
X112634226Y-57326095D01*
X112677136Y-57301006D01*
X112685703Y-57293408D01*
X112695614Y-57287687D01*
X112732986Y-57254914D01*
X112913938Y-57073961D01*
X112946712Y-57036589D01*
X112952434Y-57026678D01*
X112960031Y-57018111D01*
X112985121Y-56975201D01*
X113166073Y-56613296D01*
X113174036Y-56594364D01*
X113177264Y-56588775D01*
X113178800Y-56583039D01*
X113185347Y-56567478D01*
X113193026Y-56529948D01*
X113202939Y-56492955D01*
X113204042Y-56476112D01*
X113205234Y-56470292D01*
X113204846Y-56463844D01*
X113206190Y-56443355D01*
X113206190Y-55900498D01*
X113204846Y-55880008D01*
X113205234Y-55873561D01*
X113204042Y-55867740D01*
X113202939Y-55850898D01*
X113193026Y-55813904D01*
X113185347Y-55776375D01*
X113178800Y-55760813D01*
X113177264Y-55755078D01*
X113174036Y-55749488D01*
X113166073Y-55730557D01*
X112985121Y-55368652D01*
X112960031Y-55325742D01*
X112952433Y-55317174D01*
X112946711Y-55307263D01*
X112913937Y-55269891D01*
X112732985Y-55088940D01*
X112730078Y-55086391D01*
X112732986Y-55083484D01*
X112765759Y-55046113D01*
X112771481Y-55036202D01*
X112779078Y-55027635D01*
X112804167Y-54984726D01*
X112985120Y-54622821D01*
X112993082Y-54603892D01*
X112996312Y-54598299D01*
X112997849Y-54592559D01*
X113004394Y-54577003D01*
X113012072Y-54539478D01*
X113021987Y-54502479D01*
X113023090Y-54485637D01*
X113024282Y-54479817D01*
X113023894Y-54473369D01*
X113025238Y-54452879D01*
X113025238Y-54090974D01*
X113023894Y-54070483D01*
X113024282Y-54064035D01*
X113023090Y-54058213D01*
X113021987Y-54041374D01*
X113012073Y-54004377D01*
X113004394Y-53966849D01*
X112997849Y-53951291D01*
X112996312Y-53945554D01*
X112993083Y-53939961D01*
X112985120Y-53921032D01*
X112804167Y-53559128D01*
X112779077Y-53516218D01*
X112771483Y-53507655D01*
X112765760Y-53497741D01*
X112732986Y-53460370D01*
X112639782Y-53367165D01*
X114074761Y-53367165D01*
X114074761Y-57167165D01*
X114078012Y-57216765D01*
X114103687Y-57312585D01*
X114153287Y-57398494D01*
X114223432Y-57468639D01*
X114309341Y-57518239D01*
X114405161Y-57543914D01*
X114454761Y-57547165D01*
X116264285Y-57547165D01*
X116313885Y-57543914D01*
X116409705Y-57518239D01*
X116495614Y-57468639D01*
X116565759Y-57398494D01*
X116615359Y-57312585D01*
X116641034Y-57216765D01*
X116641034Y-57117565D01*
X116615359Y-57021745D01*
X116565759Y-56935836D01*
X116495614Y-56865691D01*
X116409705Y-56816091D01*
X116313885Y-56790416D01*
X116264285Y-56787165D01*
X114834761Y-56787165D01*
X114834761Y-55556689D01*
X115721428Y-55556689D01*
X115771028Y-55553438D01*
X115866848Y-55527763D01*
X115952757Y-55478163D01*
X116022902Y-55408018D01*
X116072502Y-55322109D01*
X116098177Y-55226289D01*
X116098177Y-55127089D01*
X116072502Y-55031269D01*
X116022902Y-54945360D01*
X115952757Y-54875215D01*
X115866848Y-54825615D01*
X115771028Y-54799940D01*
X115721428Y-54796689D01*
X114834761Y-54796689D01*
X114834761Y-53747165D01*
X116264285Y-53747165D01*
X116313885Y-53743914D01*
X116409705Y-53718239D01*
X116495614Y-53668639D01*
X116565759Y-53598494D01*
X116615359Y-53512585D01*
X116641034Y-53416765D01*
X116641034Y-53367165D01*
X117512856Y-53367165D01*
X117512856Y-57167165D01*
X117516107Y-57216765D01*
X117541782Y-57312585D01*
X117591382Y-57398494D01*
X117661527Y-57468639D01*
X117747436Y-57518239D01*
X117843256Y-57543914D01*
X117942456Y-57543914D01*
X118038276Y-57518239D01*
X118124185Y-57468639D01*
X118194330Y-57398494D01*
X118243930Y-57312585D01*
X118269605Y-57216765D01*
X118272856Y-57167165D01*
X118272856Y-54798079D01*
X119734352Y-57355697D01*
X119761784Y-57397149D01*
X119762383Y-57397754D01*
X119762811Y-57398494D01*
X119797314Y-57432997D01*
X119831616Y-57467606D01*
X119832352Y-57468035D01*
X119832956Y-57468639D01*
X119875260Y-57493063D01*
X119917303Y-57517587D01*
X119918123Y-57517810D01*
X119918865Y-57518239D01*
X119966107Y-57530897D01*
X120013008Y-57543689D01*
X120013859Y-57543692D01*
X120014685Y-57543914D01*
X120063505Y-57543914D01*
X120112206Y-57544131D01*
X120113031Y-57543914D01*
X120113885Y-57543914D01*
X120161035Y-57531279D01*
X120208140Y-57518883D01*
X120208880Y-57518459D01*
X120209705Y-57518239D01*
X120251924Y-57493863D01*
X120294270Y-57469666D01*
X120294876Y-57469064D01*
X120295614Y-57468639D01*
X120330062Y-57434190D01*
X120364726Y-57399834D01*
X120365155Y-57399097D01*
X120365759Y-57398494D01*
X120390162Y-57356225D01*
X120414708Y-57314146D01*
X120414932Y-57313324D01*
X120415359Y-57312585D01*
X120428005Y-57265387D01*
X120440809Y-57218441D01*
X120440812Y-57217590D01*
X120441034Y-57216765D01*
X120444285Y-57167165D01*
X120444285Y-54995736D01*
X121312856Y-54995736D01*
X121312856Y-55538593D01*
X121315400Y-55577415D01*
X121315326Y-55581849D01*
X121315897Y-55584998D01*
X121316107Y-55588193D01*
X121317254Y-55592476D01*
X121324202Y-55630756D01*
X121505154Y-56354566D01*
X121513322Y-56380030D01*
X121514652Y-56386527D01*
X121517829Y-56394081D01*
X121520337Y-56401897D01*
X121523559Y-56407701D01*
X121533926Y-56432345D01*
X121714879Y-56794249D01*
X121739968Y-56837159D01*
X121747564Y-56845726D01*
X121753287Y-56855637D01*
X121786060Y-56893009D01*
X122147965Y-57254914D01*
X122163405Y-57268454D01*
X122167689Y-57273285D01*
X122172646Y-57276558D01*
X122185337Y-57287687D01*
X122218501Y-57306834D01*
X122250473Y-57327944D01*
X122266106Y-57334318D01*
X122271247Y-57337287D01*
X122277481Y-57338957D01*
X122296500Y-57346713D01*
X122839356Y-57527665D01*
X122887439Y-57540265D01*
X122898864Y-57540950D01*
X122909923Y-57543914D01*
X122959523Y-57547165D01*
X123321427Y-57547165D01*
X123371027Y-57543914D01*
X123382085Y-57540950D01*
X123393510Y-57540265D01*
X123441593Y-57527665D01*
X123984451Y-57346713D01*
X124003467Y-57338958D01*
X124009705Y-57337287D01*
X124014849Y-57334316D01*
X124030477Y-57327944D01*
X124062439Y-57306840D01*
X124095615Y-57287687D01*
X124108304Y-57276558D01*
X124113261Y-57273286D01*
X124117545Y-57268453D01*
X124132986Y-57254913D01*
X124313938Y-57073960D01*
X124346712Y-57036589D01*
X124396311Y-56950679D01*
X124421985Y-56854859D01*
X124421985Y-56755659D01*
X124396311Y-56659840D01*
X124346710Y-56573930D01*
X124276565Y-56503785D01*
X124190655Y-56454186D01*
X124094836Y-56428512D01*
X123995636Y-56428512D01*
X123899816Y-56454186D01*
X123813907Y-56503787D01*
X123776535Y-56536561D01*
X123659016Y-56654080D01*
X123259761Y-56787165D01*
X123021189Y-56787165D01*
X122621935Y-56654080D01*
X122367064Y-56399209D01*
X122232344Y-56129769D01*
X122072856Y-55491814D01*
X122072856Y-55042515D01*
X122232344Y-54404559D01*
X122367064Y-54135120D01*
X122621935Y-53880249D01*
X123021189Y-53747165D01*
X123259761Y-53747165D01*
X123659016Y-53880249D01*
X123776535Y-53997769D01*
X123813907Y-54030543D01*
X123899816Y-54080144D01*
X123995636Y-54105818D01*
X124094836Y-54105818D01*
X124190655Y-54080144D01*
X124276565Y-54030545D01*
X124346710Y-53960400D01*
X124396311Y-53874490D01*
X124421985Y-53778671D01*
X124421985Y-53679471D01*
X124396311Y-53583651D01*
X124346712Y-53497741D01*
X124313938Y-53460370D01*
X124220734Y-53367165D01*
X125293808Y-53367165D01*
X125293808Y-57167165D01*
X125297059Y-57216765D01*
X125322734Y-57312585D01*
X125372334Y-57398494D01*
X125442479Y-57468639D01*
X125528388Y-57518239D01*
X125624208Y-57543914D01*
X125723408Y-57543914D01*
X125819228Y-57518239D01*
X125905137Y-57468639D01*
X125975282Y-57398494D01*
X126024882Y-57312585D01*
X126050557Y-57216765D01*
X126053808Y-57167165D01*
X126053808Y-55556689D01*
X127465237Y-55556689D01*
X127465237Y-57167165D01*
X127468488Y-57216765D01*
X127494163Y-57312585D01*
X127543763Y-57398494D01*
X127613908Y-57468639D01*
X127699817Y-57518239D01*
X127795637Y-57543914D01*
X127894837Y-57543914D01*
X127990657Y-57518239D01*
X128076566Y-57468639D01*
X128146711Y-57398494D01*
X128196311Y-57312585D01*
X128221986Y-57216765D01*
X128225237Y-57167165D01*
X128225237Y-53367165D01*
X132169998Y-53367165D01*
X132169998Y-57167165D01*
X132173249Y-57216765D01*
X132198924Y-57312585D01*
X132248524Y-57398494D01*
X132318669Y-57468639D01*
X132404578Y-57518239D01*
X132500398Y-57543914D01*
X132599598Y-57543914D01*
X132695418Y-57518239D01*
X132781327Y-57468639D01*
X132851472Y-57398494D01*
X132901072Y-57312585D01*
X132926747Y-57216765D01*
X132929998Y-57167165D01*
X132929998Y-55737641D01*
X133997617Y-55737641D01*
X134018106Y-55736297D01*
X134024554Y-55736685D01*
X134030374Y-55735493D01*
X134047217Y-55734390D01*
X134084219Y-55724475D01*
X134121740Y-55716797D01*
X134137297Y-55710252D01*
X134143037Y-55708715D01*
X134148629Y-55705486D01*
X134167558Y-55697524D01*
X134529463Y-55516571D01*
X134572373Y-55491482D01*
X134580940Y-55483884D01*
X134590851Y-55478163D01*
X134628223Y-55445390D01*
X134809175Y-55264437D01*
X134841949Y-55227065D01*
X134847671Y-55217154D01*
X134855268Y-55208587D01*
X134880357Y-55165677D01*
X135061309Y-54803773D01*
X135069270Y-54784847D01*
X135072501Y-54779252D01*
X135074039Y-54773511D01*
X135080583Y-54757956D01*
X135088261Y-54720432D01*
X135098176Y-54683432D01*
X135099279Y-54666589D01*
X135100471Y-54660769D01*
X135100083Y-54654321D01*
X135101427Y-54633832D01*
X135101427Y-54090974D01*
X135789046Y-54090974D01*
X135789046Y-54452879D01*
X135790389Y-54473368D01*
X135790002Y-54479816D01*
X135791193Y-54485636D01*
X135792297Y-54502479D01*
X135802211Y-54539481D01*
X135809890Y-54577002D01*
X135816434Y-54592559D01*
X135817972Y-54598299D01*
X135821200Y-54603891D01*
X135829163Y-54622820D01*
X136010116Y-54984725D01*
X136035205Y-55027635D01*
X136042800Y-55036200D01*
X136048524Y-55046114D01*
X136081298Y-55083485D01*
X136262251Y-55264437D01*
X136299622Y-55297211D01*
X136309535Y-55302934D01*
X136318100Y-55310529D01*
X136361009Y-55335618D01*
X136722914Y-55516571D01*
X136747564Y-55526940D01*
X136753362Y-55530159D01*
X136761169Y-55532663D01*
X136768732Y-55535845D01*
X136775233Y-55537175D01*
X136800693Y-55545343D01*
X137484031Y-55716177D01*
X137753474Y-55850898D01*
X137847217Y-55944641D01*
X137960475Y-56171156D01*
X137960475Y-56353649D01*
X137847217Y-56580164D01*
X137753474Y-56673907D01*
X137526958Y-56787165D01*
X136773569Y-56787165D01*
X136289212Y-56625713D01*
X136241130Y-56613113D01*
X136142108Y-56607169D01*
X136044922Y-56627057D01*
X135956195Y-56671421D01*
X135881974Y-56737236D01*
X135827315Y-56820020D01*
X135795946Y-56914129D01*
X135790002Y-57013151D01*
X135809890Y-57110337D01*
X135854254Y-57199064D01*
X135920069Y-57273285D01*
X136002853Y-57327944D01*
X136048880Y-57346713D01*
X136591736Y-57527665D01*
X136639819Y-57540265D01*
X136651244Y-57540950D01*
X136662303Y-57543914D01*
X136711903Y-57547165D01*
X137616665Y-57547165D01*
X137637154Y-57545821D01*
X137643602Y-57546209D01*
X137649422Y-57545017D01*
X137666265Y-57543914D01*
X137703267Y-57533999D01*
X137740788Y-57526321D01*
X137756345Y-57519776D01*
X137762085Y-57518239D01*
X137767677Y-57515010D01*
X137786606Y-57507048D01*
X138148511Y-57326095D01*
X138191421Y-57301006D01*
X138199986Y-57293410D01*
X138209900Y-57287687D01*
X138247271Y-57254913D01*
X138428223Y-57073960D01*
X138460997Y-57036589D01*
X138466720Y-57026675D01*
X138474315Y-57018111D01*
X138499404Y-56975202D01*
X138680357Y-56613297D01*
X138688319Y-56594368D01*
X138691549Y-56588775D01*
X138693086Y-56583035D01*
X138699631Y-56567479D01*
X138707309Y-56529954D01*
X138717224Y-56492955D01*
X138718327Y-56476113D01*
X138719519Y-56470293D01*
X138719131Y-56463845D01*
X138720475Y-56443355D01*
X138720475Y-56081451D01*
X138719131Y-56060960D01*
X138719519Y-56054513D01*
X138718327Y-56048692D01*
X138717224Y-56031851D01*
X138707309Y-55994851D01*
X138699631Y-55957327D01*
X138693086Y-55941770D01*
X138691549Y-55936031D01*
X138688319Y-55930437D01*
X138680357Y-55911509D01*
X138499404Y-55549604D01*
X138474315Y-55506695D01*
X138466720Y-55498130D01*
X138460997Y-55488217D01*
X138428223Y-55450846D01*
X138247271Y-55269893D01*
X138209900Y-55237119D01*
X138199986Y-55231395D01*
X138191421Y-55223800D01*
X138148511Y-55198711D01*
X137786606Y-55017758D01*
X137761963Y-55007392D01*
X137756159Y-55004170D01*
X137748341Y-55001662D01*
X137740788Y-54998485D01*
X137734294Y-54997156D01*
X137708828Y-54988987D01*
X137025487Y-54818152D01*
X136756046Y-54683431D01*
X136662303Y-54589688D01*
X136549046Y-54363172D01*
X136549046Y-54180679D01*
X136662301Y-53954168D01*
X136756046Y-53860422D01*
X136982561Y-53747165D01*
X137735951Y-53747165D01*
X138220309Y-53908617D01*
X138268391Y-53921217D01*
X138367413Y-53927161D01*
X138464599Y-53907273D01*
X138553326Y-53862909D01*
X138627547Y-53797093D01*
X138682205Y-53714310D01*
X138713575Y-53620200D01*
X138719519Y-53521178D01*
X138699631Y-53423993D01*
X138671217Y-53367165D01*
X139589046Y-53367165D01*
X139589046Y-56443355D01*
X139590389Y-56463845D01*
X139590002Y-56470293D01*
X139591193Y-56476113D01*
X139592297Y-56492955D01*
X139602211Y-56529954D01*
X139609890Y-56567479D01*
X139616434Y-56583035D01*
X139617972Y-56588775D01*
X139621201Y-56594368D01*
X139629164Y-56613297D01*
X139810117Y-56975201D01*
X139835206Y-57018111D01*
X139842801Y-57026676D01*
X139848524Y-57036588D01*
X139881298Y-57073960D01*
X140062249Y-57254912D01*
X140099621Y-57287686D01*
X140109532Y-57293408D01*
X140118100Y-57301006D01*
X140161010Y-57326096D01*
X140522915Y-57507048D01*
X140541846Y-57515011D01*
X140547436Y-57518239D01*
X140553171Y-57519775D01*
X140568733Y-57526322D01*
X140606262Y-57534001D01*
X140643256Y-57543914D01*
X140660098Y-57545017D01*
X140665919Y-57546209D01*
X140672366Y-57545821D01*
X140692856Y-57547165D01*
X141416665Y-57547165D01*
X141437154Y-57545821D01*
X141443602Y-57546209D01*
X141449422Y-57545017D01*
X141466265Y-57543914D01*
X141503267Y-57533999D01*
X141540788Y-57526321D01*
X141556345Y-57519776D01*
X141562085Y-57518239D01*
X141567677Y-57515010D01*
X141586606Y-57507048D01*
X141948511Y-57326095D01*
X141991421Y-57301006D01*
X141999988Y-57293408D01*
X142009899Y-57287687D01*
X142047271Y-57254914D01*
X142228223Y-57073961D01*
X142260997Y-57036589D01*
X142266719Y-57026678D01*
X142274316Y-57018111D01*
X142299406Y-56975201D01*
X142480358Y-56613296D01*
X142488321Y-56594364D01*
X142491549Y-56588775D01*
X142493085Y-56583039D01*
X142499632Y-56567478D01*
X142507311Y-56529948D01*
X142517224Y-56492955D01*
X142518327Y-56476112D01*
X142519519Y-56470292D01*
X142519131Y-56463844D01*
X142520475Y-56443355D01*
X142520475Y-53367165D01*
X142517224Y-53317565D01*
X142491549Y-53221745D01*
X142441949Y-53135836D01*
X142371804Y-53065691D01*
X142285895Y-53016091D01*
X142190075Y-52990416D01*
X142090875Y-52990416D01*
X141995055Y-53016091D01*
X141909146Y-53065691D01*
X141839001Y-53135836D01*
X141789401Y-53221745D01*
X141763726Y-53317565D01*
X141760475Y-53367165D01*
X141760475Y-56353649D01*
X141647217Y-56580164D01*
X141553473Y-56673907D01*
X141326958Y-56787165D01*
X140782561Y-56787165D01*
X140556046Y-56673907D01*
X140462304Y-56580164D01*
X140349046Y-56353648D01*
X140349046Y-53367165D01*
X140345795Y-53317565D01*
X140320120Y-53221745D01*
X140270520Y-53135836D01*
X140200375Y-53065691D01*
X140114466Y-53016091D01*
X140018646Y-52990416D01*
X139919446Y-52990416D01*
X139823626Y-53016091D01*
X139737717Y-53065691D01*
X139667572Y-53135836D01*
X139617972Y-53221745D01*
X139592297Y-53317565D01*
X139589046Y-53367165D01*
X138671217Y-53367165D01*
X138655267Y-53335266D01*
X138589451Y-53261044D01*
X138506667Y-53206386D01*
X138460641Y-53187617D01*
X137917783Y-53006665D01*
X137869700Y-52994065D01*
X137858275Y-52993379D01*
X137847217Y-52990416D01*
X137797617Y-52987165D01*
X136892856Y-52987165D01*
X136872366Y-52988508D01*
X136865919Y-52988121D01*
X136860098Y-52989312D01*
X136843256Y-52990416D01*
X136806262Y-53000328D01*
X136768733Y-53008008D01*
X136753171Y-53014554D01*
X136747436Y-53016091D01*
X136741846Y-53019318D01*
X136722915Y-53027282D01*
X136361010Y-53208234D01*
X136318100Y-53233324D01*
X136309532Y-53240920D01*
X136299622Y-53246643D01*
X136262250Y-53279417D01*
X136081297Y-53460369D01*
X136048524Y-53497741D01*
X136042801Y-53507651D01*
X136035205Y-53516219D01*
X136010116Y-53559129D01*
X135829164Y-53921033D01*
X135821202Y-53939958D01*
X135817972Y-53945554D01*
X135816433Y-53951294D01*
X135809890Y-53966850D01*
X135802211Y-54004373D01*
X135792297Y-54041374D01*
X135791193Y-54058216D01*
X135790002Y-54064037D01*
X135790389Y-54070484D01*
X135789046Y-54090974D01*
X135101427Y-54090974D01*
X135100083Y-54070484D01*
X135100471Y-54064037D01*
X135099279Y-54058216D01*
X135098176Y-54041374D01*
X135088261Y-54004373D01*
X135080583Y-53966850D01*
X135074039Y-53951294D01*
X135072501Y-53945554D01*
X135069270Y-53939958D01*
X135061309Y-53921033D01*
X134880357Y-53559129D01*
X134855268Y-53516219D01*
X134847671Y-53507651D01*
X134841949Y-53497741D01*
X134809175Y-53460369D01*
X134628223Y-53279416D01*
X134590851Y-53246643D01*
X134580940Y-53240921D01*
X134572373Y-53233324D01*
X134529463Y-53208235D01*
X134167558Y-53027282D01*
X134148629Y-53019319D01*
X134143037Y-53016091D01*
X134137297Y-53014553D01*
X134121740Y-53008009D01*
X134084219Y-53000330D01*
X134047217Y-52990416D01*
X134030374Y-52989312D01*
X134024554Y-52988121D01*
X134018106Y-52988508D01*
X133997617Y-52987165D01*
X132549998Y-52987165D01*
X132500398Y-52990416D01*
X132404578Y-53016091D01*
X132318669Y-53065691D01*
X132248524Y-53135836D01*
X132198924Y-53221745D01*
X132173249Y-53317565D01*
X132169998Y-53367165D01*
X128225237Y-53367165D01*
X128221986Y-53317565D01*
X128196311Y-53221745D01*
X128146711Y-53135836D01*
X128076566Y-53065691D01*
X127990657Y-53016091D01*
X127894837Y-52990416D01*
X127795637Y-52990416D01*
X127699817Y-53016091D01*
X127613908Y-53065691D01*
X127543763Y-53135836D01*
X127494163Y-53221745D01*
X127468488Y-53317565D01*
X127465237Y-53367165D01*
X127465237Y-54796689D01*
X126053808Y-54796689D01*
X126053808Y-53367165D01*
X126050557Y-53317565D01*
X126024882Y-53221745D01*
X125975282Y-53135836D01*
X125905137Y-53065691D01*
X125819228Y-53016091D01*
X125723408Y-52990416D01*
X125624208Y-52990416D01*
X125528388Y-53016091D01*
X125442479Y-53065691D01*
X125372334Y-53135836D01*
X125322734Y-53221745D01*
X125297059Y-53317565D01*
X125293808Y-53367165D01*
X124220734Y-53367165D01*
X124132986Y-53279417D01*
X124117545Y-53265876D01*
X124113261Y-53261044D01*
X124108304Y-53257771D01*
X124095615Y-53246643D01*
X124062439Y-53227489D01*
X124030477Y-53206386D01*
X124014849Y-53200013D01*
X124009705Y-53197043D01*
X124003467Y-53195371D01*
X123984451Y-53187617D01*
X123441593Y-53006665D01*
X123393510Y-52994065D01*
X123382085Y-52993379D01*
X123371027Y-52990416D01*
X123321427Y-52987165D01*
X122959523Y-52987165D01*
X122909923Y-52990416D01*
X122898864Y-52993379D01*
X122887439Y-52994065D01*
X122839356Y-53006665D01*
X122296500Y-53187617D01*
X122277481Y-53195372D01*
X122271247Y-53197043D01*
X122266106Y-53200011D01*
X122250473Y-53206386D01*
X122218501Y-53227495D01*
X122185337Y-53246643D01*
X122172646Y-53257771D01*
X122167689Y-53261045D01*
X122163405Y-53265875D01*
X122147965Y-53279416D01*
X121786060Y-53641321D01*
X121753287Y-53678693D01*
X121747564Y-53688603D01*
X121739968Y-53697171D01*
X121714879Y-53740081D01*
X121533926Y-54101985D01*
X121523559Y-54126628D01*
X121520337Y-54132433D01*
X121517829Y-54140248D01*
X121514652Y-54147803D01*
X121513322Y-54154299D01*
X121505154Y-54179764D01*
X121324202Y-54903573D01*
X121317254Y-54941852D01*
X121316107Y-54946136D01*
X121315897Y-54949330D01*
X121315326Y-54952480D01*
X121315400Y-54956913D01*
X121312856Y-54995736D01*
X120444285Y-54995736D01*
X120444285Y-53367165D01*
X120441034Y-53317565D01*
X120415359Y-53221745D01*
X120365759Y-53135836D01*
X120295614Y-53065691D01*
X120209705Y-53016091D01*
X120113885Y-52990416D01*
X120014685Y-52990416D01*
X119918865Y-53016091D01*
X119832956Y-53065691D01*
X119762811Y-53135836D01*
X119713211Y-53221745D01*
X119687536Y-53317565D01*
X119684285Y-53367165D01*
X119684285Y-55736251D01*
X118222788Y-53178632D01*
X118195357Y-53137180D01*
X118194755Y-53136573D01*
X118194330Y-53135836D01*
X118159881Y-53101387D01*
X118125525Y-53066724D01*
X118124788Y-53066294D01*
X118124185Y-53065691D01*
X118081916Y-53041287D01*
X118039837Y-53016742D01*
X118039015Y-53016517D01*
X118038276Y-53016091D01*
X117991108Y-53003452D01*
X117944133Y-52990641D01*
X117943281Y-52990637D01*
X117942456Y-52990416D01*
X117893636Y-52990416D01*
X117844934Y-52990199D01*
X117844109Y-52990416D01*
X117843256Y-52990416D01*
X117796132Y-53003042D01*
X117749001Y-53015447D01*
X117748260Y-53015870D01*
X117747436Y-53016091D01*
X117705216Y-53040466D01*
X117662871Y-53064664D01*
X117662264Y-53065265D01*
X117661527Y-53065691D01*
X117627078Y-53100139D01*
X117592415Y-53134496D01*
X117591985Y-53135232D01*
X117591382Y-53135836D01*
X117566978Y-53178104D01*
X117542433Y-53220184D01*
X117542208Y-53221005D01*
X117541782Y-53221745D01*
X117529143Y-53268912D01*
X117516332Y-53315888D01*
X117516328Y-53316739D01*
X117516107Y-53317565D01*
X117512856Y-53367165D01*
X116641034Y-53367165D01*
X116641034Y-53317565D01*
X116615359Y-53221745D01*
X116565759Y-53135836D01*
X116495614Y-53065691D01*
X116409705Y-53016091D01*
X116313885Y-52990416D01*
X116264285Y-52987165D01*
X114454761Y-52987165D01*
X114405161Y-52990416D01*
X114309341Y-53016091D01*
X114223432Y-53065691D01*
X114153287Y-53135836D01*
X114103687Y-53221745D01*
X114078012Y-53317565D01*
X114074761Y-53367165D01*
X112639782Y-53367165D01*
X112552034Y-53279417D01*
X112514663Y-53246643D01*
X112504749Y-53240919D01*
X112496184Y-53233324D01*
X112453274Y-53208235D01*
X112091369Y-53027282D01*
X112072440Y-53019319D01*
X112066848Y-53016091D01*
X112061108Y-53014553D01*
X112045551Y-53008009D01*
X112008030Y-53000330D01*
X111971028Y-52990416D01*
X111954185Y-52989312D01*
X111948365Y-52988121D01*
X111941917Y-52988508D01*
X111921428Y-52987165D01*
X110654761Y-52987165D01*
X110605161Y-52990416D01*
X110509341Y-53016091D01*
X110423432Y-53065691D01*
X110353287Y-53135836D01*
X110303687Y-53221745D01*
X110278012Y-53317565D01*
X110274761Y-53367165D01*
X109852539Y-53367165D01*
X109852539Y-52564943D01*
X142942697Y-52564943D01*
X142942697Y-64087174D01*
G37*
%TO.C,JP1*%
G36*
X163125000Y-108250000D02*
G01*
X163425000Y-108250000D01*
X163425000Y-109750000D01*
X163125000Y-109750000D01*
X163125000Y-108250000D01*
G37*
%TO.C,JP2*%
G36*
X163075000Y-104500000D02*
G01*
X163375000Y-104500000D01*
X163375000Y-106000000D01*
X163075000Y-106000000D01*
X163075000Y-104500000D01*
G37*
%TD*%
D11*
%TO.C,J6*%
X107010000Y-101340000D03*
D12*
X109550000Y-101340000D03*
X107010000Y-98800000D03*
X109550000Y-98800000D03*
X107010000Y-96260000D03*
X109550000Y-96260000D03*
X107010000Y-93720000D03*
X109550000Y-93720000D03*
X107010000Y-91180000D03*
X109550000Y-91180000D03*
X107010000Y-88640000D03*
X109550000Y-88640000D03*
%TD*%
D13*
%TO.C,C6*%
X172900000Y-87525000D03*
X172900000Y-84575000D03*
%TD*%
D14*
%TO.C,R2*%
X179962500Y-98962500D03*
X179962500Y-97312500D03*
%TD*%
D15*
%TO.C,REF\u002A\u002A*%
X201750000Y-57000000D03*
%TD*%
D16*
%TO.C,R13*%
X158012500Y-80706945D03*
X155087500Y-80706945D03*
%TD*%
D14*
%TO.C,R3*%
X176912500Y-98962500D03*
X176912500Y-97312500D03*
%TD*%
D17*
%TO.C,U1*%
X178662500Y-87662500D03*
X178012500Y-87662500D03*
X177362500Y-87662500D03*
X176712500Y-87662500D03*
D18*
X175825000Y-88550000D03*
X175825000Y-89200000D03*
X175825000Y-89850000D03*
X175825000Y-90500000D03*
D17*
X176712500Y-91387500D03*
X177362500Y-91387500D03*
X178012500Y-91387500D03*
X178662500Y-91387500D03*
D18*
X179550000Y-90500000D03*
X179550000Y-89850000D03*
X179550000Y-89200000D03*
X179550000Y-88550000D03*
D19*
X177687500Y-89525000D03*
%TD*%
D16*
%TO.C,R8*%
X158012500Y-90627778D03*
X155087500Y-90627778D03*
%TD*%
D20*
%TO.C,J4*%
X154050000Y-57900000D03*
D21*
X156550000Y-57900000D03*
%TD*%
D15*
%TO.C,REF\u002A\u002A*%
X103750000Y-125000000D03*
%TD*%
D22*
%TO.C,R4*%
X187612500Y-88012500D03*
X185962500Y-88012500D03*
%TD*%
D23*
%TO.C,RS1*%
X181375000Y-103137500D03*
X175450000Y-103137500D03*
%TD*%
D24*
%TO.C,R15*%
X153500000Y-115550000D03*
X156425000Y-115550000D03*
%TD*%
D25*
%TO.C,C2*%
X179912500Y-94637500D03*
X176962500Y-94637500D03*
%TD*%
D26*
%TO.C,C4*%
X176875000Y-84337500D03*
X179825000Y-84337500D03*
%TD*%
D27*
%TO.C,R6*%
X176800000Y-79712500D03*
X176800000Y-81362500D03*
%TD*%
D28*
%TO.C,C3*%
X182962500Y-88037500D03*
X182962500Y-90987500D03*
%TD*%
D29*
%TO.C,U2*%
X117150000Y-110160000D03*
X117150000Y-107620000D03*
X117150000Y-105080000D03*
X117150000Y-102540000D03*
X117150000Y-100000000D03*
X117150000Y-97460000D03*
X117150000Y-94920000D03*
X117150000Y-92380000D03*
X117150000Y-89840000D03*
X117150000Y-87300000D03*
X117150000Y-84760000D03*
X117150000Y-82220000D03*
X117150000Y-79680000D03*
X117150000Y-77140000D03*
X117150000Y-74600000D03*
X142550000Y-110160000D03*
X142550000Y-107620000D03*
X142550000Y-105080000D03*
X142550000Y-102540000D03*
X142550000Y-100000000D03*
X142550000Y-97460000D03*
X142550000Y-94920000D03*
X142550000Y-92380000D03*
X142550000Y-89840000D03*
X142550000Y-87300000D03*
X142550000Y-84760000D03*
X142550000Y-82220000D03*
X142550000Y-79680000D03*
X142550000Y-77140000D03*
X142550000Y-74600000D03*
%TD*%
D16*
%TO.C,R9*%
X158012500Y-93934723D03*
X155087500Y-93934723D03*
%TD*%
D26*
%TO.C,C7*%
X153950000Y-64850000D03*
X156900000Y-64850000D03*
%TD*%
D13*
%TO.C,C5*%
X169500000Y-87475000D03*
X169500000Y-84525000D03*
%TD*%
D16*
%TO.C,R14*%
X158012500Y-77400000D03*
X155087500Y-77400000D03*
%TD*%
D30*
%TO.C,J2*%
X201950000Y-87250000D03*
D31*
X201950000Y-92250000D03*
X201950000Y-97250000D03*
%TD*%
D32*
%TO.C,J5*%
X156400000Y-121925000D03*
D21*
X153900000Y-121925000D03*
%TD*%
D33*
%TO.C,J1*%
X181000000Y-114350000D03*
D31*
X176000000Y-114350000D03*
X171000000Y-114350000D03*
%TD*%
D16*
%TO.C,R10*%
X158012500Y-97241667D03*
X155087500Y-97241667D03*
%TD*%
D14*
%TO.C,R1*%
X196177916Y-76667115D03*
X196177916Y-75017115D03*
%TD*%
D22*
%TO.C,R5*%
X187587500Y-91062500D03*
X185937500Y-91062500D03*
%TD*%
D16*
%TO.C,R12*%
X158012500Y-84013889D03*
X155087500Y-84013889D03*
%TD*%
D15*
%TO.C,REF\u002A\u002A*%
X103750000Y-57000000D03*
%TD*%
D27*
%TO.C,R7*%
X179850000Y-79662500D03*
X179850000Y-81312500D03*
%TD*%
D13*
%TO.C,C1*%
X192950000Y-76675000D03*
X192950000Y-73725000D03*
%TD*%
D34*
%TO.C,JP1*%
X163925000Y-109000000D03*
D35*
X162625000Y-109000000D03*
%TD*%
D36*
%TO.C,RS2*%
X191962500Y-86600000D03*
X191962500Y-92525000D03*
%TD*%
D37*
%TO.C,RS3*%
X175487500Y-75287500D03*
X181412500Y-75287500D03*
%TD*%
D15*
%TO.C,REF\u002A\u002A*%
X201750000Y-125000000D03*
%TD*%
D16*
%TO.C,R11*%
X158012500Y-87320834D03*
X155087500Y-87320834D03*
%TD*%
D38*
%TO.C,J3*%
X175750000Y-64267500D03*
D31*
X180750000Y-64267500D03*
X185750000Y-64267500D03*
%TD*%
D16*
%TO.C,R17*%
X159462500Y-105250000D03*
X156537500Y-105250000D03*
%TD*%
D34*
%TO.C,JP2*%
X163875000Y-105250000D03*
D35*
X162575000Y-105250000D03*
%TD*%
D16*
%TO.C,R16*%
X159462500Y-109000000D03*
X156537500Y-109000000D03*
%TD*%
M02*
