%TF.GenerationSoftware,KiCad,Pcbnew,10.0.4*%
%TF.CreationDate,2026-07-18T17:24:23-04:00*%
%TF.ProjectId,bench-psu-monitor,62656e63-682d-4707-9375-2d6d6f6e6974,rev?*%
%TF.SameCoordinates,Original*%
%TF.FileFunction,Soldermask,Bot*%
%TF.FilePolarity,Negative*%
%FSLAX46Y46*%
G04 Gerber Fmt 4.6, Leading zero omitted, Abs format (unit mm)*
G04 Created by KiCad (PCBNEW 10.0.4) date 2026-07-18 17:24:23*
%MOMM*%
%LPD*%
G01*
G04 APERTURE LIST*
G04 Aperture macros list*
%AMRoundRect*
0 Rectangle with rounded corners*
0 $1 Rounding radius*
0 $2 $3 $4 $5 $6 $7 $8 $9 X,Y pos of 4 corners*
0 Add a 4 corners polygon primitive as box body*
4,1,4,$2,$3,$4,$5,$6,$7,$8,$9,$2,$3,0*
0 Add four circle primitives for the rounded corners*
1,1,$1+$1,$2,$3*
1,1,$1+$1,$4,$5*
1,1,$1+$1,$6,$7*
1,1,$1+$1,$8,$9*
0 Add four rect primitives between the rounded corners*
20,1,$1+$1,$2,$3,$4,$5,0*
20,1,$1+$1,$4,$5,$6,$7,0*
20,1,$1+$1,$6,$7,$8,$9,0*
20,1,$1+$1,$8,$9,$2,$3,0*%
G04 Aperture macros list end*
%ADD10R,1.700000X1.700000*%
%ADD11C,1.700000*%
%ADD12C,7.000000*%
%ADD13RoundRect,0.250000X-0.600000X-0.750000X0.600000X-0.750000X0.600000X0.750000X-0.600000X0.750000X0*%
%ADD14O,1.700000X2.000000*%
%ADD15O,1.900000X1.524000*%
%ADD16RoundRect,0.250000X-1.050000X1.050000X-1.050000X-1.050000X1.050000X-1.050000X1.050000X1.050000X0*%
%ADD17C,2.600000*%
%ADD18RoundRect,0.250000X0.600000X0.750000X-0.600000X0.750000X-0.600000X-0.750000X0.600000X-0.750000X0*%
%ADD19RoundRect,0.250000X1.050000X1.050000X-1.050000X1.050000X-1.050000X-1.050000X1.050000X-1.050000X0*%
%ADD20RoundRect,0.250000X-1.050000X-1.050000X1.050000X-1.050000X1.050000X1.050000X-1.050000X1.050000X0*%
G04 APERTURE END LIST*
D10*
%TO.C,J6*%
X107010000Y-101340000D03*
D11*
X109550000Y-101340000D03*
X107010000Y-98800000D03*
X109550000Y-98800000D03*
X107010000Y-96260000D03*
X109550000Y-96260000D03*
X107010000Y-93720000D03*
X109550000Y-93720000D03*
X107010000Y-91180000D03*
X109550000Y-91180000D03*
X107010000Y-88640000D03*
X109550000Y-88640000D03*
%TD*%
D12*
%TO.C,REF\u002A\u002A*%
X201750000Y-57000000D03*
%TD*%
D13*
%TO.C,J4*%
X154050000Y-57900000D03*
D14*
X156550000Y-57900000D03*
%TD*%
D12*
%TO.C,REF\u002A\u002A*%
X103750000Y-125000000D03*
%TD*%
D15*
%TO.C,U2*%
X117150000Y-110160000D03*
X117150000Y-107620000D03*
X117150000Y-105080000D03*
X117150000Y-102540000D03*
X117150000Y-100000000D03*
X117150000Y-97460000D03*
X117150000Y-94920000D03*
X117150000Y-92380000D03*
X117150000Y-89840000D03*
X117150000Y-87300000D03*
X117150000Y-84760000D03*
X117150000Y-82220000D03*
X117150000Y-79680000D03*
X117150000Y-77140000D03*
X117150000Y-74600000D03*
X142550000Y-110160000D03*
X142550000Y-107620000D03*
X142550000Y-105080000D03*
X142550000Y-102540000D03*
X142550000Y-100000000D03*
X142550000Y-97460000D03*
X142550000Y-94920000D03*
X142550000Y-92380000D03*
X142550000Y-89840000D03*
X142550000Y-87300000D03*
X142550000Y-84760000D03*
X142550000Y-82220000D03*
X142550000Y-79680000D03*
X142550000Y-77140000D03*
X142550000Y-74600000D03*
%TD*%
D16*
%TO.C,J2*%
X201950000Y-87250000D03*
D17*
X201950000Y-92250000D03*
X201950000Y-97250000D03*
%TD*%
D18*
%TO.C,J5*%
X156400000Y-121925000D03*
D14*
X153900000Y-121925000D03*
%TD*%
D19*
%TO.C,J1*%
X181000000Y-114350000D03*
D17*
X176000000Y-114350000D03*
X171000000Y-114350000D03*
%TD*%
D12*
%TO.C,REF\u002A\u002A*%
X103750000Y-57000000D03*
%TD*%
%TO.C,REF\u002A\u002A*%
X201750000Y-125000000D03*
%TD*%
D20*
%TO.C,J3*%
X175750000Y-64267500D03*
D17*
X180750000Y-64267500D03*
X185750000Y-64267500D03*
%TD*%
M02*
