M48
; DRILL file KiCad 10.0.4 date 2026-07-18T17:24:18
; FORMAT={-:-/ absolute / metric / decimal}
; #@! TF.CreationDate,2026-07-18T17:24:18-04:00
; #@! TF.GenerationSoftware,Kicad,Pcbnew,10.0.4
; #@! TF.FileFunction,Plated,1,2,PTH
FMAT,2
METRIC
; #@! TA.AperFunction,Plated,PTH,ViaDrill
T1C0.800
; #@! TA.AperFunction,Plated,PTH,ComponentDrill
T2C0.800
; #@! TA.AperFunction,Plated,PTH,ComponentDrill
T3C1.000
; #@! TA.AperFunction,Plated,PTH,ComponentDrill
T4C1.300
; #@! TA.AperFunction,Plated,PTH,ComponentDrill
T5C3.500
%
G90
G05
T1
X150.95Y-65.0
X151.55Y-115.6
X152.682Y-93.876
X152.75Y-97.2
X152.95Y-77.4
X152.95Y-80.8
X152.95Y-84.0
X152.95Y-87.4
X154.25Y-105.25
X159.25Y-64.75
X160.95Y-94.0
X160.95Y-97.0
X164.321Y-87.321
X167.55Y-97.2
X169.0Y-92.5
X169.5Y-82.5
X170.15Y-97.2
X171.0Y-89.25
X172.55Y-97.2
X172.865Y-82.518
X177.688Y-89.525
X180.95Y-86.6
X181.55Y-92.8
X192.882Y-71.354
T2
X117.15Y-74.6
X117.15Y-77.14
X117.15Y-79.68
X117.15Y-82.22
X117.15Y-84.76
X117.15Y-87.3
X117.15Y-89.84
X117.15Y-92.38
X117.15Y-94.92
X117.15Y-97.46
X117.15Y-100.0
X117.15Y-102.54
X117.15Y-105.08
X117.15Y-107.62
X117.15Y-110.16
X142.55Y-74.6
X142.55Y-77.14
X142.55Y-79.68
X142.55Y-82.22
X142.55Y-84.76
X142.55Y-87.3
X142.55Y-89.84
X142.55Y-92.38
X142.55Y-94.92
X142.55Y-97.46
X142.55Y-100.0
X142.55Y-102.54
X142.55Y-105.08
X142.55Y-107.62
X142.55Y-110.16
T3
X107.01Y-88.64
X107.01Y-91.18
X107.01Y-93.72
X107.01Y-96.26
X107.01Y-98.8
X107.01Y-101.34
X109.55Y-88.64
X109.55Y-91.18
X109.55Y-93.72
X109.55Y-96.26
X109.55Y-98.8
X109.55Y-101.34
X153.9Y-121.925
X154.05Y-57.9
X156.4Y-121.925
X156.55Y-57.9
T4
X171.0Y-114.35
X175.75Y-64.267
X176.0Y-114.35
X180.75Y-64.267
X181.0Y-114.35
X185.75Y-64.267
X201.95Y-87.25
X201.95Y-92.25
X201.95Y-97.25
T5
X103.75Y-57.0
X103.75Y-125.0
X201.75Y-57.0
X201.75Y-125.0
M30
